M48
;GenerationSoftware,Autodesk,EAGLE,9.6.2*%
;CreationDate,2023-10-30T22:51:03Z*%
FMAT,2
ICI,OFF
METRIC,TZ,000.000
T5C0.350
T4C0.813
T3C1.100
T2C2.300
T1C3.175
%
G90
M71
T1
X45414Y19042
X60654Y69842
X12394Y71112
T2
X63501Y11961
T3
X7314Y57142
X4774Y54602
X7314Y54602
X4774Y52062
X7314Y52062
X4774Y49522
X7314Y49522
X4774Y46982
X7314Y46982
X4774Y44442
X4774Y41902
X7314Y41902
X4774Y39362
X7314Y39362
X4774Y36822
X7314Y36822
X4774Y34282
X7314Y34282
X4774Y31742
X7314Y31742
X4774Y29202
X7314Y29202
X4774Y26662
X7314Y26662
X7314Y44442
X4774Y24122
X7314Y24122
X4774Y21582
X7314Y21582
X60654Y43426
X60654Y45966
X60654Y48506
X60654Y51046
X60654Y53586
X60654Y56126
X60654Y58666
X60654Y61206
X60654Y63746
X60654Y66286
X60654Y26662
X60654Y29202
X60654Y31742
X60654Y34282
X60654Y36822
X60654Y39362
X60654Y21582
X60654Y24122
X65734Y67277
X68274Y67277
X65734Y64737
X68274Y64737
X65734Y62197
X68274Y62197
X65734Y59657
X68274Y59657
X65734Y57117
X68274Y57117
X65734Y54577
X68274Y54577
X65734Y52037
X65734Y49497
X68274Y49497
X65734Y46957
X68274Y46957
X65734Y44417
X68274Y44417
X65734Y41877
X68274Y41877
X65734Y39337
X68274Y39337
X65734Y36797
X68274Y36797
X65734Y34257
X68274Y34257
X12394Y49522
X65734Y31717
X68274Y31717
X65734Y29177
X68274Y29177
X65734Y26637
X68274Y26637
X65734Y24097
X68274Y24097
X65734Y21557
X68274Y21557
X12394Y34282
X12394Y31742
X12394Y29202
X12394Y26662
X12394Y24122
X12394Y21582
X12394Y57142
X12394Y54602
X12394Y52062
X68274Y52037
X12394Y46982
X12394Y44442
X12394Y41902
X12394Y39362
X4774Y67302
X7314Y67302
X4774Y64762
X7314Y64762
X4774Y62222
X7314Y62222
X4774Y59682
X7314Y59682
X4774Y57142
T4
X58014Y10722
X58014Y13262
X53084Y14552
X53084Y9472
T5
X30890Y48590
X27890Y44360
X30340Y41940
X31360Y41750
X35260Y39000
X38640Y40950
X23370Y45190
X28780Y46850
X18690Y39970
X49010Y67600
X54420Y63550
X57430Y72740
X56550Y74580
X22800Y35800
X27800Y36400
X8180Y38080
X13750Y38090
X62990Y59820
X62980Y62430
X15010Y26090
X28980Y58200
X28970Y59890
X21180Y40549
X21190Y45122
X41520Y32870
X40000Y34400
X30580Y34420
X30890Y39490
X32780Y39290
X33030Y37150
X40520Y37020
X50740Y32730
X28070Y42950
X29070Y34760
X23940Y32300
X25610Y42990
X40940Y55220
X14740Y59560
X36630Y64170
X24904Y64208
X52540Y52880
X52520Y55790
X63800Y36990
X62080Y36930
X29124Y43980
X29860Y61490
X29880Y48190
X29910Y67460
X29880Y71040
X21848Y48390
X19720Y48360
X38575Y51387
X33910Y50411
X40430Y51280
X14620Y50730
X14640Y42760
X48370Y46980
X27290Y31730
X58790Y50930
X58870Y32280
X44240Y44730
X9150Y40420
X12410Y36090
X42470Y44230
X50620Y43340
X10340Y21850
X64130Y32950
X62050Y33090
X56740Y45190
X54040Y37320
X48270Y35790
X45220Y34940
X45220Y38990
X61640Y41360
X64265Y41425
X50130Y62350
X36000Y46600
X37240Y52900
X32950Y50030
X56730Y52110
X52410Y31090
M30