G04 EAGLE Gerber RS-274X export*
G75*
%MOMM*%
%FSLAX34Y34*%
%LPD*%
%IN*%
%IPPOS*%
%AMOC8*
5,1,8,0,0,1.08239X$1,22.5*%
G01*
%ADD10C,0.254000*%


D10*
X-254Y0D02*
X732844Y254D01*
X733720Y791910D01*
X622Y791656D01*
X-254Y0D01*
X635464Y131114D02*
X636365Y131043D01*
X637257Y130902D01*
X638136Y130691D01*
X638995Y130412D01*
X639830Y130066D01*
X640635Y129655D01*
X641406Y129183D01*
X642137Y128652D01*
X642824Y128065D01*
X643463Y127426D01*
X644050Y126739D01*
X644581Y126008D01*
X645053Y125237D01*
X645464Y124432D01*
X645810Y123597D01*
X646089Y122738D01*
X646300Y121859D01*
X646441Y120967D01*
X646512Y120066D01*
X646512Y119162D01*
X646441Y118261D01*
X646300Y117369D01*
X646089Y116490D01*
X645810Y115631D01*
X645464Y114796D01*
X645053Y113991D01*
X644581Y113220D01*
X644050Y112489D01*
X643463Y111802D01*
X642824Y111163D01*
X642137Y110576D01*
X641406Y110045D01*
X640635Y109573D01*
X639830Y109162D01*
X638995Y108816D01*
X638136Y108537D01*
X637257Y108326D01*
X636365Y108185D01*
X635464Y108114D01*
X634560Y108114D01*
X633659Y108185D01*
X632767Y108326D01*
X631888Y108537D01*
X631029Y108816D01*
X630194Y109162D01*
X629389Y109573D01*
X628618Y110045D01*
X627887Y110576D01*
X627200Y111163D01*
X626561Y111802D01*
X625974Y112489D01*
X625443Y113220D01*
X624971Y113991D01*
X624560Y114796D01*
X624214Y115631D01*
X623935Y116490D01*
X623724Y117369D01*
X623583Y118261D01*
X623512Y119162D01*
X623512Y120066D01*
X623583Y120967D01*
X623724Y121859D01*
X623935Y122738D01*
X624214Y123597D01*
X624560Y124432D01*
X624971Y125237D01*
X625443Y126008D01*
X625974Y126739D01*
X626561Y127426D01*
X627200Y128065D01*
X627887Y128652D01*
X628618Y129183D01*
X629389Y129655D01*
X630194Y130066D01*
X631029Y130412D01*
X631888Y130691D01*
X632767Y130902D01*
X633659Y131043D01*
X634560Y131114D01*
X635464Y131114D01*
X622415Y697900D02*
X622347Y696863D01*
X622211Y695833D01*
X622009Y694813D01*
X621740Y693809D01*
X621405Y692825D01*
X621008Y691865D01*
X620548Y690933D01*
X620028Y690032D01*
X619451Y689168D01*
X618818Y688344D01*
X618133Y687562D01*
X617398Y686827D01*
X616616Y686142D01*
X615792Y685509D01*
X614928Y684932D01*
X614027Y684412D01*
X613095Y683952D01*
X612135Y683555D01*
X611151Y683220D01*
X610147Y682951D01*
X609127Y682749D01*
X608097Y682613D01*
X607060Y682545D01*
X606020Y682545D01*
X604983Y682613D01*
X603953Y682749D01*
X602933Y682951D01*
X601929Y683220D01*
X600945Y683555D01*
X599985Y683952D01*
X599053Y684412D01*
X598152Y684932D01*
X597288Y685509D01*
X596464Y686142D01*
X595682Y686827D01*
X594947Y687562D01*
X594262Y688344D01*
X593629Y689168D01*
X593052Y690032D01*
X592532Y690933D01*
X592072Y691865D01*
X591675Y692825D01*
X591340Y693809D01*
X591071Y694813D01*
X590869Y695833D01*
X590733Y696863D01*
X590665Y697900D01*
X590665Y698940D01*
X590733Y699977D01*
X590869Y701007D01*
X591071Y702027D01*
X591340Y703031D01*
X591675Y704015D01*
X592072Y704975D01*
X592532Y705907D01*
X593052Y706808D01*
X593629Y707672D01*
X594262Y708496D01*
X594947Y709278D01*
X595682Y710013D01*
X596464Y710698D01*
X597288Y711331D01*
X598152Y711908D01*
X599053Y712428D01*
X599985Y712888D01*
X600945Y713285D01*
X601929Y713620D01*
X602933Y713889D01*
X603953Y714091D01*
X604983Y714227D01*
X606020Y714295D01*
X607060Y714295D01*
X608097Y714227D01*
X609127Y714091D01*
X610147Y713889D01*
X611151Y713620D01*
X612135Y713285D01*
X613095Y712888D01*
X614027Y712428D01*
X614928Y711908D01*
X615792Y711331D01*
X616616Y710698D01*
X617398Y710013D01*
X618133Y709278D01*
X618818Y708496D01*
X619451Y707672D01*
X620028Y706808D01*
X620548Y705907D01*
X621008Y704975D01*
X621405Y704015D01*
X621740Y703031D01*
X622009Y702027D01*
X622211Y701007D01*
X622347Y699977D01*
X622415Y698940D01*
X622415Y697900D01*
X139815Y710600D02*
X139747Y709563D01*
X139611Y708533D01*
X139409Y707513D01*
X139140Y706509D01*
X138805Y705525D01*
X138408Y704565D01*
X137948Y703633D01*
X137428Y702732D01*
X136851Y701868D01*
X136218Y701044D01*
X135533Y700262D01*
X134798Y699527D01*
X134016Y698842D01*
X133192Y698209D01*
X132328Y697632D01*
X131427Y697112D01*
X130495Y696652D01*
X129535Y696255D01*
X128551Y695920D01*
X127547Y695651D01*
X126527Y695449D01*
X125497Y695313D01*
X124460Y695245D01*
X123420Y695245D01*
X122383Y695313D01*
X121353Y695449D01*
X120333Y695651D01*
X119329Y695920D01*
X118345Y696255D01*
X117385Y696652D01*
X116453Y697112D01*
X115552Y697632D01*
X114688Y698209D01*
X113864Y698842D01*
X113082Y699527D01*
X112347Y700262D01*
X111662Y701044D01*
X111029Y701868D01*
X110452Y702732D01*
X109932Y703633D01*
X109472Y704565D01*
X109075Y705525D01*
X108740Y706509D01*
X108471Y707513D01*
X108269Y708533D01*
X108133Y709563D01*
X108065Y710600D01*
X108065Y711640D01*
X108133Y712677D01*
X108269Y713707D01*
X108471Y714727D01*
X108740Y715731D01*
X109075Y716715D01*
X109472Y717675D01*
X109932Y718607D01*
X110452Y719508D01*
X111029Y720372D01*
X111662Y721196D01*
X112347Y721978D01*
X113082Y722713D01*
X113864Y723398D01*
X114688Y724031D01*
X115552Y724608D01*
X116453Y725128D01*
X117385Y725588D01*
X118345Y725985D01*
X119329Y726320D01*
X120333Y726589D01*
X121353Y726791D01*
X122383Y726927D01*
X123420Y726995D01*
X124460Y726995D01*
X125497Y726927D01*
X126527Y726791D01*
X127547Y726589D01*
X128551Y726320D01*
X129535Y725985D01*
X130495Y725588D01*
X131427Y725128D01*
X132328Y724608D01*
X133192Y724031D01*
X134016Y723398D01*
X134798Y722713D01*
X135533Y721978D01*
X136218Y721196D01*
X136851Y720372D01*
X137428Y719508D01*
X137948Y718607D01*
X138408Y717675D01*
X138805Y716715D01*
X139140Y715731D01*
X139409Y714727D01*
X139611Y713707D01*
X139747Y712677D01*
X139815Y711640D01*
X139815Y710600D01*
X470015Y189900D02*
X469947Y188863D01*
X469811Y187833D01*
X469609Y186813D01*
X469340Y185809D01*
X469005Y184825D01*
X468608Y183865D01*
X468148Y182933D01*
X467628Y182032D01*
X467051Y181168D01*
X466418Y180344D01*
X465733Y179562D01*
X464998Y178827D01*
X464216Y178142D01*
X463392Y177509D01*
X462528Y176932D01*
X461627Y176412D01*
X460695Y175952D01*
X459735Y175555D01*
X458751Y175220D01*
X457747Y174951D01*
X456727Y174749D01*
X455697Y174613D01*
X454660Y174545D01*
X453620Y174545D01*
X452583Y174613D01*
X451553Y174749D01*
X450533Y174951D01*
X449529Y175220D01*
X448545Y175555D01*
X447585Y175952D01*
X446653Y176412D01*
X445752Y176932D01*
X444888Y177509D01*
X444064Y178142D01*
X443282Y178827D01*
X442547Y179562D01*
X441862Y180344D01*
X441229Y181168D01*
X440652Y182032D01*
X440132Y182933D01*
X439672Y183865D01*
X439275Y184825D01*
X438940Y185809D01*
X438671Y186813D01*
X438469Y187833D01*
X438333Y188863D01*
X438265Y189900D01*
X438265Y190940D01*
X438333Y191977D01*
X438469Y193007D01*
X438671Y194027D01*
X438940Y195031D01*
X439275Y196015D01*
X439672Y196975D01*
X440132Y197907D01*
X440652Y198808D01*
X441229Y199672D01*
X441862Y200496D01*
X442547Y201278D01*
X443282Y202013D01*
X444064Y202698D01*
X444888Y203331D01*
X445752Y203908D01*
X446653Y204428D01*
X447585Y204888D01*
X448545Y205285D01*
X449529Y205620D01*
X450533Y205889D01*
X451553Y206091D01*
X452583Y206227D01*
X453620Y206295D01*
X454660Y206295D01*
X455697Y206227D01*
X456727Y206091D01*
X457747Y205889D01*
X458751Y205620D01*
X459735Y205285D01*
X460695Y204888D01*
X461627Y204428D01*
X462528Y203908D01*
X463392Y203331D01*
X464216Y202698D01*
X464998Y202013D01*
X465733Y201278D01*
X466418Y200496D01*
X467051Y199672D01*
X467628Y198808D01*
X468148Y197907D01*
X468608Y196975D01*
X469005Y196015D01*
X469340Y195031D01*
X469609Y194027D01*
X469811Y193007D01*
X469947Y191977D01*
X470015Y190940D01*
X470015Y189900D01*
M02*
