G04 EAGLE Gerber RS-274X export*
G75*
%MOMM*%
%FSLAX34Y34*%
%LPD*%
%INSolderpaste Top*%
%IPPOS*%
%AMOC8*
5,1,8,0,0,1.08239X$1,22.5*%
G01*
%ADD10R,1.300000X1.500000*%
%ADD11R,1.500000X1.300000*%
%ADD12R,0.775000X0.625000*%
%ADD13R,5.080000X1.778000*%
%ADD14R,1.300000X1.600000*%
%ADD15R,1.600000X1.300000*%
%ADD16C,0.110000*%
%ADD17R,4.150000X4.150000*%


D10*
X500040Y660680D03*
X519040Y660680D03*
X452780Y406400D03*
X471780Y406400D03*
X196240Y358140D03*
X215240Y358140D03*
D11*
X186860Y431820D03*
X186860Y412820D03*
X276860Y400660D03*
X276860Y381660D03*
D10*
X264540Y452160D03*
X245540Y452160D03*
X244940Y561940D03*
X263940Y561940D03*
X435420Y675800D03*
X454420Y675800D03*
X500480Y725540D03*
X481480Y725540D03*
X529440Y727340D03*
X548440Y727340D03*
D12*
X631637Y104739D03*
X638387Y134489D03*
D13*
X298820Y753240D03*
X202300Y753240D03*
D14*
X318040Y653960D03*
X299040Y653960D03*
X200960Y323280D03*
X181960Y323280D03*
D15*
X196900Y534400D03*
X196900Y553400D03*
X147140Y573140D03*
X147140Y554140D03*
D14*
X216900Y659120D03*
X197900Y659120D03*
X565880Y591520D03*
X584880Y591520D03*
X544260Y540140D03*
X563260Y540140D03*
X389960Y675640D03*
X408960Y675640D03*
X177840Y702720D03*
X196840Y702720D03*
X226840Y689680D03*
X245840Y689680D03*
X524600Y349200D03*
X505600Y349200D03*
X360600Y357900D03*
X379600Y357900D03*
X476880Y311520D03*
X495880Y311520D03*
X517020Y274780D03*
X536020Y274780D03*
D15*
X268140Y526480D03*
X268140Y507480D03*
X329020Y307780D03*
X329020Y288780D03*
D16*
X328210Y476690D02*
X333110Y476690D01*
X328210Y476690D02*
X328210Y477790D01*
X333110Y477790D01*
X333110Y476690D01*
X333110Y477735D02*
X328210Y477735D01*
X328210Y471690D02*
X333110Y471690D01*
X328210Y471690D02*
X328210Y472790D01*
X333110Y472790D01*
X333110Y471690D01*
X333110Y472735D02*
X328210Y472735D01*
X328210Y466690D02*
X333110Y466690D01*
X328210Y466690D02*
X328210Y467790D01*
X333110Y467790D01*
X333110Y466690D01*
X333110Y467735D02*
X328210Y467735D01*
X328210Y461690D02*
X333110Y461690D01*
X328210Y461690D02*
X328210Y462790D01*
X333110Y462790D01*
X333110Y461690D01*
X333110Y462735D02*
X328210Y462735D01*
X328210Y456690D02*
X333110Y456690D01*
X328210Y456690D02*
X328210Y457790D01*
X333110Y457790D01*
X333110Y456690D01*
X333110Y457735D02*
X328210Y457735D01*
X328210Y451690D02*
X333110Y451690D01*
X328210Y451690D02*
X328210Y452790D01*
X333110Y452790D01*
X333110Y451690D01*
X333110Y452735D02*
X328210Y452735D01*
X328210Y446690D02*
X333110Y446690D01*
X328210Y446690D02*
X328210Y447790D01*
X333110Y447790D01*
X333110Y446690D01*
X333110Y447735D02*
X328210Y447735D01*
X328210Y441690D02*
X333110Y441690D01*
X328210Y441690D02*
X328210Y442790D01*
X333110Y442790D01*
X333110Y441690D01*
X333110Y442735D02*
X328210Y442735D01*
X328210Y436690D02*
X333110Y436690D01*
X328210Y436690D02*
X328210Y437790D01*
X333110Y437790D01*
X333110Y436690D01*
X333110Y437735D02*
X328210Y437735D01*
X337460Y432940D02*
X337460Y428040D01*
X336360Y428040D01*
X336360Y432940D01*
X337460Y432940D01*
X337460Y429085D02*
X336360Y429085D01*
X336360Y430130D02*
X337460Y430130D01*
X337460Y431175D02*
X336360Y431175D01*
X336360Y432220D02*
X337460Y432220D01*
X342460Y432940D02*
X342460Y428040D01*
X341360Y428040D01*
X341360Y432940D01*
X342460Y432940D01*
X342460Y429085D02*
X341360Y429085D01*
X341360Y430130D02*
X342460Y430130D01*
X342460Y431175D02*
X341360Y431175D01*
X341360Y432220D02*
X342460Y432220D01*
X347460Y432940D02*
X347460Y428040D01*
X346360Y428040D01*
X346360Y432940D01*
X347460Y432940D01*
X347460Y429085D02*
X346360Y429085D01*
X346360Y430130D02*
X347460Y430130D01*
X347460Y431175D02*
X346360Y431175D01*
X346360Y432220D02*
X347460Y432220D01*
X352460Y432940D02*
X352460Y428040D01*
X351360Y428040D01*
X351360Y432940D01*
X352460Y432940D01*
X352460Y429085D02*
X351360Y429085D01*
X351360Y430130D02*
X352460Y430130D01*
X352460Y431175D02*
X351360Y431175D01*
X351360Y432220D02*
X352460Y432220D01*
X357460Y432940D02*
X357460Y428040D01*
X356360Y428040D01*
X356360Y432940D01*
X357460Y432940D01*
X357460Y429085D02*
X356360Y429085D01*
X356360Y430130D02*
X357460Y430130D01*
X357460Y431175D02*
X356360Y431175D01*
X356360Y432220D02*
X357460Y432220D01*
X362460Y432940D02*
X362460Y428040D01*
X361360Y428040D01*
X361360Y432940D01*
X362460Y432940D01*
X362460Y429085D02*
X361360Y429085D01*
X361360Y430130D02*
X362460Y430130D01*
X362460Y431175D02*
X361360Y431175D01*
X361360Y432220D02*
X362460Y432220D01*
X367460Y432940D02*
X367460Y428040D01*
X366360Y428040D01*
X366360Y432940D01*
X367460Y432940D01*
X367460Y429085D02*
X366360Y429085D01*
X366360Y430130D02*
X367460Y430130D01*
X367460Y431175D02*
X366360Y431175D01*
X366360Y432220D02*
X367460Y432220D01*
X372460Y432940D02*
X372460Y428040D01*
X371360Y428040D01*
X371360Y432940D01*
X372460Y432940D01*
X372460Y429085D02*
X371360Y429085D01*
X371360Y430130D02*
X372460Y430130D01*
X372460Y431175D02*
X371360Y431175D01*
X371360Y432220D02*
X372460Y432220D01*
X377460Y432940D02*
X377460Y428040D01*
X376360Y428040D01*
X376360Y432940D01*
X377460Y432940D01*
X377460Y429085D02*
X376360Y429085D01*
X376360Y430130D02*
X377460Y430130D01*
X377460Y431175D02*
X376360Y431175D01*
X376360Y432220D02*
X377460Y432220D01*
X382460Y432940D02*
X382460Y428040D01*
X381360Y428040D01*
X381360Y432940D01*
X382460Y432940D01*
X382460Y429085D02*
X381360Y429085D01*
X381360Y430130D02*
X382460Y430130D01*
X382460Y431175D02*
X381360Y431175D01*
X381360Y432220D02*
X382460Y432220D01*
X386210Y481690D02*
X391110Y481690D01*
X386210Y481690D02*
X386210Y482790D01*
X391110Y482790D01*
X391110Y481690D01*
X391110Y482735D02*
X386210Y482735D01*
X386210Y476690D02*
X391110Y476690D01*
X386210Y476690D02*
X386210Y477790D01*
X391110Y477790D01*
X391110Y476690D01*
X391110Y477735D02*
X386210Y477735D01*
X386210Y471690D02*
X391110Y471690D01*
X386210Y471690D02*
X386210Y472790D01*
X391110Y472790D01*
X391110Y471690D01*
X391110Y472735D02*
X386210Y472735D01*
X386210Y466690D02*
X391110Y466690D01*
X386210Y466690D02*
X386210Y467790D01*
X391110Y467790D01*
X391110Y466690D01*
X391110Y467735D02*
X386210Y467735D01*
X386210Y461690D02*
X391110Y461690D01*
X386210Y461690D02*
X386210Y462790D01*
X391110Y462790D01*
X391110Y461690D01*
X391110Y462735D02*
X386210Y462735D01*
X386210Y456690D02*
X391110Y456690D01*
X386210Y456690D02*
X386210Y457790D01*
X391110Y457790D01*
X391110Y456690D01*
X391110Y457735D02*
X386210Y457735D01*
X386210Y451690D02*
X391110Y451690D01*
X386210Y451690D02*
X386210Y452790D01*
X391110Y452790D01*
X391110Y451690D01*
X391110Y452735D02*
X386210Y452735D01*
X386210Y446690D02*
X391110Y446690D01*
X386210Y446690D02*
X386210Y447790D01*
X391110Y447790D01*
X391110Y446690D01*
X391110Y447735D02*
X386210Y447735D01*
X386210Y441690D02*
X391110Y441690D01*
X386210Y441690D02*
X386210Y442790D01*
X391110Y442790D01*
X391110Y441690D01*
X391110Y442735D02*
X386210Y442735D01*
X386210Y436690D02*
X391110Y436690D01*
X386210Y436690D02*
X386210Y437790D01*
X391110Y437790D01*
X391110Y436690D01*
X391110Y437735D02*
X386210Y437735D01*
X337460Y486040D02*
X337460Y490940D01*
X337460Y486040D02*
X336360Y486040D01*
X336360Y490940D01*
X337460Y490940D01*
X337460Y487085D02*
X336360Y487085D01*
X336360Y488130D02*
X337460Y488130D01*
X337460Y489175D02*
X336360Y489175D01*
X336360Y490220D02*
X337460Y490220D01*
X342460Y490940D02*
X342460Y486040D01*
X341360Y486040D01*
X341360Y490940D01*
X342460Y490940D01*
X342460Y487085D02*
X341360Y487085D01*
X341360Y488130D02*
X342460Y488130D01*
X342460Y489175D02*
X341360Y489175D01*
X341360Y490220D02*
X342460Y490220D01*
X347460Y490940D02*
X347460Y486040D01*
X346360Y486040D01*
X346360Y490940D01*
X347460Y490940D01*
X347460Y487085D02*
X346360Y487085D01*
X346360Y488130D02*
X347460Y488130D01*
X347460Y489175D02*
X346360Y489175D01*
X346360Y490220D02*
X347460Y490220D01*
X352460Y490940D02*
X352460Y486040D01*
X351360Y486040D01*
X351360Y490940D01*
X352460Y490940D01*
X352460Y487085D02*
X351360Y487085D01*
X351360Y488130D02*
X352460Y488130D01*
X352460Y489175D02*
X351360Y489175D01*
X351360Y490220D02*
X352460Y490220D01*
X357460Y490940D02*
X357460Y486040D01*
X356360Y486040D01*
X356360Y490940D01*
X357460Y490940D01*
X357460Y487085D02*
X356360Y487085D01*
X356360Y488130D02*
X357460Y488130D01*
X357460Y489175D02*
X356360Y489175D01*
X356360Y490220D02*
X357460Y490220D01*
X362460Y490940D02*
X362460Y486040D01*
X361360Y486040D01*
X361360Y490940D01*
X362460Y490940D01*
X362460Y487085D02*
X361360Y487085D01*
X361360Y488130D02*
X362460Y488130D01*
X362460Y489175D02*
X361360Y489175D01*
X361360Y490220D02*
X362460Y490220D01*
X367460Y490940D02*
X367460Y486040D01*
X366360Y486040D01*
X366360Y490940D01*
X367460Y490940D01*
X367460Y487085D02*
X366360Y487085D01*
X366360Y488130D02*
X367460Y488130D01*
X367460Y489175D02*
X366360Y489175D01*
X366360Y490220D02*
X367460Y490220D01*
X372460Y490940D02*
X372460Y486040D01*
X371360Y486040D01*
X371360Y490940D01*
X372460Y490940D01*
X372460Y487085D02*
X371360Y487085D01*
X371360Y488130D02*
X372460Y488130D01*
X372460Y489175D02*
X371360Y489175D01*
X371360Y490220D02*
X372460Y490220D01*
X377460Y490940D02*
X377460Y486040D01*
X376360Y486040D01*
X376360Y490940D01*
X377460Y490940D01*
X377460Y487085D02*
X376360Y487085D01*
X376360Y488130D02*
X377460Y488130D01*
X377460Y489175D02*
X376360Y489175D01*
X376360Y490220D02*
X377460Y490220D01*
X382460Y490940D02*
X382460Y486040D01*
X381360Y486040D01*
X381360Y490940D01*
X382460Y490940D01*
X382460Y487085D02*
X381360Y487085D01*
X381360Y488130D02*
X382460Y488130D01*
X382460Y489175D02*
X381360Y489175D01*
X381360Y490220D02*
X382460Y490220D01*
X333110Y481690D02*
X328210Y481690D01*
X328210Y482790D01*
X333110Y482790D01*
X333110Y481690D01*
X333110Y482735D02*
X328210Y482735D01*
D17*
X359410Y459740D03*
M02*
