G04 EAGLE Gerber RS-274X export*
G75*
%MOMM*%
%FSLAX34Y34*%
%LPD*%
%INBottom Copper*%
%IPPOS*%
%AMOC8*
5,1,8,0,0,1.08239X$1,22.5*%
G01*
%ADD10C,1.320800*%
%ADD11R,1.850000X1.850000*%
%ADD12C,1.850000*%
%ADD13C,0.756400*%
%ADD14C,0.254000*%

G36*
X721934Y10411D02*
X721934Y10411D01*
X721953Y10414D01*
X721973Y10412D01*
X722075Y10434D01*
X722177Y10451D01*
X722194Y10460D01*
X722213Y10464D01*
X722303Y10517D01*
X722394Y10566D01*
X722408Y10580D01*
X722424Y10590D01*
X722492Y10669D01*
X722564Y10744D01*
X722572Y10762D01*
X722585Y10777D01*
X722624Y10873D01*
X722667Y10967D01*
X722669Y10987D01*
X722677Y11005D01*
X722695Y11171D01*
X723547Y780983D01*
X723544Y781004D01*
X723546Y781024D01*
X723524Y781125D01*
X723508Y781226D01*
X723498Y781244D01*
X723494Y781264D01*
X723441Y781353D01*
X723393Y781444D01*
X723378Y781458D01*
X723368Y781475D01*
X723289Y781542D01*
X723215Y781613D01*
X723196Y781622D01*
X723181Y781635D01*
X723085Y781674D01*
X722992Y781717D01*
X722971Y781719D01*
X722952Y781727D01*
X722786Y781745D01*
X11532Y781499D01*
X11513Y781496D01*
X11493Y781498D01*
X11391Y781476D01*
X11289Y781459D01*
X11272Y781450D01*
X11253Y781446D01*
X11163Y781393D01*
X11072Y781344D01*
X11058Y781330D01*
X11042Y781320D01*
X10974Y781241D01*
X10902Y781166D01*
X10894Y781148D01*
X10881Y781133D01*
X10842Y781037D01*
X10799Y780943D01*
X10797Y780923D01*
X10789Y780905D01*
X10771Y780739D01*
X9919Y10927D01*
X9922Y10906D01*
X9920Y10886D01*
X9942Y10785D01*
X9958Y10684D01*
X9968Y10666D01*
X9972Y10646D01*
X10025Y10557D01*
X10073Y10466D01*
X10088Y10452D01*
X10098Y10435D01*
X10177Y10368D01*
X10251Y10297D01*
X10270Y10288D01*
X10285Y10275D01*
X10381Y10236D01*
X10474Y10193D01*
X10495Y10191D01*
X10514Y10183D01*
X10680Y10165D01*
X721934Y10411D01*
G37*
%LPC*%
G36*
X140572Y289348D02*
X140572Y289348D01*
X139741Y290177D01*
X139741Y291316D01*
X139741Y291317D01*
X139704Y351611D01*
X139701Y351631D01*
X139703Y351650D01*
X139681Y351751D01*
X139664Y351854D01*
X139655Y351871D01*
X139651Y351891D01*
X139597Y351980D01*
X139549Y352071D01*
X139535Y352085D01*
X139524Y352102D01*
X139445Y352169D01*
X139371Y352240D01*
X139352Y352249D01*
X139337Y352262D01*
X139241Y352300D01*
X139147Y352344D01*
X139128Y352346D01*
X139109Y352353D01*
X138942Y352372D01*
X135475Y352369D01*
X135456Y352366D01*
X135437Y352368D01*
X135335Y352346D01*
X135233Y352329D01*
X135215Y352320D01*
X135196Y352316D01*
X135107Y352262D01*
X135015Y352214D01*
X135002Y352199D01*
X134985Y352189D01*
X134918Y352110D01*
X134846Y352035D01*
X134838Y352017D01*
X134825Y352002D01*
X134786Y351906D01*
X134743Y351812D01*
X134741Y351793D01*
X134733Y351774D01*
X134715Y351608D01*
X134715Y332938D01*
X133822Y332045D01*
X114058Y332045D01*
X113165Y332938D01*
X113165Y351589D01*
X113162Y351609D01*
X113164Y351629D01*
X113142Y351730D01*
X113126Y351831D01*
X113116Y351849D01*
X113112Y351869D01*
X113059Y351958D01*
X113010Y352049D01*
X112996Y352063D01*
X112985Y352080D01*
X112907Y352147D01*
X112832Y352218D01*
X112814Y352227D01*
X112798Y352240D01*
X112703Y352278D01*
X112609Y352322D01*
X112589Y352324D01*
X112570Y352332D01*
X112403Y352350D01*
X87572Y352330D01*
X87462Y352312D01*
X87352Y352297D01*
X87341Y352292D01*
X87329Y352290D01*
X87306Y352277D01*
X87263Y352274D01*
X87217Y352254D01*
X87168Y352243D01*
X87138Y352225D01*
X85987Y352218D01*
X85973Y352216D01*
X85951Y352217D01*
X84803Y352156D01*
X84763Y352166D01*
X84695Y352192D01*
X84626Y352200D01*
X84595Y352207D01*
X84571Y352206D01*
X84528Y352210D01*
X80842Y352189D01*
X80773Y352178D01*
X80704Y352176D01*
X80653Y352157D01*
X80600Y352148D01*
X80538Y352115D01*
X80473Y352091D01*
X80431Y352057D01*
X80383Y352032D01*
X80335Y351981D01*
X80281Y351938D01*
X80252Y351892D01*
X80214Y351852D01*
X80186Y351789D01*
X80148Y351731D01*
X80135Y351678D01*
X80112Y351629D01*
X80105Y351560D01*
X80088Y351492D01*
X80092Y351438D01*
X80086Y351384D01*
X80102Y351316D01*
X80107Y351247D01*
X80128Y351197D01*
X80140Y351144D01*
X80176Y351085D01*
X80203Y351021D01*
X80250Y350962D01*
X80267Y350934D01*
X80284Y350919D01*
X80308Y350890D01*
X82274Y348923D01*
X83915Y344963D01*
X83915Y340677D01*
X82274Y336717D01*
X79243Y333686D01*
X75283Y332045D01*
X70997Y332045D01*
X67037Y333686D01*
X64006Y336717D01*
X62365Y340677D01*
X62365Y344963D01*
X63836Y348513D01*
X63846Y348557D01*
X63865Y348599D01*
X63874Y348676D01*
X63892Y348752D01*
X63887Y348798D01*
X63892Y348843D01*
X63876Y348920D01*
X63869Y348997D01*
X63850Y349039D01*
X63840Y349084D01*
X63800Y349151D01*
X63769Y349222D01*
X63738Y349256D01*
X63714Y349295D01*
X63655Y349346D01*
X63602Y349403D01*
X63562Y349425D01*
X63527Y349455D01*
X63455Y349484D01*
X63387Y349521D01*
X63342Y349530D01*
X63299Y349547D01*
X63163Y349562D01*
X63145Y349565D01*
X63140Y349564D01*
X63132Y349565D01*
X58868Y349565D01*
X55759Y352674D01*
X55759Y357070D01*
X58868Y360179D01*
X63264Y360179D01*
X65525Y357918D01*
X65601Y357864D01*
X65672Y357803D01*
X65700Y357792D01*
X65725Y357775D01*
X65814Y357747D01*
X65901Y357713D01*
X65939Y357709D01*
X65960Y357702D01*
X65992Y357703D01*
X66067Y357695D01*
X66591Y357698D01*
X66659Y357710D01*
X66729Y357711D01*
X66780Y357730D01*
X66833Y357739D01*
X66894Y357772D01*
X66960Y357796D01*
X67002Y357830D01*
X67050Y357855D01*
X67097Y357906D01*
X67152Y357950D01*
X67181Y357995D01*
X67218Y358035D01*
X67247Y358098D01*
X67285Y358157D01*
X67298Y358209D01*
X67321Y358258D01*
X67328Y358327D01*
X67345Y358395D01*
X67341Y358449D01*
X67346Y358503D01*
X67331Y358571D01*
X67326Y358640D01*
X67305Y358690D01*
X67293Y358743D01*
X67257Y358803D01*
X67229Y358867D01*
X67182Y358926D01*
X67165Y358953D01*
X67149Y358968D01*
X67125Y358998D01*
X64006Y362117D01*
X62365Y366077D01*
X62365Y370363D01*
X64006Y374323D01*
X67037Y377354D01*
X70997Y378995D01*
X75283Y378995D01*
X75441Y378930D01*
X75485Y378919D01*
X75527Y378900D01*
X75604Y378891D01*
X75680Y378873D01*
X75726Y378878D01*
X75771Y378873D01*
X75848Y378889D01*
X75925Y378896D01*
X75967Y378915D01*
X76012Y378925D01*
X76079Y378965D01*
X76150Y378996D01*
X76184Y379027D01*
X76223Y379051D01*
X76274Y379110D01*
X76331Y379163D01*
X76353Y379203D01*
X76383Y379238D01*
X76412Y379310D01*
X76449Y379378D01*
X76458Y379423D01*
X76475Y379466D01*
X76490Y379602D01*
X76493Y379620D01*
X76492Y379625D01*
X76493Y379633D01*
X76493Y382207D01*
X76486Y382252D01*
X76488Y382298D01*
X76466Y382373D01*
X76454Y382450D01*
X76432Y382491D01*
X76419Y382535D01*
X76375Y382599D01*
X76338Y382667D01*
X76305Y382699D01*
X76279Y382737D01*
X76217Y382783D01*
X76160Y382837D01*
X76118Y382856D01*
X76082Y382883D01*
X76008Y382908D01*
X75937Y382940D01*
X75891Y382945D01*
X75848Y382960D01*
X75770Y382959D01*
X75693Y382967D01*
X75648Y382958D01*
X75602Y382957D01*
X75471Y382919D01*
X75452Y382915D01*
X75448Y382913D01*
X75441Y382910D01*
X75283Y382845D01*
X70997Y382845D01*
X67037Y384486D01*
X64006Y387517D01*
X62365Y391477D01*
X62365Y395763D01*
X64006Y399723D01*
X67037Y402754D01*
X70997Y404395D01*
X75283Y404395D01*
X79243Y402754D01*
X82274Y399723D01*
X83915Y395763D01*
X83915Y391477D01*
X82274Y387517D01*
X82164Y387406D01*
X82122Y387348D01*
X82073Y387296D01*
X82051Y387249D01*
X82020Y387207D01*
X81999Y387138D01*
X81969Y387073D01*
X81963Y387021D01*
X81948Y386972D01*
X81950Y386900D01*
X81942Y386829D01*
X81953Y386778D01*
X81954Y386726D01*
X81979Y386658D01*
X81994Y386588D01*
X82021Y386543D01*
X82039Y386495D01*
X82084Y386439D01*
X82121Y386377D01*
X82160Y386343D01*
X82193Y386303D01*
X82253Y386264D01*
X82307Y386217D01*
X82356Y386198D01*
X82400Y386170D01*
X82469Y386152D01*
X82536Y386125D01*
X82607Y386117D01*
X82638Y386109D01*
X82661Y386111D01*
X82702Y386107D01*
X83998Y386107D01*
X86287Y383818D01*
X86361Y383765D01*
X86431Y383705D01*
X86461Y383693D01*
X86487Y383674D01*
X86574Y383647D01*
X86659Y383613D01*
X86700Y383609D01*
X86722Y383602D01*
X86754Y383603D01*
X86825Y383595D01*
X116890Y383595D01*
X116960Y383606D01*
X117032Y383608D01*
X117081Y383626D01*
X117132Y383634D01*
X117196Y383668D01*
X117263Y383693D01*
X117304Y383725D01*
X117350Y383750D01*
X117399Y383802D01*
X117455Y383846D01*
X117483Y383890D01*
X117519Y383928D01*
X117549Y383993D01*
X117588Y384053D01*
X117601Y384104D01*
X117623Y384151D01*
X117631Y384222D01*
X117648Y384292D01*
X117644Y384344D01*
X117650Y384395D01*
X117635Y384466D01*
X117629Y384537D01*
X117609Y384585D01*
X117598Y384636D01*
X117561Y384697D01*
X117533Y384763D01*
X117488Y384819D01*
X117471Y384847D01*
X117454Y384862D01*
X117428Y384894D01*
X114806Y387517D01*
X113165Y391477D01*
X113165Y395763D01*
X114806Y399723D01*
X117837Y402754D01*
X121797Y404395D01*
X126083Y404395D01*
X130043Y402754D01*
X133074Y399723D01*
X134715Y395763D01*
X134715Y391477D01*
X133074Y387517D01*
X130452Y384894D01*
X130410Y384836D01*
X130361Y384784D01*
X130339Y384737D01*
X130308Y384695D01*
X130287Y384626D01*
X130257Y384561D01*
X130251Y384509D01*
X130236Y384459D01*
X130238Y384388D01*
X130230Y384317D01*
X130241Y384266D01*
X130242Y384214D01*
X130267Y384146D01*
X130282Y384076D01*
X130309Y384031D01*
X130327Y383983D01*
X130372Y383927D01*
X130409Y383865D01*
X130448Y383831D01*
X130481Y383791D01*
X130541Y383752D01*
X130595Y383705D01*
X130644Y383686D01*
X130688Y383658D01*
X130757Y383640D01*
X130824Y383613D01*
X130895Y383605D01*
X130926Y383597D01*
X130949Y383599D01*
X130990Y383595D01*
X132375Y383595D01*
X132465Y383609D01*
X132556Y383617D01*
X132585Y383629D01*
X132617Y383634D01*
X132698Y383677D01*
X132782Y383713D01*
X132814Y383739D01*
X132835Y383750D01*
X132857Y383773D01*
X132913Y383818D01*
X135302Y386207D01*
X139698Y386207D01*
X142807Y383098D01*
X142807Y378702D01*
X139698Y375593D01*
X135302Y375593D01*
X133113Y377782D01*
X133039Y377835D01*
X132969Y377895D01*
X132939Y377907D01*
X132913Y377926D01*
X132826Y377953D01*
X132741Y377987D01*
X132700Y377991D01*
X132678Y377998D01*
X132646Y377997D01*
X132575Y378005D01*
X86825Y378005D01*
X86735Y377991D01*
X86644Y377983D01*
X86615Y377971D01*
X86583Y377966D01*
X86502Y377923D01*
X86418Y377887D01*
X86386Y377861D01*
X86365Y377850D01*
X86343Y377827D01*
X86287Y377782D01*
X83998Y375493D01*
X82929Y375493D01*
X82884Y375486D01*
X82838Y375488D01*
X82763Y375466D01*
X82686Y375454D01*
X82646Y375432D01*
X82602Y375419D01*
X82538Y375375D01*
X82469Y375338D01*
X82437Y375305D01*
X82400Y375279D01*
X82353Y375216D01*
X82300Y375160D01*
X82280Y375118D01*
X82253Y375082D01*
X82229Y375008D01*
X82196Y374937D01*
X82191Y374891D01*
X82177Y374848D01*
X82177Y374770D01*
X82169Y374693D01*
X82179Y374648D01*
X82179Y374602D01*
X82217Y374470D01*
X82221Y374452D01*
X82224Y374448D01*
X82226Y374441D01*
X83915Y370363D01*
X83915Y366077D01*
X82274Y362117D01*
X79230Y359072D01*
X79187Y359012D01*
X79136Y358958D01*
X79116Y358913D01*
X79086Y358872D01*
X79065Y358802D01*
X79034Y358735D01*
X79029Y358685D01*
X79014Y358637D01*
X79016Y358564D01*
X79008Y358490D01*
X79019Y358441D01*
X79020Y358391D01*
X79046Y358322D01*
X79062Y358250D01*
X79088Y358207D01*
X79105Y358160D01*
X79151Y358103D01*
X79189Y358040D01*
X79227Y358007D01*
X79259Y357968D01*
X79321Y357928D01*
X79377Y357881D01*
X79423Y357862D01*
X79465Y357835D01*
X79537Y357817D01*
X79606Y357790D01*
X79673Y357783D01*
X79704Y357775D01*
X79729Y357777D01*
X79773Y357773D01*
X84296Y357798D01*
X84404Y357817D01*
X84512Y357831D01*
X84525Y357837D01*
X84539Y357839D01*
X84574Y357858D01*
X84614Y357862D01*
X84662Y357882D01*
X84714Y357893D01*
X84753Y357917D01*
X85889Y357918D01*
X85904Y357920D01*
X85929Y357919D01*
X87053Y357979D01*
X87114Y357964D01*
X87180Y357937D01*
X87252Y357929D01*
X87284Y357922D01*
X87307Y357923D01*
X87347Y357919D01*
X141022Y357963D01*
X141024Y357963D01*
X142570Y357964D01*
X143652Y357965D01*
X144512Y357107D01*
X145291Y356329D01*
X145291Y355084D01*
X145291Y355083D01*
X145293Y353701D01*
X145292Y353698D01*
X145328Y295156D01*
X145332Y295136D01*
X145329Y295117D01*
X145351Y295015D01*
X145368Y294913D01*
X145377Y294895D01*
X145382Y294876D01*
X145435Y294787D01*
X145483Y294695D01*
X145498Y294682D01*
X145508Y294665D01*
X145587Y294598D01*
X145662Y294526D01*
X145680Y294518D01*
X145695Y294505D01*
X145791Y294466D01*
X145885Y294423D01*
X145905Y294421D01*
X145923Y294413D01*
X146090Y294395D01*
X314127Y294395D01*
X314217Y294409D01*
X314308Y294417D01*
X314338Y294429D01*
X314370Y294434D01*
X314451Y294477D01*
X314534Y294513D01*
X314567Y294539D01*
X314587Y294550D01*
X314609Y294573D01*
X314665Y294618D01*
X483241Y463194D01*
X483283Y463252D01*
X483333Y463304D01*
X483355Y463351D01*
X483385Y463393D01*
X483406Y463462D01*
X483436Y463527D01*
X483442Y463579D01*
X483457Y463629D01*
X483455Y463700D01*
X483463Y463771D01*
X483452Y463822D01*
X483451Y463874D01*
X483426Y463942D01*
X483411Y464012D01*
X483384Y464056D01*
X483366Y464105D01*
X483322Y464161D01*
X483285Y464223D01*
X483245Y464257D01*
X483213Y464297D01*
X483152Y464336D01*
X483098Y464383D01*
X483050Y464402D01*
X483006Y464430D01*
X482936Y464448D01*
X482870Y464475D01*
X482798Y464483D01*
X482767Y464491D01*
X482744Y464489D01*
X482703Y464493D01*
X481502Y464493D01*
X479432Y466563D01*
X479416Y466575D01*
X479403Y466591D01*
X479316Y466647D01*
X479232Y466706D01*
X479213Y466713D01*
X479196Y466724D01*
X479096Y466749D01*
X478997Y466779D01*
X478977Y466778D01*
X478957Y466783D01*
X478855Y466775D01*
X478752Y466772D01*
X478732Y466765D01*
X478712Y466764D01*
X478617Y466723D01*
X478520Y466688D01*
X478504Y466675D01*
X478486Y466667D01*
X478355Y466562D01*
X328423Y316194D01*
X328380Y316135D01*
X327388Y315156D01*
X327386Y315154D01*
X327383Y315151D01*
X326568Y314333D01*
X325409Y314341D01*
X325407Y314341D01*
X325403Y314341D01*
X324056Y314339D01*
X324039Y314344D01*
X324008Y314344D01*
X323941Y314351D01*
X278093Y314667D01*
X278000Y314653D01*
X277906Y314645D01*
X277879Y314634D01*
X277850Y314629D01*
X277766Y314586D01*
X277680Y314549D01*
X277651Y314526D01*
X277631Y314516D01*
X277627Y314511D01*
X277625Y314510D01*
X277605Y314489D01*
X277549Y314444D01*
X275098Y311993D01*
X270702Y311993D01*
X267593Y315102D01*
X267593Y319498D01*
X270702Y322607D01*
X275098Y322607D01*
X277223Y320482D01*
X277295Y320430D01*
X277362Y320372D01*
X277394Y320359D01*
X277423Y320338D01*
X277507Y320312D01*
X277589Y320279D01*
X277634Y320273D01*
X277658Y320266D01*
X277689Y320267D01*
X277756Y320259D01*
X323945Y319941D01*
X324038Y319956D01*
X324132Y319963D01*
X324159Y319975D01*
X324188Y319979D01*
X324271Y320023D01*
X324358Y320060D01*
X324387Y320083D01*
X324406Y320093D01*
X324429Y320116D01*
X324489Y320165D01*
X444669Y440695D01*
X444711Y440752D01*
X444760Y440804D01*
X444782Y440852D01*
X444812Y440894D01*
X444833Y440962D01*
X444863Y441027D01*
X444869Y441079D01*
X444884Y441130D01*
X444882Y441201D01*
X444890Y441271D01*
X444879Y441323D01*
X444878Y441376D01*
X444853Y441442D01*
X444838Y441512D01*
X444811Y441557D01*
X444793Y441606D01*
X444748Y441662D01*
X444712Y441723D01*
X444672Y441757D01*
X444639Y441798D01*
X444579Y441837D01*
X444525Y441883D01*
X444476Y441903D01*
X444432Y441931D01*
X444363Y441948D01*
X444297Y441975D01*
X444224Y441983D01*
X444193Y441991D01*
X444170Y441989D01*
X444130Y441993D01*
X441361Y441993D01*
X441271Y441979D01*
X441180Y441971D01*
X441150Y441959D01*
X441118Y441954D01*
X441038Y441911D01*
X440954Y441875D01*
X440922Y441849D01*
X440901Y441838D01*
X440879Y441815D01*
X440823Y441770D01*
X427358Y428305D01*
X415842Y428305D01*
X414205Y429942D01*
X414205Y547663D01*
X414194Y547733D01*
X414192Y547805D01*
X414174Y547854D01*
X414166Y547905D01*
X414132Y547969D01*
X414107Y548036D01*
X414075Y548077D01*
X414050Y548123D01*
X413998Y548172D01*
X413954Y548228D01*
X413910Y548256D01*
X413872Y548292D01*
X413807Y548322D01*
X413747Y548361D01*
X413696Y548374D01*
X413649Y548396D01*
X413578Y548404D01*
X413508Y548421D01*
X413456Y548417D01*
X413405Y548423D01*
X413334Y548408D01*
X413263Y548402D01*
X413215Y548382D01*
X413164Y548371D01*
X413103Y548334D01*
X413037Y548306D01*
X412981Y548261D01*
X412953Y548244D01*
X412938Y548227D01*
X412906Y548201D01*
X411598Y546893D01*
X407202Y546893D01*
X404093Y550002D01*
X404093Y554398D01*
X406382Y556687D01*
X406435Y556761D01*
X406495Y556831D01*
X406507Y556861D01*
X406526Y556887D01*
X406553Y556974D01*
X406587Y557059D01*
X406591Y557100D01*
X406598Y557122D01*
X406597Y557154D01*
X406605Y557225D01*
X406605Y564003D01*
X406591Y564093D01*
X406583Y564184D01*
X406571Y564214D01*
X406566Y564246D01*
X406523Y564327D01*
X406487Y564411D01*
X406461Y564443D01*
X406450Y564463D01*
X406427Y564486D01*
X406382Y564542D01*
X342942Y627982D01*
X342868Y628035D01*
X342798Y628095D01*
X342768Y628107D01*
X342742Y628126D01*
X342655Y628153D01*
X342570Y628187D01*
X342529Y628191D01*
X342507Y628198D01*
X342475Y628197D01*
X342403Y628205D01*
X184273Y628205D01*
X184183Y628191D01*
X184092Y628183D01*
X184062Y628171D01*
X184030Y628166D01*
X183950Y628123D01*
X183866Y628087D01*
X183834Y628061D01*
X183813Y628050D01*
X183791Y628027D01*
X183735Y627982D01*
X152930Y597177D01*
X152877Y597103D01*
X152817Y597034D01*
X152805Y597004D01*
X152786Y596978D01*
X152759Y596891D01*
X152725Y596806D01*
X152721Y596765D01*
X152714Y596743D01*
X152715Y596710D01*
X152707Y596639D01*
X152707Y593402D01*
X149598Y590293D01*
X145202Y590293D01*
X142093Y593402D01*
X142093Y597798D01*
X145202Y600907D01*
X148439Y600907D01*
X148529Y600921D01*
X148620Y600929D01*
X148650Y600941D01*
X148682Y600946D01*
X148762Y600989D01*
X148846Y601025D01*
X148878Y601051D01*
X148899Y601062D01*
X148921Y601085D01*
X148977Y601130D01*
X179253Y631406D01*
X179295Y631464D01*
X179345Y631516D01*
X179367Y631563D01*
X179397Y631605D01*
X179418Y631674D01*
X179448Y631739D01*
X179454Y631791D01*
X179469Y631841D01*
X179467Y631912D01*
X179475Y631983D01*
X179464Y632034D01*
X179463Y632086D01*
X179438Y632154D01*
X179423Y632224D01*
X179396Y632269D01*
X179378Y632317D01*
X179334Y632373D01*
X179297Y632435D01*
X179257Y632469D01*
X179225Y632509D01*
X179164Y632548D01*
X179110Y632595D01*
X179062Y632614D01*
X179018Y632642D01*
X178948Y632660D01*
X178882Y632687D01*
X178810Y632695D01*
X178779Y632703D01*
X178756Y632701D01*
X178715Y632705D01*
X133073Y632705D01*
X132983Y632691D01*
X132892Y632683D01*
X132862Y632671D01*
X132830Y632666D01*
X132750Y632623D01*
X132666Y632587D01*
X132634Y632561D01*
X132613Y632550D01*
X132591Y632527D01*
X132535Y632482D01*
X94525Y594472D01*
X94472Y594399D01*
X94412Y594329D01*
X94400Y594299D01*
X94381Y594273D01*
X94354Y594186D01*
X94320Y594101D01*
X94316Y594060D01*
X94309Y594038D01*
X94310Y594005D01*
X94302Y593934D01*
X94302Y447328D01*
X94306Y447307D01*
X94304Y447270D01*
X94385Y446207D01*
X94358Y446162D01*
X94344Y446101D01*
X94321Y446043D01*
X94311Y445954D01*
X94303Y445922D01*
X94305Y445904D01*
X94302Y445876D01*
X94302Y445817D01*
X94302Y445816D01*
X94302Y445804D01*
X94302Y445779D01*
X94295Y445712D01*
X94295Y409225D01*
X94309Y409135D01*
X94317Y409044D01*
X94329Y409015D01*
X94334Y408983D01*
X94377Y408902D01*
X94413Y408818D01*
X94439Y408786D01*
X94450Y408765D01*
X94473Y408743D01*
X94518Y408687D01*
X96807Y406398D01*
X96807Y402002D01*
X93698Y398893D01*
X89302Y398893D01*
X86193Y402002D01*
X86193Y406398D01*
X88482Y408687D01*
X88535Y408761D01*
X88595Y408831D01*
X88607Y408861D01*
X88626Y408887D01*
X88653Y408974D01*
X88687Y409059D01*
X88691Y409100D01*
X88698Y409122D01*
X88697Y409154D01*
X88705Y409225D01*
X88705Y447057D01*
X88702Y447078D01*
X88703Y447115D01*
X88622Y448178D01*
X88650Y448223D01*
X88663Y448284D01*
X88687Y448342D01*
X88697Y448431D01*
X88704Y448463D01*
X88702Y448480D01*
X88705Y448509D01*
X88705Y448567D01*
X88705Y448571D01*
X88705Y448606D01*
X88713Y448672D01*
X88712Y593934D01*
X88712Y596565D01*
X130442Y638295D01*
X243477Y638295D01*
X243548Y638306D01*
X243619Y638308D01*
X243668Y638326D01*
X243720Y638334D01*
X243783Y638368D01*
X243850Y638393D01*
X243891Y638425D01*
X243937Y638450D01*
X243986Y638502D01*
X244042Y638546D01*
X244070Y638590D01*
X244106Y638628D01*
X244137Y638693D01*
X244175Y638753D01*
X244188Y638804D01*
X244210Y638851D01*
X244218Y638922D01*
X244235Y638992D01*
X244231Y639044D01*
X244237Y639095D01*
X244222Y639166D01*
X244216Y639237D01*
X244196Y639285D01*
X244185Y639336D01*
X244148Y639397D01*
X244120Y639463D01*
X244075Y639519D01*
X244059Y639547D01*
X244041Y639562D01*
X244015Y639594D01*
X243731Y639878D01*
X243731Y644274D01*
X246840Y647383D01*
X251236Y647383D01*
X253710Y644909D01*
X253784Y644856D01*
X253853Y644797D01*
X253883Y644785D01*
X253910Y644765D01*
X253997Y644739D01*
X254081Y644705D01*
X254122Y644700D01*
X254145Y644693D01*
X254177Y644694D01*
X254247Y644686D01*
X361282Y644503D01*
X361373Y644518D01*
X361464Y644525D01*
X361493Y644537D01*
X361525Y644543D01*
X361606Y644585D01*
X361690Y644621D01*
X361722Y644647D01*
X361742Y644657D01*
X361764Y644681D01*
X361821Y644726D01*
X364102Y647007D01*
X368498Y647007D01*
X371607Y643898D01*
X371607Y639502D01*
X368498Y636393D01*
X364102Y636393D01*
X361804Y638691D01*
X361731Y638744D01*
X361662Y638803D01*
X361631Y638815D01*
X361605Y638834D01*
X361518Y638861D01*
X361434Y638895D01*
X361392Y638900D01*
X361369Y638907D01*
X361337Y638906D01*
X361267Y638914D01*
X350359Y638932D01*
X350288Y638921D01*
X350215Y638919D01*
X350167Y638901D01*
X350116Y638893D01*
X350052Y638859D01*
X349984Y638835D01*
X349944Y638802D01*
X349899Y638778D01*
X349849Y638726D01*
X349792Y638681D01*
X349764Y638638D01*
X349729Y638600D01*
X349698Y638535D01*
X349659Y638474D01*
X349647Y638424D01*
X349625Y638377D01*
X349617Y638306D01*
X349599Y638235D01*
X349603Y638184D01*
X349597Y638133D01*
X349613Y638062D01*
X349618Y637990D01*
X349638Y637943D01*
X349649Y637893D01*
X349686Y637830D01*
X349715Y637764D01*
X349759Y637709D01*
X349775Y637681D01*
X349793Y637666D01*
X349819Y637633D01*
X351018Y636435D01*
X419795Y567658D01*
X419795Y446737D01*
X419806Y446667D01*
X419808Y446595D01*
X419826Y446546D01*
X419834Y446495D01*
X419868Y446431D01*
X419893Y446364D01*
X419925Y446323D01*
X419950Y446277D01*
X420002Y446228D01*
X420046Y446172D01*
X420090Y446144D01*
X420128Y446108D01*
X420193Y446078D01*
X420253Y446039D01*
X420304Y446026D01*
X420351Y446004D01*
X420422Y445996D01*
X420492Y445979D01*
X420544Y445983D01*
X420595Y445977D01*
X420666Y445992D01*
X420737Y445998D01*
X420785Y446018D01*
X420836Y446029D01*
X420897Y446066D01*
X420963Y446094D01*
X421019Y446139D01*
X421047Y446156D01*
X421062Y446173D01*
X421094Y446199D01*
X422502Y447607D01*
X424739Y447607D01*
X424829Y447621D01*
X424920Y447629D01*
X424950Y447641D01*
X424982Y447646D01*
X425062Y447689D01*
X425146Y447725D01*
X425179Y447751D01*
X425199Y447762D01*
X425221Y447785D01*
X425277Y447830D01*
X425440Y447992D01*
X425459Y448019D01*
X425513Y448076D01*
X426051Y448801D01*
X426063Y448805D01*
X426099Y448807D01*
X426180Y448842D01*
X426263Y448868D01*
X426292Y448890D01*
X426325Y448904D01*
X426456Y449009D01*
X471242Y493795D01*
X496658Y493795D01*
X498295Y492158D01*
X498295Y470342D01*
X404759Y376806D01*
X404717Y376748D01*
X404667Y376696D01*
X404645Y376649D01*
X404615Y376607D01*
X404594Y376538D01*
X404564Y376473D01*
X404558Y376421D01*
X404543Y376371D01*
X404545Y376300D01*
X404537Y376229D01*
X404548Y376178D01*
X404549Y376126D01*
X404574Y376058D01*
X404589Y375988D01*
X404616Y375944D01*
X404634Y375895D01*
X404678Y375839D01*
X404715Y375777D01*
X404755Y375743D01*
X404787Y375703D01*
X404848Y375664D01*
X404902Y375617D01*
X404950Y375598D01*
X404994Y375570D01*
X405064Y375552D01*
X405130Y375525D01*
X405202Y375517D01*
X405233Y375509D01*
X405256Y375511D01*
X405297Y375507D01*
X407398Y375507D01*
X410507Y372398D01*
X410507Y368002D01*
X408407Y365902D01*
X408352Y365826D01*
X408291Y365753D01*
X408280Y365726D01*
X408263Y365702D01*
X408236Y365612D01*
X408201Y365525D01*
X408197Y365488D01*
X408191Y365467D01*
X408192Y365434D01*
X408184Y365358D01*
X408290Y352071D01*
X408305Y351984D01*
X408312Y351896D01*
X408326Y351864D01*
X408332Y351829D01*
X408374Y351751D01*
X408408Y351670D01*
X408437Y351635D01*
X408449Y351612D01*
X408472Y351591D01*
X408513Y351539D01*
X429735Y330318D01*
X429809Y330265D01*
X429878Y330205D01*
X429908Y330193D01*
X429934Y330174D01*
X430021Y330147D01*
X430106Y330113D01*
X430147Y330109D01*
X430169Y330102D01*
X430202Y330103D01*
X430273Y330095D01*
X502375Y330095D01*
X502465Y330109D01*
X502556Y330117D01*
X502585Y330129D01*
X502617Y330134D01*
X502698Y330177D01*
X502782Y330213D01*
X502814Y330239D01*
X502835Y330250D01*
X502857Y330273D01*
X502913Y330318D01*
X505202Y332607D01*
X509598Y332607D01*
X512707Y329498D01*
X512707Y325102D01*
X509598Y321993D01*
X505202Y321993D01*
X502913Y324282D01*
X502839Y324335D01*
X502769Y324395D01*
X502739Y324407D01*
X502713Y324426D01*
X502626Y324453D01*
X502541Y324487D01*
X502500Y324491D01*
X502478Y324498D01*
X502446Y324497D01*
X502375Y324505D01*
X427642Y324505D01*
X425782Y326365D01*
X421806Y330341D01*
X421748Y330383D01*
X421696Y330433D01*
X421649Y330455D01*
X421607Y330485D01*
X421538Y330506D01*
X421473Y330536D01*
X421421Y330542D01*
X421371Y330557D01*
X421300Y330555D01*
X421229Y330563D01*
X421178Y330552D01*
X421126Y330551D01*
X421058Y330526D01*
X420988Y330511D01*
X420943Y330484D01*
X420895Y330466D01*
X420839Y330422D01*
X420777Y330385D01*
X420743Y330345D01*
X420703Y330313D01*
X420664Y330252D01*
X420617Y330198D01*
X420598Y330150D01*
X420570Y330106D01*
X420552Y330036D01*
X420525Y329970D01*
X420517Y329898D01*
X420509Y329867D01*
X420511Y329844D01*
X420507Y329803D01*
X420507Y326502D01*
X417398Y323393D01*
X413002Y323393D01*
X409893Y326502D01*
X409893Y328547D01*
X409878Y328644D01*
X409868Y328741D01*
X409858Y328765D01*
X409854Y328790D01*
X409808Y328876D01*
X409768Y328966D01*
X409747Y328991D01*
X409738Y329008D01*
X409715Y329030D01*
X409661Y329095D01*
X399955Y338479D01*
X399885Y338528D01*
X399821Y338583D01*
X399785Y338597D01*
X399753Y338619D01*
X399672Y338643D01*
X399593Y338675D01*
X399543Y338680D01*
X399517Y338688D01*
X399487Y338687D01*
X399426Y338693D01*
X397802Y338693D01*
X394693Y341802D01*
X394693Y346198D01*
X397802Y349307D01*
X401951Y349307D01*
X401971Y349310D01*
X401991Y349308D01*
X402092Y349330D01*
X402194Y349346D01*
X402212Y349356D01*
X402231Y349360D01*
X402320Y349413D01*
X402411Y349462D01*
X402425Y349476D01*
X402442Y349486D01*
X402510Y349565D01*
X402581Y349640D01*
X402589Y349658D01*
X402602Y349673D01*
X402641Y349769D01*
X402684Y349863D01*
X402687Y349883D01*
X402694Y349901D01*
X402713Y350068D01*
X402713Y350580D01*
X402712Y350582D01*
X402712Y350586D01*
X402597Y364989D01*
X402582Y365076D01*
X402575Y365164D01*
X402562Y365196D01*
X402556Y365231D01*
X402514Y365309D01*
X402479Y365390D01*
X402451Y365425D01*
X402439Y365447D01*
X402416Y365469D01*
X402374Y365521D01*
X399893Y368002D01*
X399893Y370103D01*
X399882Y370174D01*
X399880Y370246D01*
X399862Y370295D01*
X399854Y370346D01*
X399820Y370409D01*
X399795Y370477D01*
X399763Y370517D01*
X399738Y370563D01*
X399687Y370613D01*
X399642Y370669D01*
X399598Y370697D01*
X399560Y370733D01*
X399495Y370763D01*
X399435Y370802D01*
X399384Y370814D01*
X399337Y370836D01*
X399266Y370844D01*
X399196Y370862D01*
X399144Y370858D01*
X399093Y370863D01*
X399022Y370848D01*
X398951Y370843D01*
X398903Y370822D01*
X398852Y370811D01*
X398791Y370774D01*
X398725Y370746D01*
X398669Y370701D01*
X398641Y370685D01*
X398626Y370667D01*
X398594Y370641D01*
X318618Y290665D01*
X316758Y288805D01*
X144274Y288805D01*
X144184Y288790D01*
X144092Y288783D01*
X144063Y288771D01*
X144031Y288766D01*
X143951Y288723D01*
X143866Y288687D01*
X143834Y288661D01*
X143814Y288650D01*
X143793Y288628D01*
X143791Y288627D01*
X143787Y288623D01*
X143735Y288582D01*
X143695Y288541D01*
X142553Y288541D01*
X141379Y288541D01*
X140572Y289348D01*
G37*
%LPD*%
%LPC*%
G36*
X450712Y164384D02*
X450712Y164384D01*
X444091Y166159D01*
X438154Y169586D01*
X433306Y174434D01*
X429879Y180371D01*
X428104Y186992D01*
X428104Y193848D01*
X429272Y198206D01*
X429277Y198254D01*
X429291Y198299D01*
X429289Y198375D01*
X429297Y198451D01*
X429286Y198497D01*
X429285Y198545D01*
X429259Y198617D01*
X429242Y198690D01*
X429217Y198731D01*
X429200Y198776D01*
X429153Y198836D01*
X429113Y198900D01*
X429076Y198931D01*
X429046Y198968D01*
X428983Y199009D01*
X428925Y199058D01*
X428880Y199075D01*
X428840Y199101D01*
X428766Y199120D01*
X428695Y199147D01*
X428648Y199150D01*
X428601Y199161D01*
X428525Y199156D01*
X428450Y199159D01*
X428404Y199146D01*
X428356Y199142D01*
X428286Y199113D01*
X428213Y199092D01*
X428173Y199065D01*
X428129Y199046D01*
X428029Y198965D01*
X428010Y198953D01*
X428006Y198947D01*
X427998Y198941D01*
X419763Y190705D01*
X102242Y190705D01*
X100605Y192342D01*
X100605Y213475D01*
X100591Y213565D01*
X100583Y213656D01*
X100571Y213685D01*
X100566Y213717D01*
X100523Y213798D01*
X100487Y213882D01*
X100461Y213914D01*
X100450Y213935D01*
X100427Y213957D01*
X100382Y214013D01*
X98093Y216302D01*
X98093Y220698D01*
X101202Y223807D01*
X105598Y223807D01*
X108707Y220698D01*
X108707Y216302D01*
X106418Y214013D01*
X106365Y213939D01*
X106305Y213869D01*
X106293Y213839D01*
X106274Y213813D01*
X106247Y213726D01*
X106213Y213641D01*
X106209Y213600D01*
X106202Y213578D01*
X106203Y213546D01*
X106195Y213475D01*
X106195Y197056D01*
X106198Y197036D01*
X106196Y197017D01*
X106218Y196915D01*
X106234Y196813D01*
X106244Y196796D01*
X106248Y196776D01*
X106301Y196687D01*
X106350Y196596D01*
X106364Y196582D01*
X106374Y196565D01*
X106453Y196498D01*
X106528Y196426D01*
X106546Y196418D01*
X106561Y196405D01*
X106657Y196366D01*
X106751Y196323D01*
X106771Y196321D01*
X106789Y196313D01*
X106956Y196295D01*
X417132Y196295D01*
X417222Y196309D01*
X417313Y196317D01*
X417343Y196329D01*
X417375Y196334D01*
X417455Y196377D01*
X417539Y196413D01*
X417571Y196439D01*
X417592Y196450D01*
X417614Y196473D01*
X417670Y196518D01*
X441672Y220520D01*
X558452Y220520D01*
X558542Y220534D01*
X558633Y220542D01*
X558663Y220554D01*
X558695Y220559D01*
X558775Y220602D01*
X558859Y220638D01*
X558891Y220664D01*
X558912Y220675D01*
X558934Y220698D01*
X558990Y220743D01*
X574382Y236135D01*
X574435Y236209D01*
X574495Y236278D01*
X574507Y236308D01*
X574526Y236334D01*
X574553Y236421D01*
X574587Y236506D01*
X574591Y236547D01*
X574598Y236569D01*
X574597Y236602D01*
X574605Y236673D01*
X574605Y423927D01*
X574591Y424017D01*
X574583Y424108D01*
X574571Y424138D01*
X574566Y424170D01*
X574523Y424250D01*
X574487Y424334D01*
X574461Y424366D01*
X574450Y424387D01*
X574427Y424409D01*
X574382Y424465D01*
X568465Y430382D01*
X568391Y430435D01*
X568322Y430495D01*
X568292Y430507D01*
X568266Y430526D01*
X568179Y430553D01*
X568094Y430587D01*
X568053Y430591D01*
X568031Y430598D01*
X567998Y430597D01*
X567927Y430605D01*
X511225Y430605D01*
X511135Y430591D01*
X511044Y430583D01*
X511015Y430571D01*
X510983Y430566D01*
X510902Y430523D01*
X510818Y430487D01*
X510786Y430461D01*
X510765Y430450D01*
X510743Y430427D01*
X510687Y430382D01*
X508398Y428093D01*
X504002Y428093D01*
X500893Y431202D01*
X500893Y435598D01*
X504002Y438707D01*
X508398Y438707D01*
X510687Y436418D01*
X510761Y436365D01*
X510831Y436305D01*
X510861Y436293D01*
X510887Y436274D01*
X510974Y436247D01*
X511059Y436213D01*
X511100Y436209D01*
X511122Y436202D01*
X511154Y436203D01*
X511225Y436195D01*
X570558Y436195D01*
X580195Y426558D01*
X580195Y234042D01*
X561083Y214930D01*
X466599Y214930D01*
X466552Y214923D01*
X466504Y214924D01*
X466431Y214903D01*
X466357Y214891D01*
X466314Y214868D01*
X466268Y214854D01*
X466206Y214811D01*
X466139Y214775D01*
X466106Y214741D01*
X466067Y214713D01*
X466022Y214652D01*
X465970Y214597D01*
X465950Y214554D01*
X465921Y214515D01*
X465898Y214443D01*
X465866Y214374D01*
X465861Y214326D01*
X465846Y214281D01*
X465848Y214205D01*
X465839Y214130D01*
X465849Y214083D01*
X465850Y214035D01*
X465875Y213963D01*
X465891Y213889D01*
X465916Y213848D01*
X465932Y213803D01*
X465979Y213743D01*
X466018Y213678D01*
X466054Y213647D01*
X466084Y213609D01*
X466187Y213533D01*
X466205Y213518D01*
X466211Y213516D01*
X466219Y213510D01*
X470126Y211254D01*
X474974Y206406D01*
X478401Y200469D01*
X480176Y193848D01*
X480176Y186992D01*
X478401Y180371D01*
X474974Y174434D01*
X470126Y169586D01*
X464189Y166159D01*
X457568Y164384D01*
X450712Y164384D01*
G37*
%LPD*%
%LPC*%
G36*
X655197Y280995D02*
X655197Y280995D01*
X651237Y282636D01*
X648206Y285667D01*
X646565Y289627D01*
X646565Y293913D01*
X648206Y297873D01*
X650885Y300553D01*
X650927Y300611D01*
X650976Y300663D01*
X650998Y300710D01*
X651028Y300752D01*
X651049Y300821D01*
X651080Y300886D01*
X651085Y300938D01*
X651101Y300987D01*
X651099Y301059D01*
X651107Y301130D01*
X651096Y301181D01*
X651094Y301233D01*
X651070Y301301D01*
X651055Y301371D01*
X651028Y301415D01*
X651010Y301464D01*
X650965Y301520D01*
X650928Y301582D01*
X650889Y301616D01*
X650856Y301656D01*
X650796Y301695D01*
X650741Y301742D01*
X650693Y301761D01*
X650649Y301789D01*
X650580Y301807D01*
X650513Y301834D01*
X650442Y301842D01*
X650411Y301849D01*
X650387Y301848D01*
X650347Y301852D01*
X613783Y301852D01*
X613713Y301841D01*
X613641Y301839D01*
X613592Y301821D01*
X613541Y301812D01*
X613477Y301779D01*
X613410Y301754D01*
X613369Y301722D01*
X613323Y301697D01*
X613274Y301645D01*
X613218Y301601D01*
X613190Y301557D01*
X613154Y301519D01*
X613124Y301454D01*
X613085Y301394D01*
X613072Y301343D01*
X613050Y301296D01*
X613042Y301225D01*
X613025Y301155D01*
X613029Y301103D01*
X613023Y301051D01*
X613038Y300981D01*
X613044Y300910D01*
X613064Y300862D01*
X613075Y300811D01*
X613112Y300749D01*
X613140Y300684D01*
X613185Y300628D01*
X613202Y300600D01*
X613219Y300585D01*
X613245Y300553D01*
X615674Y298123D01*
X617315Y294163D01*
X617315Y289877D01*
X615674Y285917D01*
X612643Y282886D01*
X608683Y281245D01*
X604397Y281245D01*
X600437Y282886D01*
X597406Y285917D01*
X595765Y289877D01*
X595765Y294163D01*
X597406Y298123D01*
X599835Y300553D01*
X599877Y300611D01*
X599926Y300663D01*
X599948Y300710D01*
X599978Y300752D01*
X600000Y300821D01*
X600030Y300886D01*
X600035Y300938D01*
X600051Y300987D01*
X600049Y301059D01*
X600057Y301130D01*
X600046Y301181D01*
X600044Y301233D01*
X600020Y301301D01*
X600005Y301371D01*
X599978Y301415D01*
X599960Y301464D01*
X599915Y301520D01*
X599878Y301582D01*
X599839Y301616D01*
X599806Y301656D01*
X599746Y301695D01*
X599691Y301742D01*
X599643Y301761D01*
X599599Y301789D01*
X599530Y301807D01*
X599463Y301834D01*
X599392Y301842D01*
X599361Y301849D01*
X599338Y301848D01*
X599297Y301852D01*
X588941Y301852D01*
X588876Y301842D01*
X588811Y301841D01*
X588756Y301822D01*
X588699Y301812D01*
X588641Y301782D01*
X588627Y301777D01*
X587539Y301850D01*
X587519Y301849D01*
X587487Y301852D01*
X586401Y301852D01*
X586375Y301871D01*
X586312Y301890D01*
X586299Y301897D01*
X585581Y302718D01*
X585566Y302730D01*
X585546Y302756D01*
X584778Y303524D01*
X584773Y303556D01*
X584742Y303614D01*
X584737Y303628D01*
X584811Y304716D01*
X584809Y304735D01*
X584812Y304767D01*
X584812Y305942D01*
X584833Y305992D01*
X584837Y306033D01*
X584844Y306055D01*
X584843Y306087D01*
X584851Y306159D01*
X584851Y504529D01*
X584837Y504619D01*
X584829Y504710D01*
X584817Y504739D01*
X584812Y504771D01*
X584769Y504852D01*
X584733Y504936D01*
X584707Y504968D01*
X584696Y504989D01*
X584673Y505011D01*
X584628Y505067D01*
X582593Y507102D01*
X582593Y511498D01*
X585702Y514607D01*
X590098Y514607D01*
X593207Y511498D01*
X593207Y507102D01*
X590664Y504559D01*
X590611Y504485D01*
X590551Y504415D01*
X590539Y504385D01*
X590520Y504359D01*
X590493Y504272D01*
X590459Y504187D01*
X590455Y504146D01*
X590448Y504124D01*
X590449Y504092D01*
X590441Y504021D01*
X590441Y308203D01*
X590444Y308183D01*
X590442Y308163D01*
X590464Y308062D01*
X590480Y307960D01*
X590490Y307943D01*
X590494Y307923D01*
X590547Y307834D01*
X590596Y307743D01*
X590610Y307729D01*
X590620Y307712D01*
X590699Y307645D01*
X590774Y307573D01*
X590792Y307565D01*
X590807Y307552D01*
X590903Y307513D01*
X590997Y307470D01*
X591017Y307468D01*
X591035Y307460D01*
X591202Y307442D01*
X599443Y307442D01*
X599514Y307453D01*
X599585Y307455D01*
X599634Y307473D01*
X599686Y307481D01*
X599749Y307515D01*
X599816Y307540D01*
X599857Y307572D01*
X599903Y307596D01*
X599952Y307648D01*
X600008Y307693D01*
X600036Y307737D01*
X600072Y307775D01*
X600102Y307840D01*
X600141Y307900D01*
X600154Y307951D01*
X600176Y307998D01*
X600184Y308069D01*
X600201Y308139D01*
X600197Y308191D01*
X600203Y308242D01*
X600188Y308312D01*
X600182Y308384D01*
X600162Y308432D01*
X600151Y308483D01*
X600114Y308544D01*
X600086Y308610D01*
X600041Y308666D01*
X600025Y308694D01*
X600007Y308709D01*
X599981Y308741D01*
X597406Y311317D01*
X595765Y315277D01*
X595765Y319563D01*
X597406Y323523D01*
X600437Y326554D01*
X604397Y328195D01*
X608683Y328195D01*
X612643Y326554D01*
X615674Y323523D01*
X617315Y319563D01*
X617315Y315277D01*
X615674Y311317D01*
X613099Y308741D01*
X613057Y308683D01*
X613008Y308631D01*
X612986Y308584D01*
X612955Y308541D01*
X612934Y308473D01*
X612904Y308408D01*
X612898Y308356D01*
X612883Y308306D01*
X612885Y308235D01*
X612877Y308163D01*
X612888Y308113D01*
X612889Y308060D01*
X612914Y307993D01*
X612929Y307923D01*
X612956Y307878D01*
X612974Y307829D01*
X613019Y307773D01*
X613055Y307712D01*
X613095Y307678D01*
X613128Y307637D01*
X613188Y307599D01*
X613242Y307552D01*
X613291Y307533D01*
X613334Y307504D01*
X613404Y307487D01*
X613470Y307460D01*
X613542Y307452D01*
X613573Y307444D01*
X613596Y307446D01*
X613637Y307442D01*
X649993Y307442D01*
X650064Y307453D01*
X650135Y307455D01*
X650184Y307473D01*
X650236Y307481D01*
X650299Y307515D01*
X650366Y307540D01*
X650407Y307572D01*
X650453Y307596D01*
X650502Y307648D01*
X650558Y307693D01*
X650587Y307737D01*
X650622Y307775D01*
X650653Y307840D01*
X650691Y307900D01*
X650704Y307951D01*
X650726Y307998D01*
X650734Y308069D01*
X650751Y308139D01*
X650747Y308191D01*
X650753Y308242D01*
X650738Y308312D01*
X650732Y308384D01*
X650712Y308432D01*
X650701Y308483D01*
X650664Y308544D01*
X650636Y308610D01*
X650591Y308666D01*
X650575Y308694D01*
X650557Y308709D01*
X650531Y308741D01*
X648206Y311067D01*
X646565Y315027D01*
X646565Y319313D01*
X648206Y323273D01*
X651237Y326304D01*
X655197Y327945D01*
X659483Y327945D01*
X663443Y326304D01*
X666474Y323273D01*
X668115Y319313D01*
X668115Y315027D01*
X666474Y311067D01*
X664149Y308741D01*
X664107Y308683D01*
X664058Y308631D01*
X664036Y308584D01*
X664005Y308541D01*
X663984Y308473D01*
X663954Y308408D01*
X663948Y308356D01*
X663933Y308306D01*
X663935Y308235D01*
X663927Y308163D01*
X663938Y308113D01*
X663939Y308060D01*
X663964Y307993D01*
X663979Y307923D01*
X664006Y307878D01*
X664024Y307829D01*
X664069Y307773D01*
X664105Y307712D01*
X664145Y307678D01*
X664177Y307637D01*
X664238Y307599D01*
X664292Y307552D01*
X664341Y307533D01*
X664384Y307504D01*
X664454Y307487D01*
X664520Y307460D01*
X664592Y307452D01*
X664623Y307444D01*
X664646Y307446D01*
X664687Y307442D01*
X675393Y307442D01*
X675464Y307453D01*
X675535Y307455D01*
X675584Y307473D01*
X675636Y307481D01*
X675699Y307515D01*
X675766Y307540D01*
X675807Y307572D01*
X675853Y307596D01*
X675902Y307648D01*
X675958Y307693D01*
X675987Y307737D01*
X676022Y307775D01*
X676053Y307840D01*
X676091Y307900D01*
X676104Y307951D01*
X676126Y307998D01*
X676134Y308069D01*
X676151Y308139D01*
X676147Y308191D01*
X676153Y308242D01*
X676138Y308312D01*
X676132Y308384D01*
X676112Y308432D01*
X676101Y308483D01*
X676064Y308544D01*
X676036Y308610D01*
X675991Y308666D01*
X675975Y308694D01*
X675957Y308709D01*
X675931Y308741D01*
X673606Y311067D01*
X671965Y315027D01*
X671965Y319313D01*
X673606Y323273D01*
X676637Y326304D01*
X680597Y327945D01*
X684883Y327945D01*
X688843Y326304D01*
X691874Y323273D01*
X693515Y319313D01*
X693515Y315027D01*
X691874Y311067D01*
X689549Y308741D01*
X689507Y308683D01*
X689458Y308631D01*
X689436Y308584D01*
X689405Y308541D01*
X689384Y308473D01*
X689354Y308408D01*
X689348Y308356D01*
X689333Y308306D01*
X689335Y308235D01*
X689327Y308163D01*
X689338Y308113D01*
X689339Y308060D01*
X689364Y307993D01*
X689379Y307923D01*
X689406Y307878D01*
X689424Y307829D01*
X689469Y307773D01*
X689505Y307712D01*
X689545Y307678D01*
X689577Y307637D01*
X689638Y307599D01*
X689692Y307552D01*
X689741Y307533D01*
X689784Y307504D01*
X689854Y307487D01*
X689920Y307460D01*
X689992Y307452D01*
X690023Y307444D01*
X690046Y307446D01*
X690087Y307442D01*
X696009Y307442D01*
X696100Y307456D01*
X696190Y307463D01*
X696220Y307476D01*
X696252Y307481D01*
X696333Y307524D01*
X696417Y307560D01*
X696449Y307585D01*
X696470Y307596D01*
X696492Y307620D01*
X696548Y307665D01*
X698808Y309925D01*
X703204Y309925D01*
X706313Y306816D01*
X706313Y302420D01*
X703204Y299311D01*
X698808Y299311D01*
X696490Y301629D01*
X696416Y301682D01*
X696347Y301742D01*
X696316Y301754D01*
X696290Y301773D01*
X696203Y301800D01*
X696118Y301834D01*
X696077Y301838D01*
X696055Y301845D01*
X696023Y301844D01*
X695952Y301852D01*
X689733Y301852D01*
X689663Y301841D01*
X689591Y301839D01*
X689542Y301821D01*
X689491Y301812D01*
X689427Y301779D01*
X689360Y301754D01*
X689319Y301722D01*
X689273Y301697D01*
X689224Y301645D01*
X689168Y301601D01*
X689140Y301557D01*
X689104Y301519D01*
X689074Y301454D01*
X689035Y301394D01*
X689022Y301343D01*
X689000Y301296D01*
X688992Y301225D01*
X688975Y301155D01*
X688979Y301103D01*
X688973Y301051D01*
X688988Y300981D01*
X688994Y300910D01*
X689014Y300862D01*
X689025Y300811D01*
X689062Y300749D01*
X689090Y300684D01*
X689135Y300628D01*
X689152Y300600D01*
X689169Y300585D01*
X689195Y300553D01*
X691874Y297873D01*
X693515Y293913D01*
X693515Y289627D01*
X691874Y285667D01*
X688843Y282636D01*
X684883Y280995D01*
X680597Y280995D01*
X676637Y282636D01*
X673606Y285667D01*
X671965Y289627D01*
X671965Y293913D01*
X673606Y297873D01*
X676285Y300553D01*
X676327Y300611D01*
X676376Y300663D01*
X676398Y300710D01*
X676428Y300752D01*
X676449Y300821D01*
X676480Y300886D01*
X676485Y300938D01*
X676501Y300987D01*
X676499Y301059D01*
X676507Y301130D01*
X676496Y301181D01*
X676494Y301233D01*
X676470Y301301D01*
X676455Y301371D01*
X676428Y301415D01*
X676410Y301464D01*
X676365Y301520D01*
X676328Y301582D01*
X676289Y301616D01*
X676256Y301656D01*
X676196Y301695D01*
X676141Y301742D01*
X676093Y301761D01*
X676049Y301789D01*
X675980Y301807D01*
X675913Y301834D01*
X675842Y301842D01*
X675811Y301849D01*
X675787Y301848D01*
X675747Y301852D01*
X664333Y301852D01*
X664263Y301841D01*
X664191Y301839D01*
X664142Y301821D01*
X664091Y301812D01*
X664027Y301779D01*
X663960Y301754D01*
X663919Y301722D01*
X663873Y301697D01*
X663824Y301645D01*
X663768Y301601D01*
X663740Y301557D01*
X663704Y301519D01*
X663674Y301454D01*
X663635Y301394D01*
X663622Y301343D01*
X663600Y301296D01*
X663592Y301225D01*
X663575Y301155D01*
X663579Y301103D01*
X663573Y301051D01*
X663588Y300981D01*
X663594Y300910D01*
X663614Y300862D01*
X663625Y300811D01*
X663662Y300749D01*
X663690Y300684D01*
X663735Y300628D01*
X663752Y300600D01*
X663769Y300585D01*
X663795Y300553D01*
X666474Y297873D01*
X668115Y293913D01*
X668115Y289627D01*
X666474Y285667D01*
X663443Y282636D01*
X659483Y280995D01*
X655197Y280995D01*
G37*
%LPD*%
%LPC*%
G36*
X604397Y652085D02*
X604397Y652085D01*
X600437Y653726D01*
X597406Y656757D01*
X595765Y660717D01*
X595765Y665003D01*
X597406Y668963D01*
X600377Y671935D01*
X600422Y671998D01*
X600447Y672024D01*
X600453Y672036D01*
X600494Y672086D01*
X600504Y672112D01*
X600521Y672135D01*
X600549Y672226D01*
X600583Y672315D01*
X600585Y672343D01*
X600593Y672370D01*
X600591Y672465D01*
X600595Y672560D01*
X600587Y672587D01*
X600587Y672616D01*
X600554Y672705D01*
X600528Y672797D01*
X600512Y672820D01*
X600502Y672847D01*
X600443Y672921D01*
X600389Y673000D01*
X600366Y673017D01*
X600349Y673039D01*
X600268Y673090D01*
X600192Y673148D01*
X600159Y673160D01*
X600142Y673172D01*
X600110Y673180D01*
X600036Y673209D01*
X596491Y674159D01*
X590554Y677586D01*
X585706Y682434D01*
X582279Y688371D01*
X580504Y694992D01*
X580504Y701848D01*
X582279Y708469D01*
X585706Y714406D01*
X590554Y719254D01*
X596491Y722681D01*
X603112Y724456D01*
X609968Y724456D01*
X616589Y722681D01*
X622526Y719254D01*
X627374Y714406D01*
X630801Y708469D01*
X632576Y701848D01*
X632576Y694992D01*
X630801Y688371D01*
X627374Y682434D01*
X622526Y677586D01*
X616589Y674159D01*
X613044Y673209D01*
X612957Y673169D01*
X612868Y673137D01*
X612846Y673119D01*
X612820Y673107D01*
X612750Y673043D01*
X612676Y672983D01*
X612660Y672959D01*
X612640Y672940D01*
X612594Y672856D01*
X612543Y672776D01*
X612536Y672749D01*
X612522Y672724D01*
X612506Y672630D01*
X612483Y672537D01*
X612485Y672509D01*
X612480Y672482D01*
X612494Y672387D01*
X612502Y672292D01*
X612513Y672266D01*
X612517Y672238D01*
X612561Y672154D01*
X612598Y672066D01*
X612620Y672038D01*
X612630Y672020D01*
X612653Y671997D01*
X612677Y671968D01*
X612681Y671961D01*
X612685Y671957D01*
X612703Y671935D01*
X615674Y668963D01*
X617315Y665003D01*
X617315Y660717D01*
X615674Y656757D01*
X612643Y653726D01*
X608683Y652085D01*
X604397Y652085D01*
G37*
%LPD*%
%LPC*%
G36*
X147902Y255593D02*
X147902Y255593D01*
X144793Y258702D01*
X144793Y263098D01*
X147902Y266207D01*
X152298Y266207D01*
X154585Y263920D01*
X154659Y263867D01*
X154728Y263807D01*
X154758Y263795D01*
X154784Y263777D01*
X154872Y263750D01*
X154957Y263716D01*
X154997Y263711D01*
X155019Y263704D01*
X155052Y263705D01*
X155123Y263697D01*
X388657Y263813D01*
X388659Y263813D01*
X390183Y263814D01*
X390184Y263814D01*
X391600Y263814D01*
X391603Y263814D01*
X463851Y263834D01*
X463909Y263844D01*
X463968Y263843D01*
X464029Y263863D01*
X464093Y263874D01*
X464145Y263901D01*
X464201Y263920D01*
X464282Y263974D01*
X464311Y263989D01*
X464321Y264000D01*
X464341Y264013D01*
X518522Y309656D01*
X518523Y309656D01*
X518523Y309657D01*
X518607Y309754D01*
X518683Y309843D01*
X518683Y309844D01*
X518730Y309961D01*
X518775Y310071D01*
X518775Y310072D01*
X518793Y310238D01*
X518793Y313098D01*
X521902Y316207D01*
X526298Y316207D01*
X529407Y313098D01*
X529407Y308702D01*
X526298Y305593D01*
X522653Y305593D01*
X522595Y305584D01*
X522536Y305584D01*
X522474Y305564D01*
X522410Y305554D01*
X522358Y305526D01*
X522302Y305507D01*
X522221Y305453D01*
X522193Y305438D01*
X522183Y305428D01*
X522163Y305414D01*
X467066Y259000D01*
X467051Y258982D01*
X467018Y258956D01*
X466283Y258221D01*
X466269Y258216D01*
X466205Y258206D01*
X466152Y258178D01*
X466096Y258159D01*
X466089Y258154D01*
X465062Y258242D01*
X465039Y258240D01*
X464997Y258245D01*
X390191Y258224D01*
X155128Y258108D01*
X155038Y258093D01*
X154947Y258086D01*
X154917Y258073D01*
X154885Y258068D01*
X154804Y258025D01*
X154721Y257990D01*
X154688Y257964D01*
X154667Y257953D01*
X154645Y257929D01*
X154590Y257885D01*
X152298Y255593D01*
X147902Y255593D01*
G37*
%LPD*%
%LPC*%
G36*
X120512Y685084D02*
X120512Y685084D01*
X113891Y686859D01*
X107954Y690286D01*
X103106Y695134D01*
X99679Y701071D01*
X97904Y707692D01*
X97904Y714548D01*
X99679Y721169D01*
X103106Y727106D01*
X107954Y731954D01*
X113891Y735381D01*
X120512Y737156D01*
X127368Y737156D01*
X133989Y735381D01*
X139926Y731954D01*
X144774Y727106D01*
X148201Y721169D01*
X149976Y714548D01*
X149976Y707692D01*
X148201Y701071D01*
X144774Y695134D01*
X139926Y690286D01*
X133989Y686859D01*
X127368Y685084D01*
X120512Y685084D01*
G37*
%LPD*%
%LPC*%
G36*
X630703Y97953D02*
X630703Y97953D01*
X622742Y101251D01*
X616649Y107344D01*
X613351Y115305D01*
X613351Y123923D01*
X616649Y131884D01*
X622742Y137977D01*
X630703Y141275D01*
X639321Y141275D01*
X647282Y137977D01*
X653375Y131884D01*
X656673Y123923D01*
X656673Y115305D01*
X653375Y107344D01*
X647282Y101251D01*
X639321Y97953D01*
X630703Y97953D01*
G37*
%LPD*%
%LPC*%
G36*
X296602Y476593D02*
X296602Y476593D01*
X293493Y479702D01*
X293493Y484098D01*
X295198Y485803D01*
X295251Y485877D01*
X295311Y485947D01*
X295323Y485976D01*
X295341Y486002D01*
X295368Y486090D01*
X295402Y486175D01*
X295407Y486215D01*
X295414Y486237D01*
X295413Y486270D01*
X295421Y486342D01*
X295372Y542727D01*
X295371Y542735D01*
X295371Y543240D01*
X295362Y543293D01*
X295370Y544640D01*
X295370Y544642D01*
X295370Y544645D01*
X295370Y545660D01*
X295371Y545671D01*
X295371Y546071D01*
X295373Y546077D01*
X295372Y546109D01*
X295380Y546177D01*
X295580Y578432D01*
X295568Y578505D01*
X295566Y578579D01*
X295549Y578626D01*
X295541Y578675D01*
X295507Y578741D01*
X295482Y578810D01*
X295451Y578849D01*
X295428Y578893D01*
X295374Y578945D01*
X295328Y579002D01*
X295286Y579029D01*
X295250Y579064D01*
X295183Y579095D01*
X295121Y579135D01*
X295073Y579148D01*
X295028Y579169D01*
X294954Y579177D01*
X294883Y579195D01*
X294833Y579192D01*
X294784Y579197D01*
X294711Y579182D01*
X294637Y579176D01*
X294592Y579157D01*
X294543Y579147D01*
X294479Y579109D01*
X294411Y579080D01*
X294358Y579038D01*
X294331Y579022D01*
X294315Y579003D01*
X294280Y578975D01*
X291998Y576693D01*
X287602Y576693D01*
X284493Y579802D01*
X284493Y584198D01*
X286782Y586487D01*
X286835Y586561D01*
X286895Y586631D01*
X286907Y586661D01*
X286926Y586687D01*
X286953Y586774D01*
X286987Y586859D01*
X286991Y586900D01*
X286998Y586922D01*
X286997Y586954D01*
X287005Y587025D01*
X287005Y593775D01*
X286991Y593865D01*
X286983Y593956D01*
X286971Y593985D01*
X286966Y594017D01*
X286923Y594098D01*
X286887Y594182D01*
X286861Y594214D01*
X286850Y594235D01*
X286827Y594257D01*
X286782Y594313D01*
X284393Y596702D01*
X284393Y601098D01*
X287502Y604207D01*
X291898Y604207D01*
X294427Y601678D01*
X294483Y601637D01*
X294534Y601589D01*
X294583Y601566D01*
X294627Y601534D01*
X294693Y601514D01*
X294756Y601484D01*
X294810Y601478D01*
X294862Y601462D01*
X294931Y601464D01*
X295000Y601455D01*
X295054Y601467D01*
X295108Y601468D01*
X295173Y601492D01*
X295241Y601506D01*
X295288Y601534D01*
X295339Y601553D01*
X295393Y601596D01*
X295453Y601631D01*
X295488Y601672D01*
X295531Y601706D01*
X295568Y601765D01*
X295614Y601817D01*
X295634Y601867D01*
X295664Y601913D01*
X295681Y601981D01*
X295707Y602045D01*
X295716Y602120D01*
X295724Y602152D01*
X295722Y602174D01*
X295727Y602211D01*
X295774Y609901D01*
X295760Y609993D01*
X295752Y610087D01*
X295741Y610114D01*
X295736Y610144D01*
X295693Y610227D01*
X295656Y610313D01*
X295633Y610342D01*
X295622Y610362D01*
X295599Y610385D01*
X295551Y610444D01*
X293293Y612702D01*
X293293Y617098D01*
X296402Y620207D01*
X300798Y620207D01*
X303907Y617098D01*
X303907Y612702D01*
X301586Y610382D01*
X301535Y610309D01*
X301476Y610242D01*
X301463Y610210D01*
X301443Y610182D01*
X301417Y610097D01*
X301383Y610015D01*
X301378Y609970D01*
X301371Y609947D01*
X301371Y609915D01*
X301363Y609848D01*
X300960Y544695D01*
X300961Y544693D01*
X300960Y544690D01*
X300960Y544192D01*
X300960Y544191D01*
X301009Y487510D01*
X301024Y487420D01*
X301031Y487330D01*
X301044Y487300D01*
X301049Y487268D01*
X301092Y487187D01*
X301127Y487104D01*
X301153Y487071D01*
X301164Y487050D01*
X301188Y487028D01*
X301232Y486973D01*
X304107Y484098D01*
X304107Y479702D01*
X300998Y476593D01*
X296602Y476593D01*
G37*
%LPD*%
%LPC*%
G36*
X237202Y317693D02*
X237202Y317693D01*
X234093Y320802D01*
X234093Y325198D01*
X235682Y326787D01*
X235735Y326861D01*
X235795Y326931D01*
X235807Y326961D01*
X235826Y326987D01*
X235853Y327074D01*
X235887Y327159D01*
X235891Y327200D01*
X235898Y327222D01*
X235897Y327254D01*
X235905Y327325D01*
X235905Y413658D01*
X250570Y428323D01*
X250614Y428383D01*
X250653Y428424D01*
X250659Y428439D01*
X250683Y428466D01*
X250695Y428496D01*
X250714Y428522D01*
X250741Y428609D01*
X250753Y428640D01*
X250756Y428647D01*
X250756Y428648D01*
X250775Y428694D01*
X250779Y428735D01*
X250786Y428757D01*
X250785Y428790D01*
X250793Y428861D01*
X250793Y432098D01*
X253902Y435207D01*
X258298Y435207D01*
X261407Y432098D01*
X261407Y427702D01*
X258298Y424593D01*
X255061Y424593D01*
X254971Y424579D01*
X254880Y424571D01*
X254850Y424559D01*
X254818Y424554D01*
X254738Y424511D01*
X254654Y424475D01*
X254622Y424449D01*
X254601Y424438D01*
X254579Y424415D01*
X254523Y424370D01*
X241718Y411565D01*
X241665Y411491D01*
X241605Y411422D01*
X241593Y411392D01*
X241574Y411366D01*
X241547Y411279D01*
X241513Y411194D01*
X241509Y411153D01*
X241502Y411131D01*
X241503Y411098D01*
X241495Y411027D01*
X241495Y328725D01*
X241509Y328635D01*
X241517Y328544D01*
X241529Y328515D01*
X241534Y328483D01*
X241577Y328402D01*
X241613Y328318D01*
X241639Y328286D01*
X241650Y328265D01*
X241673Y328243D01*
X241718Y328187D01*
X244707Y325198D01*
X244707Y320802D01*
X241598Y317693D01*
X237202Y317693D01*
G37*
%LPD*%
%LPC*%
G36*
X655197Y407995D02*
X655197Y407995D01*
X651237Y409636D01*
X648927Y411945D01*
X648911Y411957D01*
X648898Y411973D01*
X648811Y412029D01*
X648727Y412089D01*
X648708Y412095D01*
X648691Y412106D01*
X648591Y412131D01*
X648492Y412161D01*
X648472Y412161D01*
X648453Y412166D01*
X648350Y412158D01*
X648246Y412155D01*
X648227Y412148D01*
X648208Y412147D01*
X648113Y412106D01*
X648015Y412071D01*
X648000Y412058D01*
X647981Y412050D01*
X647850Y411945D01*
X644848Y408943D01*
X640452Y408943D01*
X638313Y411082D01*
X638239Y411135D01*
X638169Y411195D01*
X638139Y411207D01*
X638113Y411226D01*
X638026Y411253D01*
X637941Y411287D01*
X637900Y411291D01*
X637878Y411298D01*
X637846Y411297D01*
X637775Y411305D01*
X621925Y411305D01*
X621835Y411291D01*
X621744Y411283D01*
X621715Y411271D01*
X621683Y411266D01*
X621602Y411223D01*
X621518Y411187D01*
X621486Y411161D01*
X621465Y411150D01*
X621443Y411127D01*
X621387Y411082D01*
X618598Y408293D01*
X614202Y408293D01*
X611093Y411402D01*
X611093Y415798D01*
X614202Y418907D01*
X618598Y418907D01*
X620387Y417118D01*
X620461Y417065D01*
X620531Y417005D01*
X620561Y416993D01*
X620587Y416974D01*
X620674Y416947D01*
X620759Y416913D01*
X620800Y416909D01*
X620822Y416902D01*
X620854Y416903D01*
X620925Y416895D01*
X637475Y416895D01*
X637565Y416909D01*
X637656Y416917D01*
X637685Y416929D01*
X637717Y416934D01*
X637798Y416977D01*
X637882Y417013D01*
X637914Y417039D01*
X637935Y417050D01*
X637957Y417073D01*
X638013Y417118D01*
X640452Y419557D01*
X644848Y419557D01*
X645266Y419139D01*
X645324Y419097D01*
X645376Y419048D01*
X645423Y419026D01*
X645465Y418996D01*
X645534Y418974D01*
X645599Y418944D01*
X645651Y418939D01*
X645701Y418923D01*
X645772Y418925D01*
X645843Y418917D01*
X645894Y418928D01*
X645946Y418930D01*
X646014Y418954D01*
X646084Y418969D01*
X646129Y418996D01*
X646177Y419014D01*
X646233Y419059D01*
X646295Y419096D01*
X646329Y419135D01*
X646369Y419168D01*
X646408Y419228D01*
X646455Y419283D01*
X646474Y419331D01*
X646502Y419375D01*
X646520Y419444D01*
X646547Y419511D01*
X646555Y419582D01*
X646563Y419613D01*
X646561Y419636D01*
X646565Y419677D01*
X646565Y420913D01*
X648206Y424873D01*
X651237Y427904D01*
X655197Y429545D01*
X659483Y429545D01*
X663443Y427904D01*
X666474Y424873D01*
X668115Y420913D01*
X668115Y416627D01*
X666474Y412667D01*
X663443Y409636D01*
X659483Y407995D01*
X655197Y407995D01*
G37*
%LPD*%
%LPC*%
G36*
X288502Y342293D02*
X288502Y342293D01*
X285393Y345402D01*
X285393Y349798D01*
X287682Y352087D01*
X287735Y352161D01*
X287795Y352231D01*
X287807Y352261D01*
X287826Y352287D01*
X287853Y352374D01*
X287887Y352459D01*
X287891Y352500D01*
X287898Y352522D01*
X287897Y352554D01*
X287905Y352625D01*
X287905Y418027D01*
X287891Y418117D01*
X287883Y418208D01*
X287871Y418238D01*
X287866Y418270D01*
X287823Y418350D01*
X287787Y418434D01*
X287761Y418466D01*
X287750Y418487D01*
X287727Y418509D01*
X287682Y418565D01*
X282277Y423970D01*
X282203Y424023D01*
X282134Y424083D01*
X282104Y424095D01*
X282078Y424114D01*
X281991Y424141D01*
X281906Y424175D01*
X281865Y424179D01*
X281843Y424186D01*
X281810Y424185D01*
X281739Y424193D01*
X278502Y424193D01*
X275393Y427302D01*
X275393Y431698D01*
X278502Y434807D01*
X282898Y434807D01*
X286007Y431698D01*
X286007Y428461D01*
X286021Y428371D01*
X286029Y428280D01*
X286041Y428250D01*
X286046Y428218D01*
X286089Y428138D01*
X286125Y428054D01*
X286151Y428022D01*
X286162Y428001D01*
X286185Y427979D01*
X286230Y427923D01*
X293495Y420658D01*
X293495Y352625D01*
X293509Y352535D01*
X293517Y352444D01*
X293529Y352415D01*
X293534Y352383D01*
X293577Y352302D01*
X293613Y352218D01*
X293639Y352186D01*
X293650Y352165D01*
X293673Y352143D01*
X293718Y352087D01*
X296007Y349798D01*
X296007Y345402D01*
X292898Y342293D01*
X288502Y342293D01*
G37*
%LPD*%
%LPC*%
G36*
X336902Y498803D02*
X336902Y498803D01*
X333793Y501912D01*
X333793Y506308D01*
X336902Y509417D01*
X338323Y509417D01*
X338358Y509423D01*
X338394Y509420D01*
X338479Y509442D01*
X338566Y509456D01*
X338597Y509473D01*
X338632Y509482D01*
X338705Y509530D01*
X338783Y509572D01*
X338808Y509597D01*
X338837Y509617D01*
X338892Y509686D01*
X338952Y509750D01*
X338967Y509782D01*
X338989Y509810D01*
X339054Y509965D01*
X342175Y520696D01*
X342178Y520719D01*
X342187Y520741D01*
X342206Y520908D01*
X342206Y521560D01*
X342379Y521732D01*
X342441Y521819D01*
X342508Y521903D01*
X342515Y521922D01*
X342522Y521932D01*
X342531Y521961D01*
X342572Y522058D01*
X342640Y522292D01*
X343212Y522606D01*
X343230Y522621D01*
X343252Y522630D01*
X343383Y522735D01*
X343845Y523196D01*
X344088Y523196D01*
X344194Y523213D01*
X344301Y523226D01*
X344319Y523233D01*
X344331Y523235D01*
X344358Y523249D01*
X344456Y523290D01*
X344669Y523407D01*
X345296Y523225D01*
X345319Y523222D01*
X345341Y523213D01*
X345508Y523194D01*
X374123Y523169D01*
X375274Y523169D01*
X376085Y522357D01*
X376085Y522356D01*
X380871Y517571D01*
X380887Y517559D01*
X380900Y517543D01*
X380987Y517487D01*
X381071Y517427D01*
X381090Y517421D01*
X381106Y517410D01*
X381207Y517385D01*
X381306Y517355D01*
X381326Y517355D01*
X381345Y517350D01*
X381448Y517358D01*
X381552Y517361D01*
X381570Y517368D01*
X381590Y517370D01*
X381685Y517410D01*
X381783Y517446D01*
X381798Y517458D01*
X381817Y517466D01*
X381947Y517571D01*
X383549Y519173D01*
X387946Y519173D01*
X390135Y516984D01*
X390209Y516931D01*
X390278Y516871D01*
X390308Y516859D01*
X390335Y516840D01*
X390421Y516813D01*
X390506Y516779D01*
X390547Y516775D01*
X390570Y516768D01*
X390602Y516769D01*
X390673Y516761D01*
X396826Y516761D01*
X396848Y516764D01*
X396871Y516762D01*
X396969Y516784D01*
X397068Y516800D01*
X397088Y516811D01*
X397111Y516816D01*
X397258Y516896D01*
X397299Y516924D01*
X398120Y516773D01*
X398149Y516773D01*
X398257Y516761D01*
X399092Y516761D01*
X399126Y516726D01*
X399145Y516713D01*
X399159Y516695D01*
X399244Y516641D01*
X399326Y516582D01*
X399348Y516576D01*
X399367Y516564D01*
X399528Y516515D01*
X399965Y516435D01*
X400002Y516434D01*
X400038Y516425D01*
X400125Y516432D01*
X400211Y516431D01*
X400247Y516442D01*
X400284Y516445D01*
X400363Y516478D01*
X400446Y516505D01*
X400476Y516526D01*
X400510Y516541D01*
X400641Y516646D01*
X402102Y518107D01*
X406498Y518107D01*
X409607Y514998D01*
X409607Y510602D01*
X406498Y507493D01*
X402102Y507493D01*
X398772Y510823D01*
X398738Y510865D01*
X398696Y510892D01*
X398660Y510926D01*
X398593Y510957D01*
X398530Y510997D01*
X398466Y511016D01*
X398437Y511029D01*
X398412Y511032D01*
X398369Y511045D01*
X397748Y511159D01*
X397719Y511159D01*
X397611Y511171D01*
X390873Y511171D01*
X390783Y511157D01*
X390692Y511149D01*
X390662Y511137D01*
X390630Y511132D01*
X390550Y511089D01*
X390466Y511053D01*
X390434Y511027D01*
X390413Y511016D01*
X390391Y510993D01*
X390335Y510948D01*
X387946Y508559D01*
X383549Y508559D01*
X381260Y510848D01*
X381187Y510901D01*
X381117Y510961D01*
X381087Y510973D01*
X381061Y510992D01*
X380974Y511019D01*
X380889Y511053D01*
X380848Y511057D01*
X380826Y511064D01*
X380793Y511063D01*
X380722Y511071D01*
X379466Y511071D01*
X373179Y517358D01*
X373105Y517411D01*
X373036Y517470D01*
X373006Y517482D01*
X372979Y517501D01*
X372893Y517528D01*
X372808Y517562D01*
X372767Y517567D01*
X372744Y517573D01*
X372712Y517573D01*
X372642Y517581D01*
X347669Y517603D01*
X347633Y517597D01*
X347597Y517600D01*
X347513Y517577D01*
X347426Y517563D01*
X347394Y517547D01*
X347359Y517537D01*
X347286Y517489D01*
X347209Y517449D01*
X347184Y517422D01*
X347154Y517403D01*
X347100Y517334D01*
X347039Y517270D01*
X347024Y517238D01*
X347002Y517209D01*
X346937Y517054D01*
X344071Y507202D01*
X344062Y507127D01*
X344043Y507054D01*
X344047Y507006D01*
X344041Y506958D01*
X344057Y506884D01*
X344063Y506808D01*
X344081Y506764D01*
X344091Y506717D01*
X344129Y506652D01*
X344159Y506582D01*
X344199Y506531D01*
X344215Y506505D01*
X344235Y506488D01*
X344264Y506451D01*
X344407Y506308D01*
X344407Y501912D01*
X341298Y498803D01*
X336902Y498803D01*
G37*
%LPD*%
%LPC*%
G36*
X604397Y357445D02*
X604397Y357445D01*
X600437Y359086D01*
X597406Y362117D01*
X595765Y366077D01*
X595765Y370363D01*
X597406Y374323D01*
X600437Y377354D01*
X604397Y378995D01*
X608683Y378995D01*
X612643Y377354D01*
X615674Y374323D01*
X616013Y373506D01*
X616037Y373467D01*
X616053Y373424D01*
X616101Y373363D01*
X616142Y373297D01*
X616178Y373268D01*
X616206Y373232D01*
X616272Y373190D01*
X616332Y373140D01*
X616375Y373124D01*
X616413Y373099D01*
X616489Y373080D01*
X616562Y373052D01*
X616607Y373050D01*
X616652Y373039D01*
X616729Y373045D01*
X616807Y373042D01*
X616851Y373055D01*
X616897Y373058D01*
X616969Y373089D01*
X617044Y373110D01*
X617081Y373136D01*
X617123Y373154D01*
X617230Y373240D01*
X617246Y373251D01*
X617249Y373255D01*
X617254Y373259D01*
X618602Y374607D01*
X622998Y374607D01*
X625287Y372318D01*
X625361Y372265D01*
X625431Y372205D01*
X625461Y372193D01*
X625487Y372174D01*
X625574Y372147D01*
X625659Y372113D01*
X625700Y372109D01*
X625722Y372102D01*
X625754Y372103D01*
X625825Y372095D01*
X632375Y372095D01*
X632465Y372109D01*
X632556Y372117D01*
X632585Y372129D01*
X632617Y372134D01*
X632698Y372177D01*
X632782Y372213D01*
X632814Y372239D01*
X632835Y372250D01*
X632857Y372273D01*
X632913Y372318D01*
X635802Y375207D01*
X640198Y375207D01*
X643307Y372098D01*
X643307Y367702D01*
X640198Y364593D01*
X635802Y364593D01*
X634113Y366282D01*
X634039Y366335D01*
X633969Y366395D01*
X633939Y366407D01*
X633913Y366426D01*
X633826Y366453D01*
X633741Y366487D01*
X633700Y366491D01*
X633678Y366498D01*
X633646Y366497D01*
X633575Y366505D01*
X625825Y366505D01*
X625735Y366491D01*
X625644Y366483D01*
X625615Y366471D01*
X625583Y366466D01*
X625502Y366423D01*
X625418Y366387D01*
X625386Y366361D01*
X625365Y366350D01*
X625343Y366327D01*
X625287Y366282D01*
X622998Y363993D01*
X618602Y363993D01*
X617887Y364708D01*
X617850Y364735D01*
X617819Y364769D01*
X617751Y364806D01*
X617687Y364852D01*
X617644Y364865D01*
X617603Y364887D01*
X617527Y364901D01*
X617452Y364924D01*
X617406Y364923D01*
X617361Y364931D01*
X617284Y364920D01*
X617206Y364918D01*
X617163Y364902D01*
X617118Y364895D01*
X617049Y364860D01*
X616975Y364833D01*
X616940Y364804D01*
X616899Y364784D01*
X616844Y364728D01*
X616783Y364679D01*
X616759Y364641D01*
X616726Y364608D01*
X616660Y364488D01*
X616650Y364473D01*
X616649Y364468D01*
X616645Y364461D01*
X615674Y362117D01*
X612643Y359086D01*
X608683Y357445D01*
X604397Y357445D01*
G37*
%LPD*%
%LPC*%
G36*
X144202Y422293D02*
X144202Y422293D01*
X141093Y425402D01*
X141093Y429798D01*
X143310Y432015D01*
X143364Y432090D01*
X143424Y432160D01*
X143435Y432189D01*
X143454Y432215D01*
X143481Y432303D01*
X143515Y432388D01*
X143519Y432428D01*
X143526Y432450D01*
X143525Y432482D01*
X143533Y432555D01*
X143530Y433902D01*
X143529Y433905D01*
X143530Y433910D01*
X143514Y435252D01*
X143521Y435274D01*
X143519Y435305D01*
X143527Y435371D01*
X143512Y441797D01*
X143509Y441815D01*
X143511Y441833D01*
X143496Y441902D01*
X143490Y441977D01*
X143477Y442007D01*
X143471Y442040D01*
X143462Y442058D01*
X143458Y442073D01*
X143425Y442129D01*
X143405Y442175D01*
X143405Y442942D01*
X143404Y442950D01*
X143405Y442958D01*
X143383Y443124D01*
X143209Y443827D01*
X143296Y443971D01*
X143338Y444076D01*
X143387Y444198D01*
X143387Y444199D01*
X143387Y444200D01*
X143387Y444203D01*
X143405Y444365D01*
X143405Y502275D01*
X143391Y502365D01*
X143383Y502456D01*
X143371Y502485D01*
X143366Y502517D01*
X143323Y502598D01*
X143287Y502682D01*
X143261Y502714D01*
X143250Y502735D01*
X143227Y502757D01*
X143182Y502813D01*
X140893Y505102D01*
X140893Y509498D01*
X144002Y512607D01*
X148398Y512607D01*
X151507Y509498D01*
X151507Y505102D01*
X149218Y502813D01*
X149165Y502739D01*
X149105Y502669D01*
X149093Y502639D01*
X149074Y502613D01*
X149047Y502526D01*
X149013Y502441D01*
X149009Y502400D01*
X149002Y502378D01*
X149003Y502346D01*
X148995Y502275D01*
X148995Y444536D01*
X149010Y444446D01*
X149017Y444354D01*
X149029Y444325D01*
X149034Y444294D01*
X149077Y444212D01*
X149096Y444170D01*
X149098Y443391D01*
X149099Y443384D01*
X149098Y443376D01*
X149120Y443210D01*
X149295Y442503D01*
X149210Y442363D01*
X149134Y442171D01*
X149119Y442135D01*
X149119Y442134D01*
X149101Y441968D01*
X149119Y433948D01*
X149120Y433945D01*
X149119Y433941D01*
X149134Y432677D01*
X149149Y432591D01*
X149156Y432505D01*
X149171Y432471D01*
X149177Y432434D01*
X149219Y432358D01*
X149253Y432278D01*
X149282Y432241D01*
X149295Y432218D01*
X149317Y432197D01*
X149341Y432168D01*
X149341Y432167D01*
X149342Y432167D01*
X149357Y432148D01*
X151707Y429798D01*
X151707Y425402D01*
X148598Y422293D01*
X144202Y422293D01*
G37*
%LPD*%
%LPC*%
G36*
X480502Y352593D02*
X480502Y352593D01*
X477393Y355702D01*
X477393Y360098D01*
X479491Y362196D01*
X479544Y362270D01*
X479603Y362339D01*
X479616Y362369D01*
X479634Y362395D01*
X479661Y362482D01*
X479695Y362567D01*
X479700Y362608D01*
X479707Y362631D01*
X479706Y362663D01*
X479714Y362734D01*
X479714Y371448D01*
X479699Y371540D01*
X479691Y371634D01*
X479679Y371661D01*
X479674Y371691D01*
X479630Y371774D01*
X479593Y371859D01*
X479573Y371884D01*
X479569Y372538D01*
X479567Y372550D01*
X479568Y372559D01*
X479565Y372573D01*
X479567Y372593D01*
X479536Y372758D01*
X479349Y373363D01*
X479473Y373596D01*
X479506Y373694D01*
X479543Y373790D01*
X479546Y373815D01*
X479551Y373829D01*
X479551Y373862D01*
X479561Y373957D01*
X479559Y374221D01*
X480004Y374671D01*
X480020Y374693D01*
X480042Y374711D01*
X480136Y374850D01*
X480432Y375409D01*
X480684Y375487D01*
X480776Y375533D01*
X480871Y375574D01*
X480890Y375590D01*
X480904Y375597D01*
X480927Y375619D01*
X481001Y375680D01*
X481187Y375867D01*
X481820Y375871D01*
X481847Y375876D01*
X481875Y375873D01*
X482040Y375905D01*
X482644Y376091D01*
X482878Y375968D01*
X482976Y375935D01*
X483071Y375897D01*
X483096Y375894D01*
X483111Y375889D01*
X483143Y375889D01*
X483238Y375879D01*
X495421Y375951D01*
X495465Y375958D01*
X496885Y375959D01*
X496886Y375959D01*
X496889Y375959D01*
X498260Y375967D01*
X498261Y375967D01*
X498275Y375967D01*
X498296Y375967D01*
X498360Y375960D01*
X535371Y375991D01*
X535461Y376005D01*
X535551Y376012D01*
X535581Y376025D01*
X535614Y376031D01*
X535694Y376073D01*
X535778Y376109D01*
X535810Y376135D01*
X535831Y376146D01*
X535853Y376169D01*
X535909Y376214D01*
X538202Y378507D01*
X542598Y378507D01*
X545707Y375398D01*
X545707Y371002D01*
X542598Y367893D01*
X538202Y367893D01*
X535917Y370178D01*
X535843Y370231D01*
X535773Y370291D01*
X535743Y370303D01*
X535717Y370322D01*
X535630Y370349D01*
X535545Y370383D01*
X535504Y370387D01*
X535482Y370394D01*
X535450Y370393D01*
X535378Y370401D01*
X496913Y370370D01*
X496911Y370370D01*
X496909Y370370D01*
X486060Y370306D01*
X486043Y370303D01*
X486025Y370305D01*
X485922Y370283D01*
X485818Y370265D01*
X485802Y370257D01*
X485785Y370253D01*
X485694Y370199D01*
X485601Y370149D01*
X485589Y370136D01*
X485574Y370127D01*
X485505Y370046D01*
X485433Y369969D01*
X485425Y369953D01*
X485414Y369940D01*
X485374Y369842D01*
X485330Y369746D01*
X485328Y369728D01*
X485322Y369712D01*
X485303Y369545D01*
X485303Y363117D01*
X485318Y363027D01*
X485325Y362936D01*
X485338Y362906D01*
X485343Y362874D01*
X485386Y362793D01*
X485421Y362710D01*
X485447Y362677D01*
X485458Y362657D01*
X485481Y362635D01*
X485526Y362579D01*
X488007Y360098D01*
X488007Y355702D01*
X484898Y352593D01*
X480502Y352593D01*
G37*
%LPD*%
%LPC*%
G36*
X565202Y446593D02*
X565202Y446593D01*
X562093Y449702D01*
X562093Y454098D01*
X564282Y456287D01*
X564335Y456361D01*
X564395Y456431D01*
X564407Y456461D01*
X564426Y456487D01*
X564453Y456574D01*
X564487Y456659D01*
X564491Y456700D01*
X564498Y456722D01*
X564497Y456754D01*
X564505Y456825D01*
X564505Y516075D01*
X564491Y516165D01*
X564483Y516256D01*
X564471Y516285D01*
X564466Y516317D01*
X564423Y516398D01*
X564387Y516482D01*
X564361Y516514D01*
X564350Y516535D01*
X564327Y516557D01*
X564282Y516613D01*
X561993Y518902D01*
X561993Y523298D01*
X565102Y526407D01*
X569498Y526407D01*
X572607Y523298D01*
X572607Y518902D01*
X570318Y516613D01*
X570265Y516539D01*
X570205Y516469D01*
X570193Y516439D01*
X570174Y516413D01*
X570147Y516326D01*
X570113Y516241D01*
X570109Y516200D01*
X570102Y516178D01*
X570103Y516146D01*
X570095Y516075D01*
X570095Y457025D01*
X570109Y456935D01*
X570117Y456844D01*
X570129Y456815D01*
X570134Y456783D01*
X570153Y456747D01*
X570155Y456738D01*
X570178Y456701D01*
X570213Y456618D01*
X570239Y456586D01*
X570250Y456565D01*
X570271Y456545D01*
X570281Y456527D01*
X570295Y456516D01*
X570318Y456487D01*
X572707Y454098D01*
X572707Y449702D01*
X569598Y446593D01*
X565202Y446593D01*
G37*
%LPD*%
%LPC*%
G36*
X37858Y662245D02*
X37858Y662245D01*
X36965Y663138D01*
X36965Y682902D01*
X37858Y683795D01*
X57622Y683795D01*
X58515Y682902D01*
X58515Y663138D01*
X57622Y662245D01*
X37858Y662245D01*
G37*
%LPD*%
%LPC*%
G36*
X596658Y205045D02*
X596658Y205045D01*
X595765Y205938D01*
X595765Y225702D01*
X596658Y226595D01*
X616422Y226595D01*
X617315Y225702D01*
X617315Y205938D01*
X616422Y205045D01*
X596658Y205045D01*
G37*
%LPD*%
%LPC*%
G36*
X647458Y661995D02*
X647458Y661995D01*
X646565Y662888D01*
X646565Y682652D01*
X647458Y683545D01*
X667222Y683545D01*
X668115Y682652D01*
X668115Y662888D01*
X667222Y661995D01*
X647458Y661995D01*
G37*
%LPD*%
%LPC*%
G36*
X596658Y423485D02*
X596658Y423485D01*
X595765Y424378D01*
X595765Y444142D01*
X596658Y445035D01*
X616422Y445035D01*
X617315Y444142D01*
X617315Y424378D01*
X616422Y423485D01*
X596658Y423485D01*
G37*
%LPD*%
%LPC*%
G36*
X114058Y560645D02*
X114058Y560645D01*
X113165Y561538D01*
X113165Y581302D01*
X114058Y582195D01*
X133822Y582195D01*
X134715Y581302D01*
X134715Y561538D01*
X133822Y560645D01*
X114058Y560645D01*
G37*
%LPD*%
%LPC*%
G36*
X522619Y137391D02*
X522619Y137391D01*
X519631Y138629D01*
X517345Y140915D01*
X516107Y143903D01*
X516107Y147137D01*
X517345Y150125D01*
X519631Y152411D01*
X522619Y153649D01*
X539061Y153649D01*
X542049Y152411D01*
X544335Y150125D01*
X545573Y147137D01*
X545573Y143903D01*
X544335Y140915D01*
X542049Y138629D01*
X539061Y137391D01*
X522619Y137391D01*
G37*
%LPD*%
%LPC*%
G36*
X571919Y99091D02*
X571919Y99091D01*
X568931Y100329D01*
X566645Y102615D01*
X565407Y105603D01*
X565407Y108837D01*
X566645Y111825D01*
X568931Y114111D01*
X571919Y115349D01*
X588361Y115349D01*
X591349Y114111D01*
X593635Y111825D01*
X594873Y108837D01*
X594873Y105603D01*
X593635Y102615D01*
X591349Y100329D01*
X588361Y99091D01*
X571919Y99091D01*
G37*
%LPD*%
%LPC*%
G36*
X571919Y124491D02*
X571919Y124491D01*
X568931Y125729D01*
X566645Y128015D01*
X565407Y131003D01*
X565407Y134237D01*
X566645Y137225D01*
X568931Y139511D01*
X571919Y140749D01*
X588361Y140749D01*
X591349Y139511D01*
X593635Y137225D01*
X594873Y134237D01*
X594873Y131003D01*
X593635Y128015D01*
X591349Y125729D01*
X588361Y124491D01*
X571919Y124491D01*
G37*
%LPD*%
%LPC*%
G36*
X522619Y86591D02*
X522619Y86591D01*
X519631Y87829D01*
X517345Y90115D01*
X516107Y93103D01*
X516107Y96337D01*
X517345Y99325D01*
X519631Y101611D01*
X522619Y102849D01*
X539061Y102849D01*
X542049Y101611D01*
X544335Y99325D01*
X545573Y96337D01*
X545573Y93103D01*
X544335Y90115D01*
X542049Y87829D01*
X539061Y86591D01*
X522619Y86591D01*
G37*
%LPD*%
%LPC*%
G36*
X303602Y338893D02*
X303602Y338893D01*
X300493Y342002D01*
X300493Y346398D01*
X302772Y348677D01*
X302825Y348751D01*
X302885Y348821D01*
X302897Y348851D01*
X302915Y348876D01*
X302942Y348964D01*
X302977Y349050D01*
X302981Y349090D01*
X302988Y349111D01*
X302987Y349144D01*
X302995Y349216D01*
X302908Y390226D01*
X302905Y390244D01*
X302905Y391696D01*
X302905Y391697D01*
X302903Y392855D01*
X303370Y393323D01*
X303416Y393387D01*
X303435Y393406D01*
X303439Y393415D01*
X303483Y393466D01*
X303495Y393496D01*
X303514Y393522D01*
X303541Y393609D01*
X303575Y393694D01*
X303579Y393735D01*
X303586Y393757D01*
X303585Y393790D01*
X303593Y393861D01*
X303593Y397098D01*
X306702Y400207D01*
X311098Y400207D01*
X314207Y397098D01*
X314207Y392702D01*
X311098Y389593D01*
X309262Y389593D01*
X309242Y389590D01*
X309221Y389592D01*
X309120Y389570D01*
X309019Y389554D01*
X309001Y389544D01*
X308981Y389539D01*
X308892Y389486D01*
X308802Y389438D01*
X308788Y389423D01*
X308770Y389413D01*
X308703Y389334D01*
X308633Y389260D01*
X308624Y389241D01*
X308610Y389226D01*
X308572Y389130D01*
X308529Y389037D01*
X308527Y389016D01*
X308519Y388997D01*
X308501Y388830D01*
X308584Y349234D01*
X308599Y349145D01*
X308606Y349055D01*
X308619Y349025D01*
X308624Y348992D01*
X308667Y348912D01*
X308702Y348829D01*
X308729Y348796D01*
X308740Y348775D01*
X308763Y348753D01*
X308807Y348698D01*
X311107Y346398D01*
X311107Y342002D01*
X307998Y338893D01*
X303602Y338893D01*
G37*
%LPD*%
%LPC*%
G36*
X209602Y400179D02*
X209602Y400179D01*
X206493Y403288D01*
X206493Y407684D01*
X208682Y409873D01*
X208735Y409947D01*
X208795Y410017D01*
X208807Y410047D01*
X208826Y410073D01*
X208853Y410160D01*
X208887Y410245D01*
X208891Y410286D01*
X208898Y410308D01*
X208897Y410340D01*
X208905Y410411D01*
X208905Y445702D01*
X208893Y445775D01*
X208891Y445848D01*
X208874Y445895D01*
X208866Y445945D01*
X208849Y445976D01*
X208869Y446397D01*
X208857Y446506D01*
X208848Y446615D01*
X208843Y446627D01*
X208841Y446641D01*
X208795Y446741D01*
X208752Y446841D01*
X208741Y446854D01*
X208737Y446864D01*
X208717Y446885D01*
X208647Y446972D01*
X206593Y449026D01*
X206593Y453422D01*
X209702Y456531D01*
X214098Y456531D01*
X217207Y453422D01*
X217207Y449026D01*
X214718Y446537D01*
X214665Y446463D01*
X214605Y446393D01*
X214593Y446363D01*
X214574Y446337D01*
X214547Y446250D01*
X214513Y446165D01*
X214509Y446124D01*
X214502Y446102D01*
X214503Y446070D01*
X214495Y445999D01*
X214495Y410611D01*
X214509Y410521D01*
X214517Y410430D01*
X214529Y410401D01*
X214534Y410369D01*
X214577Y410288D01*
X214613Y410204D01*
X214639Y410172D01*
X214650Y410151D01*
X214673Y410129D01*
X214718Y410073D01*
X217107Y407684D01*
X217107Y403288D01*
X213998Y400179D01*
X209602Y400179D01*
G37*
%LPD*%
%LPC*%
G36*
X45597Y586045D02*
X45597Y586045D01*
X41637Y587686D01*
X38606Y590717D01*
X36965Y594677D01*
X36965Y598963D01*
X38606Y602923D01*
X41637Y605954D01*
X45597Y607595D01*
X49883Y607595D01*
X53843Y605954D01*
X56874Y602923D01*
X58515Y598963D01*
X58515Y594677D01*
X56874Y590717D01*
X53843Y587686D01*
X49883Y586045D01*
X45597Y586045D01*
G37*
%LPD*%
%LPC*%
G36*
X70997Y662245D02*
X70997Y662245D01*
X67037Y663886D01*
X64006Y666917D01*
X62365Y670877D01*
X62365Y675163D01*
X64006Y679123D01*
X67037Y682154D01*
X70997Y683795D01*
X75283Y683795D01*
X79243Y682154D01*
X82274Y679123D01*
X83915Y675163D01*
X83915Y670877D01*
X82274Y666917D01*
X79243Y663886D01*
X75283Y662245D01*
X70997Y662245D01*
G37*
%LPD*%
%LPC*%
G36*
X680597Y661995D02*
X680597Y661995D01*
X676637Y663636D01*
X673606Y666667D01*
X671965Y670627D01*
X671965Y674913D01*
X673606Y678873D01*
X676637Y681904D01*
X680597Y683545D01*
X684883Y683545D01*
X688843Y681904D01*
X691874Y678873D01*
X693515Y674913D01*
X693515Y670627D01*
X691874Y666667D01*
X688843Y663636D01*
X684883Y661995D01*
X680597Y661995D01*
G37*
%LPD*%
%LPC*%
G36*
X70997Y636845D02*
X70997Y636845D01*
X67037Y638486D01*
X64006Y641517D01*
X62365Y645477D01*
X62365Y649763D01*
X64006Y653723D01*
X67037Y656754D01*
X70997Y658395D01*
X75283Y658395D01*
X79243Y656754D01*
X82274Y653723D01*
X83915Y649763D01*
X83915Y645477D01*
X82274Y641517D01*
X79243Y638486D01*
X75283Y636845D01*
X70997Y636845D01*
G37*
%LPD*%
%LPC*%
G36*
X45597Y636845D02*
X45597Y636845D01*
X41637Y638486D01*
X38606Y641517D01*
X36965Y645477D01*
X36965Y649763D01*
X38606Y653723D01*
X41637Y656754D01*
X45597Y658395D01*
X49883Y658395D01*
X53843Y656754D01*
X56874Y653723D01*
X58515Y649763D01*
X58515Y645477D01*
X56874Y641517D01*
X53843Y638486D01*
X49883Y636845D01*
X45597Y636845D01*
G37*
%LPD*%
%LPC*%
G36*
X680597Y636595D02*
X680597Y636595D01*
X676637Y638236D01*
X673606Y641267D01*
X671965Y645227D01*
X671965Y649513D01*
X673606Y653473D01*
X676637Y656504D01*
X680597Y658145D01*
X684883Y658145D01*
X688843Y656504D01*
X691874Y653473D01*
X693515Y649513D01*
X693515Y645227D01*
X691874Y641267D01*
X688843Y638236D01*
X684883Y636595D01*
X680597Y636595D01*
G37*
%LPD*%
%LPC*%
G36*
X655197Y636595D02*
X655197Y636595D01*
X651237Y638236D01*
X648206Y641267D01*
X646565Y645227D01*
X646565Y649513D01*
X648206Y653473D01*
X651237Y656504D01*
X655197Y658145D01*
X659483Y658145D01*
X663443Y656504D01*
X666474Y653473D01*
X668115Y649513D01*
X668115Y645227D01*
X666474Y641267D01*
X663443Y638236D01*
X659483Y636595D01*
X655197Y636595D01*
G37*
%LPD*%
%LPC*%
G36*
X604397Y626685D02*
X604397Y626685D01*
X600437Y628326D01*
X597406Y631357D01*
X595765Y635317D01*
X595765Y639603D01*
X597406Y643563D01*
X600437Y646594D01*
X604397Y648235D01*
X608683Y648235D01*
X612643Y646594D01*
X615674Y643563D01*
X617315Y639603D01*
X617315Y635317D01*
X615674Y631357D01*
X612643Y628326D01*
X608683Y626685D01*
X604397Y626685D01*
G37*
%LPD*%
%LPC*%
G36*
X70997Y611445D02*
X70997Y611445D01*
X67037Y613086D01*
X64006Y616117D01*
X62365Y620077D01*
X62365Y624363D01*
X64006Y628323D01*
X67037Y631354D01*
X70997Y632995D01*
X75283Y632995D01*
X79243Y631354D01*
X82274Y628323D01*
X83915Y624363D01*
X83915Y620077D01*
X82274Y616117D01*
X79243Y613086D01*
X75283Y611445D01*
X70997Y611445D01*
G37*
%LPD*%
%LPC*%
G36*
X45597Y611445D02*
X45597Y611445D01*
X41637Y613086D01*
X38606Y616117D01*
X36965Y620077D01*
X36965Y624363D01*
X38606Y628323D01*
X41637Y631354D01*
X45597Y632995D01*
X49883Y632995D01*
X53843Y631354D01*
X56874Y628323D01*
X58515Y624363D01*
X58515Y620077D01*
X56874Y616117D01*
X53843Y613086D01*
X49883Y611445D01*
X45597Y611445D01*
G37*
%LPD*%
%LPC*%
G36*
X680597Y611195D02*
X680597Y611195D01*
X676637Y612836D01*
X673606Y615867D01*
X671965Y619827D01*
X671965Y624113D01*
X673606Y628073D01*
X676637Y631104D01*
X680597Y632745D01*
X684883Y632745D01*
X688843Y631104D01*
X691874Y628073D01*
X693515Y624113D01*
X693515Y619827D01*
X691874Y615867D01*
X688843Y612836D01*
X684883Y611195D01*
X680597Y611195D01*
G37*
%LPD*%
%LPC*%
G36*
X655197Y611195D02*
X655197Y611195D01*
X651237Y612836D01*
X648206Y615867D01*
X646565Y619827D01*
X646565Y624113D01*
X648206Y628073D01*
X651237Y631104D01*
X655197Y632745D01*
X659483Y632745D01*
X663443Y631104D01*
X666474Y628073D01*
X668115Y624113D01*
X668115Y619827D01*
X666474Y615867D01*
X663443Y612836D01*
X659483Y611195D01*
X655197Y611195D01*
G37*
%LPD*%
%LPC*%
G36*
X121797Y255845D02*
X121797Y255845D01*
X117837Y257486D01*
X114806Y260517D01*
X113165Y264477D01*
X113165Y268763D01*
X114806Y272723D01*
X117837Y275754D01*
X121797Y277395D01*
X126083Y277395D01*
X130043Y275754D01*
X133074Y272723D01*
X134715Y268763D01*
X134715Y264477D01*
X133074Y260517D01*
X130043Y257486D01*
X126083Y255845D01*
X121797Y255845D01*
G37*
%LPD*%
%LPC*%
G36*
X604397Y601285D02*
X604397Y601285D01*
X600437Y602926D01*
X597406Y605957D01*
X595765Y609917D01*
X595765Y614203D01*
X597406Y618163D01*
X600437Y621194D01*
X604397Y622835D01*
X608683Y622835D01*
X612643Y621194D01*
X615674Y618163D01*
X617315Y614203D01*
X617315Y609917D01*
X615674Y605957D01*
X612643Y602926D01*
X608683Y601285D01*
X604397Y601285D01*
G37*
%LPD*%
%LPC*%
G36*
X70997Y255845D02*
X70997Y255845D01*
X67037Y257486D01*
X64006Y260517D01*
X62365Y264477D01*
X62365Y268763D01*
X64006Y272723D01*
X67037Y275754D01*
X70997Y277395D01*
X75283Y277395D01*
X79243Y275754D01*
X82274Y272723D01*
X83915Y268763D01*
X83915Y264477D01*
X82274Y260517D01*
X79243Y257486D01*
X75283Y255845D01*
X70997Y255845D01*
G37*
%LPD*%
%LPC*%
G36*
X45597Y255845D02*
X45597Y255845D01*
X41637Y257486D01*
X38606Y260517D01*
X36965Y264477D01*
X36965Y268763D01*
X38606Y272723D01*
X41637Y275754D01*
X45597Y277395D01*
X49883Y277395D01*
X53843Y275754D01*
X56874Y272723D01*
X58515Y268763D01*
X58515Y264477D01*
X56874Y260517D01*
X53843Y257486D01*
X49883Y255845D01*
X45597Y255845D01*
G37*
%LPD*%
%LPC*%
G36*
X680597Y407995D02*
X680597Y407995D01*
X676637Y409636D01*
X673606Y412667D01*
X671965Y416627D01*
X671965Y420913D01*
X673606Y424873D01*
X676637Y427904D01*
X680597Y429545D01*
X684883Y429545D01*
X688843Y427904D01*
X691874Y424873D01*
X693515Y420913D01*
X693515Y416627D01*
X691874Y412667D01*
X688843Y409636D01*
X684883Y407995D01*
X680597Y407995D01*
G37*
%LPD*%
%LPC*%
G36*
X680597Y585795D02*
X680597Y585795D01*
X676637Y587436D01*
X673606Y590467D01*
X671965Y594427D01*
X671965Y598713D01*
X673606Y602673D01*
X676637Y605704D01*
X680597Y607345D01*
X684883Y607345D01*
X688843Y605704D01*
X691874Y602673D01*
X693515Y598713D01*
X693515Y594427D01*
X691874Y590467D01*
X688843Y587436D01*
X684883Y585795D01*
X680597Y585795D01*
G37*
%LPD*%
%LPC*%
G36*
X655197Y585795D02*
X655197Y585795D01*
X651237Y587436D01*
X648206Y590467D01*
X646565Y594427D01*
X646565Y598713D01*
X648206Y602673D01*
X651237Y605704D01*
X655197Y607345D01*
X659483Y607345D01*
X663443Y605704D01*
X666474Y602673D01*
X668115Y598713D01*
X668115Y594427D01*
X666474Y590467D01*
X663443Y587436D01*
X659483Y585795D01*
X655197Y585795D01*
G37*
%LPD*%
%LPC*%
G36*
X680597Y255595D02*
X680597Y255595D01*
X676637Y257236D01*
X673606Y260267D01*
X671965Y264227D01*
X671965Y268513D01*
X673606Y272473D01*
X676637Y275504D01*
X680597Y277145D01*
X684883Y277145D01*
X688843Y275504D01*
X691874Y272473D01*
X693515Y268513D01*
X693515Y264227D01*
X691874Y260267D01*
X688843Y257236D01*
X684883Y255595D01*
X680597Y255595D01*
G37*
%LPD*%
%LPC*%
G36*
X604397Y230445D02*
X604397Y230445D01*
X600437Y232086D01*
X597406Y235117D01*
X595765Y239077D01*
X595765Y243363D01*
X597406Y247323D01*
X600437Y250354D01*
X604397Y251995D01*
X608683Y251995D01*
X612643Y250354D01*
X615674Y247323D01*
X617315Y243363D01*
X617315Y239077D01*
X615674Y235117D01*
X612643Y232086D01*
X608683Y230445D01*
X604397Y230445D01*
G37*
%LPD*%
%LPC*%
G36*
X45597Y230445D02*
X45597Y230445D01*
X41637Y232086D01*
X38606Y235117D01*
X36965Y239077D01*
X36965Y243363D01*
X38606Y247323D01*
X41637Y250354D01*
X45597Y251995D01*
X49883Y251995D01*
X53843Y250354D01*
X56874Y247323D01*
X58515Y243363D01*
X58515Y239077D01*
X56874Y235117D01*
X53843Y232086D01*
X49883Y230445D01*
X45597Y230445D01*
G37*
%LPD*%
%LPC*%
G36*
X70997Y230445D02*
X70997Y230445D01*
X67037Y232086D01*
X64006Y235117D01*
X62365Y239077D01*
X62365Y243363D01*
X64006Y247323D01*
X67037Y250354D01*
X70997Y251995D01*
X75283Y251995D01*
X79243Y250354D01*
X82274Y247323D01*
X83915Y243363D01*
X83915Y239077D01*
X82274Y235117D01*
X79243Y232086D01*
X75283Y230445D01*
X70997Y230445D01*
G37*
%LPD*%
%LPC*%
G36*
X121797Y230445D02*
X121797Y230445D01*
X117837Y232086D01*
X114806Y235117D01*
X113165Y239077D01*
X113165Y243363D01*
X114806Y247323D01*
X117837Y250354D01*
X121797Y251995D01*
X126083Y251995D01*
X130043Y250354D01*
X133074Y247323D01*
X134715Y243363D01*
X134715Y239077D01*
X133074Y235117D01*
X130043Y232086D01*
X126083Y230445D01*
X121797Y230445D01*
G37*
%LPD*%
%LPC*%
G36*
X680597Y230195D02*
X680597Y230195D01*
X676637Y231836D01*
X673606Y234867D01*
X671965Y238827D01*
X671965Y243113D01*
X673606Y247073D01*
X676637Y250104D01*
X680597Y251745D01*
X684883Y251745D01*
X688843Y250104D01*
X691874Y247073D01*
X693515Y243113D01*
X693515Y238827D01*
X691874Y234867D01*
X688843Y231836D01*
X684883Y230195D01*
X680597Y230195D01*
G37*
%LPD*%
%LPC*%
G36*
X655197Y230195D02*
X655197Y230195D01*
X651237Y231836D01*
X648206Y234867D01*
X646565Y238827D01*
X646565Y243113D01*
X648206Y247073D01*
X651237Y250104D01*
X655197Y251745D01*
X659483Y251745D01*
X663443Y250104D01*
X666474Y247073D01*
X668115Y243113D01*
X668115Y238827D01*
X666474Y234867D01*
X663443Y231836D01*
X659483Y230195D01*
X655197Y230195D01*
G37*
%LPD*%
%LPC*%
G36*
X121797Y205045D02*
X121797Y205045D01*
X117837Y206686D01*
X114806Y209717D01*
X113165Y213677D01*
X113165Y217963D01*
X114806Y221923D01*
X117837Y224954D01*
X121797Y226595D01*
X126083Y226595D01*
X130043Y224954D01*
X133074Y221923D01*
X134715Y217963D01*
X134715Y213677D01*
X133074Y209717D01*
X130043Y206686D01*
X126083Y205045D01*
X121797Y205045D01*
G37*
%LPD*%
%LPC*%
G36*
X70997Y205045D02*
X70997Y205045D01*
X67037Y206686D01*
X64006Y209717D01*
X62365Y213677D01*
X62365Y217963D01*
X64006Y221923D01*
X67037Y224954D01*
X70997Y226595D01*
X75283Y226595D01*
X79243Y224954D01*
X82274Y221923D01*
X83915Y217963D01*
X83915Y213677D01*
X82274Y209717D01*
X79243Y206686D01*
X75283Y205045D01*
X70997Y205045D01*
G37*
%LPD*%
%LPC*%
G36*
X45597Y205045D02*
X45597Y205045D01*
X41637Y206686D01*
X38606Y209717D01*
X36965Y213677D01*
X36965Y217963D01*
X38606Y221923D01*
X41637Y224954D01*
X45597Y226595D01*
X49883Y226595D01*
X53843Y224954D01*
X56874Y221923D01*
X58515Y217963D01*
X58515Y213677D01*
X56874Y209717D01*
X53843Y206686D01*
X49883Y205045D01*
X45597Y205045D01*
G37*
%LPD*%
%LPC*%
G36*
X45597Y560645D02*
X45597Y560645D01*
X41637Y562286D01*
X38606Y565317D01*
X36965Y569277D01*
X36965Y573563D01*
X38606Y577523D01*
X41637Y580554D01*
X45597Y582195D01*
X49883Y582195D01*
X53843Y580554D01*
X56874Y577523D01*
X58515Y573563D01*
X58515Y569277D01*
X56874Y565317D01*
X53843Y562286D01*
X49883Y560645D01*
X45597Y560645D01*
G37*
%LPD*%
%LPC*%
G36*
X70997Y560645D02*
X70997Y560645D01*
X67037Y562286D01*
X64006Y565317D01*
X62365Y569277D01*
X62365Y573563D01*
X64006Y577523D01*
X67037Y580554D01*
X70997Y582195D01*
X75283Y582195D01*
X79243Y580554D01*
X82274Y577523D01*
X83915Y573563D01*
X83915Y569277D01*
X82274Y565317D01*
X79243Y562286D01*
X75283Y560645D01*
X70997Y560645D01*
G37*
%LPD*%
%LPC*%
G36*
X680597Y560395D02*
X680597Y560395D01*
X676637Y562036D01*
X673606Y565067D01*
X671965Y569027D01*
X671965Y573313D01*
X673606Y577273D01*
X676637Y580304D01*
X680597Y581945D01*
X684883Y581945D01*
X688843Y580304D01*
X691874Y577273D01*
X693515Y573313D01*
X693515Y569027D01*
X691874Y565067D01*
X688843Y562036D01*
X684883Y560395D01*
X680597Y560395D01*
G37*
%LPD*%
%LPC*%
G36*
X604397Y550485D02*
X604397Y550485D01*
X600437Y552126D01*
X597406Y555157D01*
X595765Y559117D01*
X595765Y563403D01*
X597406Y567363D01*
X600437Y570394D01*
X604397Y572035D01*
X608683Y572035D01*
X612643Y570394D01*
X615674Y567363D01*
X617315Y563403D01*
X617315Y559117D01*
X615674Y555157D01*
X612643Y552126D01*
X608683Y550485D01*
X604397Y550485D01*
G37*
%LPD*%
%LPC*%
G36*
X680597Y204795D02*
X680597Y204795D01*
X676637Y206436D01*
X673606Y209467D01*
X671965Y213427D01*
X671965Y217713D01*
X673606Y221673D01*
X676637Y224704D01*
X680597Y226345D01*
X684883Y226345D01*
X688843Y224704D01*
X691874Y221673D01*
X693515Y217713D01*
X693515Y213427D01*
X691874Y209467D01*
X688843Y206436D01*
X684883Y204795D01*
X680597Y204795D01*
G37*
%LPD*%
%LPC*%
G36*
X655197Y204795D02*
X655197Y204795D01*
X651237Y206436D01*
X648206Y209467D01*
X646565Y213427D01*
X646565Y217713D01*
X648206Y221673D01*
X651237Y224704D01*
X655197Y226345D01*
X659483Y226345D01*
X663443Y224704D01*
X666474Y221673D01*
X668115Y217713D01*
X668115Y213427D01*
X666474Y209467D01*
X663443Y206436D01*
X659483Y204795D01*
X655197Y204795D01*
G37*
%LPD*%
%LPC*%
G36*
X70997Y535245D02*
X70997Y535245D01*
X67037Y536886D01*
X64006Y539917D01*
X62365Y543877D01*
X62365Y548163D01*
X64006Y552123D01*
X67037Y555154D01*
X70997Y556795D01*
X75283Y556795D01*
X79243Y555154D01*
X82274Y552123D01*
X83915Y548163D01*
X83915Y543877D01*
X82274Y539917D01*
X79243Y536886D01*
X75283Y535245D01*
X70997Y535245D01*
G37*
%LPD*%
%LPC*%
G36*
X45597Y535245D02*
X45597Y535245D01*
X41637Y536886D01*
X38606Y539917D01*
X36965Y543877D01*
X36965Y548163D01*
X38606Y552123D01*
X41637Y555154D01*
X45597Y556795D01*
X49883Y556795D01*
X53843Y555154D01*
X56874Y552123D01*
X58515Y548163D01*
X58515Y543877D01*
X56874Y539917D01*
X53843Y536886D01*
X49883Y535245D01*
X45597Y535245D01*
G37*
%LPD*%
%LPC*%
G36*
X121797Y535245D02*
X121797Y535245D01*
X117837Y536886D01*
X114806Y539917D01*
X113165Y543877D01*
X113165Y548163D01*
X114806Y552123D01*
X117837Y555154D01*
X121797Y556795D01*
X126083Y556795D01*
X130043Y555154D01*
X133074Y552123D01*
X134715Y548163D01*
X134715Y543877D01*
X133074Y539917D01*
X130043Y536886D01*
X126083Y535245D01*
X121797Y535245D01*
G37*
%LPD*%
%LPC*%
G36*
X655197Y534995D02*
X655197Y534995D01*
X651237Y536636D01*
X648206Y539667D01*
X646565Y543627D01*
X646565Y547913D01*
X648206Y551873D01*
X651237Y554904D01*
X655197Y556545D01*
X659483Y556545D01*
X663443Y554904D01*
X666474Y551873D01*
X668115Y547913D01*
X668115Y543627D01*
X666474Y539667D01*
X663443Y536636D01*
X659483Y534995D01*
X655197Y534995D01*
G37*
%LPD*%
%LPC*%
G36*
X680597Y534995D02*
X680597Y534995D01*
X676637Y536636D01*
X673606Y539667D01*
X671965Y543627D01*
X671965Y547913D01*
X673606Y551873D01*
X676637Y554904D01*
X680597Y556545D01*
X684883Y556545D01*
X688843Y554904D01*
X691874Y551873D01*
X693515Y547913D01*
X693515Y543627D01*
X691874Y539667D01*
X688843Y536636D01*
X684883Y534995D01*
X680597Y534995D01*
G37*
%LPD*%
%LPC*%
G36*
X604397Y525085D02*
X604397Y525085D01*
X600437Y526726D01*
X597406Y529757D01*
X595765Y533717D01*
X595765Y538003D01*
X597406Y541963D01*
X600437Y544994D01*
X604397Y546635D01*
X608683Y546635D01*
X612643Y544994D01*
X615674Y541963D01*
X617315Y538003D01*
X617315Y533717D01*
X615674Y529757D01*
X612643Y526726D01*
X608683Y525085D01*
X604397Y525085D01*
G37*
%LPD*%
%LPC*%
G36*
X45597Y509845D02*
X45597Y509845D01*
X41637Y511486D01*
X38606Y514517D01*
X36965Y518477D01*
X36965Y522763D01*
X38606Y526723D01*
X41637Y529754D01*
X45597Y531395D01*
X49883Y531395D01*
X53843Y529754D01*
X56874Y526723D01*
X58515Y522763D01*
X58515Y518477D01*
X56874Y514517D01*
X53843Y511486D01*
X49883Y509845D01*
X45597Y509845D01*
G37*
%LPD*%
%LPC*%
G36*
X70997Y509845D02*
X70997Y509845D01*
X67037Y511486D01*
X64006Y514517D01*
X62365Y518477D01*
X62365Y522763D01*
X64006Y526723D01*
X67037Y529754D01*
X70997Y531395D01*
X75283Y531395D01*
X79243Y529754D01*
X82274Y526723D01*
X83915Y522763D01*
X83915Y518477D01*
X82274Y514517D01*
X79243Y511486D01*
X75283Y509845D01*
X70997Y509845D01*
G37*
%LPD*%
%LPC*%
G36*
X121797Y509845D02*
X121797Y509845D01*
X117837Y511486D01*
X114806Y514517D01*
X113165Y518477D01*
X113165Y522763D01*
X114806Y526723D01*
X117837Y529754D01*
X121797Y531395D01*
X126083Y531395D01*
X130043Y529754D01*
X133074Y526723D01*
X134715Y522763D01*
X134715Y518477D01*
X133074Y514517D01*
X130043Y511486D01*
X126083Y509845D01*
X121797Y509845D01*
G37*
%LPD*%
%LPC*%
G36*
X680597Y509595D02*
X680597Y509595D01*
X676637Y511236D01*
X673606Y514267D01*
X671965Y518227D01*
X671965Y522513D01*
X673606Y526473D01*
X676637Y529504D01*
X680597Y531145D01*
X684883Y531145D01*
X688843Y529504D01*
X691874Y526473D01*
X693515Y522513D01*
X693515Y518227D01*
X691874Y514267D01*
X688843Y511236D01*
X684883Y509595D01*
X680597Y509595D01*
G37*
%LPD*%
%LPC*%
G36*
X655197Y509595D02*
X655197Y509595D01*
X651237Y511236D01*
X648206Y514267D01*
X646565Y518227D01*
X646565Y522513D01*
X648206Y526473D01*
X651237Y529504D01*
X655197Y531145D01*
X659483Y531145D01*
X663443Y529504D01*
X666474Y526473D01*
X668115Y522513D01*
X668115Y518227D01*
X666474Y514267D01*
X663443Y511236D01*
X659483Y509595D01*
X655197Y509595D01*
G37*
%LPD*%
%LPC*%
G36*
X604397Y499685D02*
X604397Y499685D01*
X600437Y501326D01*
X597406Y504357D01*
X595765Y508317D01*
X595765Y512603D01*
X597406Y516563D01*
X600437Y519594D01*
X604397Y521235D01*
X608683Y521235D01*
X612643Y519594D01*
X615674Y516563D01*
X617315Y512603D01*
X617315Y508317D01*
X615674Y504357D01*
X612643Y501326D01*
X608683Y499685D01*
X604397Y499685D01*
G37*
%LPD*%
%LPC*%
G36*
X121797Y484445D02*
X121797Y484445D01*
X117837Y486086D01*
X114806Y489117D01*
X113165Y493077D01*
X113165Y497363D01*
X114806Y501323D01*
X117837Y504354D01*
X121797Y505995D01*
X126083Y505995D01*
X130043Y504354D01*
X133074Y501323D01*
X134715Y497363D01*
X134715Y493077D01*
X133074Y489117D01*
X130043Y486086D01*
X126083Y484445D01*
X121797Y484445D01*
G37*
%LPD*%
%LPC*%
G36*
X70997Y484445D02*
X70997Y484445D01*
X67037Y486086D01*
X64006Y489117D01*
X62365Y493077D01*
X62365Y497363D01*
X64006Y501323D01*
X67037Y504354D01*
X70997Y505995D01*
X75283Y505995D01*
X79243Y504354D01*
X82274Y501323D01*
X83915Y497363D01*
X83915Y493077D01*
X82274Y489117D01*
X79243Y486086D01*
X75283Y484445D01*
X70997Y484445D01*
G37*
%LPD*%
%LPC*%
G36*
X45597Y484445D02*
X45597Y484445D01*
X41637Y486086D01*
X38606Y489117D01*
X36965Y493077D01*
X36965Y497363D01*
X38606Y501323D01*
X41637Y504354D01*
X45597Y505995D01*
X49883Y505995D01*
X53843Y504354D01*
X56874Y501323D01*
X58515Y497363D01*
X58515Y493077D01*
X56874Y489117D01*
X53843Y486086D01*
X49883Y484445D01*
X45597Y484445D01*
G37*
%LPD*%
%LPC*%
G36*
X655197Y484195D02*
X655197Y484195D01*
X651237Y485836D01*
X648206Y488867D01*
X646565Y492827D01*
X646565Y497113D01*
X648206Y501073D01*
X651237Y504104D01*
X655197Y505745D01*
X659483Y505745D01*
X663443Y504104D01*
X666474Y501073D01*
X668115Y497113D01*
X668115Y492827D01*
X666474Y488867D01*
X663443Y485836D01*
X659483Y484195D01*
X655197Y484195D01*
G37*
%LPD*%
%LPC*%
G36*
X680597Y484195D02*
X680597Y484195D01*
X676637Y485836D01*
X673606Y488867D01*
X671965Y492827D01*
X671965Y497113D01*
X673606Y501073D01*
X676637Y504104D01*
X680597Y505745D01*
X684883Y505745D01*
X688843Y504104D01*
X691874Y501073D01*
X693515Y497113D01*
X693515Y492827D01*
X691874Y488867D01*
X688843Y485836D01*
X684883Y484195D01*
X680597Y484195D01*
G37*
%LPD*%
%LPC*%
G36*
X604397Y474285D02*
X604397Y474285D01*
X600437Y475926D01*
X597406Y478957D01*
X595765Y482917D01*
X595765Y487203D01*
X597406Y491163D01*
X600437Y494194D01*
X604397Y495835D01*
X608683Y495835D01*
X612643Y494194D01*
X615674Y491163D01*
X617315Y487203D01*
X617315Y482917D01*
X615674Y478957D01*
X612643Y475926D01*
X608683Y474285D01*
X604397Y474285D01*
G37*
%LPD*%
%LPC*%
G36*
X70997Y459045D02*
X70997Y459045D01*
X67037Y460686D01*
X64006Y463717D01*
X62365Y467677D01*
X62365Y471963D01*
X64006Y475923D01*
X67037Y478954D01*
X70997Y480595D01*
X75283Y480595D01*
X79243Y478954D01*
X82274Y475923D01*
X83915Y471963D01*
X83915Y467677D01*
X82274Y463717D01*
X79243Y460686D01*
X75283Y459045D01*
X70997Y459045D01*
G37*
%LPD*%
%LPC*%
G36*
X45597Y459045D02*
X45597Y459045D01*
X41637Y460686D01*
X38606Y463717D01*
X36965Y467677D01*
X36965Y471963D01*
X38606Y475923D01*
X41637Y478954D01*
X45597Y480595D01*
X49883Y480595D01*
X53843Y478954D01*
X56874Y475923D01*
X58515Y471963D01*
X58515Y467677D01*
X56874Y463717D01*
X53843Y460686D01*
X49883Y459045D01*
X45597Y459045D01*
G37*
%LPD*%
%LPC*%
G36*
X121797Y459045D02*
X121797Y459045D01*
X117837Y460686D01*
X114806Y463717D01*
X113165Y467677D01*
X113165Y471963D01*
X114806Y475923D01*
X117837Y478954D01*
X121797Y480595D01*
X126083Y480595D01*
X130043Y478954D01*
X133074Y475923D01*
X134715Y471963D01*
X134715Y467677D01*
X133074Y463717D01*
X130043Y460686D01*
X126083Y459045D01*
X121797Y459045D01*
G37*
%LPD*%
%LPC*%
G36*
X680597Y458795D02*
X680597Y458795D01*
X676637Y460436D01*
X673606Y463467D01*
X671965Y467427D01*
X671965Y471713D01*
X673606Y475673D01*
X676637Y478704D01*
X680597Y480345D01*
X684883Y480345D01*
X688843Y478704D01*
X691874Y475673D01*
X693515Y471713D01*
X693515Y467427D01*
X691874Y463467D01*
X688843Y460436D01*
X684883Y458795D01*
X680597Y458795D01*
G37*
%LPD*%
%LPC*%
G36*
X655197Y458795D02*
X655197Y458795D01*
X651237Y460436D01*
X648206Y463467D01*
X646565Y467427D01*
X646565Y471713D01*
X648206Y475673D01*
X651237Y478704D01*
X655197Y480345D01*
X659483Y480345D01*
X663443Y478704D01*
X666474Y475673D01*
X668115Y471713D01*
X668115Y467427D01*
X666474Y463467D01*
X663443Y460436D01*
X659483Y458795D01*
X655197Y458795D01*
G37*
%LPD*%
%LPC*%
G36*
X604397Y448885D02*
X604397Y448885D01*
X600437Y450526D01*
X597406Y453557D01*
X595765Y457517D01*
X595765Y461803D01*
X597406Y465763D01*
X600437Y468794D01*
X604397Y470435D01*
X608683Y470435D01*
X612643Y468794D01*
X615674Y465763D01*
X617315Y461803D01*
X617315Y457517D01*
X615674Y453557D01*
X612643Y450526D01*
X608683Y448885D01*
X604397Y448885D01*
G37*
%LPD*%
%LPC*%
G36*
X655197Y433395D02*
X655197Y433395D01*
X651237Y435036D01*
X648206Y438067D01*
X646565Y442027D01*
X646565Y446313D01*
X648206Y450273D01*
X651237Y453304D01*
X655197Y454945D01*
X659483Y454945D01*
X663443Y453304D01*
X666474Y450273D01*
X668115Y446313D01*
X668115Y442027D01*
X666474Y438067D01*
X663443Y435036D01*
X659483Y433395D01*
X655197Y433395D01*
G37*
%LPD*%
%LPC*%
G36*
X655197Y255595D02*
X655197Y255595D01*
X651237Y257236D01*
X648206Y260267D01*
X646565Y264227D01*
X646565Y268513D01*
X648206Y272473D01*
X651237Y275504D01*
X655197Y277145D01*
X659483Y277145D01*
X663443Y275504D01*
X666474Y272473D01*
X668115Y268513D01*
X668115Y264227D01*
X666474Y260267D01*
X663443Y257236D01*
X659483Y255595D01*
X655197Y255595D01*
G37*
%LPD*%
%LPC*%
G36*
X45597Y408245D02*
X45597Y408245D01*
X41637Y409886D01*
X38606Y412917D01*
X36965Y416877D01*
X36965Y421163D01*
X38606Y425123D01*
X41637Y428154D01*
X45597Y429795D01*
X49883Y429795D01*
X53843Y428154D01*
X56874Y425123D01*
X58515Y421163D01*
X58515Y416877D01*
X56874Y412917D01*
X53843Y409886D01*
X49883Y408245D01*
X45597Y408245D01*
G37*
%LPD*%
%LPC*%
G36*
X604397Y382845D02*
X604397Y382845D01*
X600437Y384486D01*
X597406Y387517D01*
X595765Y391477D01*
X595765Y395763D01*
X597406Y399723D01*
X600437Y402754D01*
X604397Y404395D01*
X608683Y404395D01*
X612643Y402754D01*
X615674Y399723D01*
X617315Y395763D01*
X617315Y391477D01*
X615674Y387517D01*
X612643Y384486D01*
X608683Y382845D01*
X604397Y382845D01*
G37*
%LPD*%
%LPC*%
G36*
X45597Y382845D02*
X45597Y382845D01*
X41637Y384486D01*
X38606Y387517D01*
X36965Y391477D01*
X36965Y395763D01*
X38606Y399723D01*
X41637Y402754D01*
X45597Y404395D01*
X49883Y404395D01*
X53843Y402754D01*
X56874Y399723D01*
X58515Y395763D01*
X58515Y391477D01*
X56874Y387517D01*
X53843Y384486D01*
X49883Y382845D01*
X45597Y382845D01*
G37*
%LPD*%
%LPC*%
G36*
X655197Y382595D02*
X655197Y382595D01*
X651237Y384236D01*
X648206Y387267D01*
X646565Y391227D01*
X646565Y395513D01*
X648206Y399473D01*
X651237Y402504D01*
X655197Y404145D01*
X659483Y404145D01*
X663443Y402504D01*
X666474Y399473D01*
X668115Y395513D01*
X668115Y391227D01*
X666474Y387267D01*
X663443Y384236D01*
X659483Y382595D01*
X655197Y382595D01*
G37*
%LPD*%
%LPC*%
G36*
X680597Y382595D02*
X680597Y382595D01*
X676637Y384236D01*
X673606Y387267D01*
X671965Y391227D01*
X671965Y395513D01*
X673606Y399473D01*
X676637Y402504D01*
X680597Y404145D01*
X684883Y404145D01*
X688843Y402504D01*
X691874Y399473D01*
X693515Y395513D01*
X693515Y391227D01*
X691874Y387267D01*
X688843Y384236D01*
X684883Y382595D01*
X680597Y382595D01*
G37*
%LPD*%
%LPC*%
G36*
X45597Y357445D02*
X45597Y357445D01*
X41637Y359086D01*
X38606Y362117D01*
X36965Y366077D01*
X36965Y370363D01*
X38606Y374323D01*
X41637Y377354D01*
X45597Y378995D01*
X49883Y378995D01*
X53843Y377354D01*
X56874Y374323D01*
X58515Y370363D01*
X58515Y366077D01*
X56874Y362117D01*
X53843Y359086D01*
X49883Y357445D01*
X45597Y357445D01*
G37*
%LPD*%
%LPC*%
G36*
X655197Y357195D02*
X655197Y357195D01*
X651237Y358836D01*
X648206Y361867D01*
X646565Y365827D01*
X646565Y370113D01*
X648206Y374073D01*
X651237Y377104D01*
X655197Y378745D01*
X659483Y378745D01*
X663443Y377104D01*
X666474Y374073D01*
X668115Y370113D01*
X668115Y365827D01*
X666474Y361867D01*
X663443Y358836D01*
X659483Y357195D01*
X655197Y357195D01*
G37*
%LPD*%
%LPC*%
G36*
X680597Y357195D02*
X680597Y357195D01*
X676637Y358836D01*
X673606Y361867D01*
X671965Y365827D01*
X671965Y370113D01*
X673606Y374073D01*
X676637Y377104D01*
X680597Y378745D01*
X684883Y378745D01*
X688843Y377104D01*
X691874Y374073D01*
X693515Y370113D01*
X693515Y365827D01*
X691874Y361867D01*
X688843Y358836D01*
X684883Y357195D01*
X680597Y357195D01*
G37*
%LPD*%
%LPC*%
G36*
X604397Y332045D02*
X604397Y332045D01*
X600437Y333686D01*
X597406Y336717D01*
X595765Y340677D01*
X595765Y344963D01*
X597406Y348923D01*
X600437Y351954D01*
X604397Y353595D01*
X608683Y353595D01*
X612643Y351954D01*
X615674Y348923D01*
X617315Y344963D01*
X617315Y340677D01*
X615674Y336717D01*
X612643Y333686D01*
X608683Y332045D01*
X604397Y332045D01*
G37*
%LPD*%
%LPC*%
G36*
X45597Y332045D02*
X45597Y332045D01*
X41637Y333686D01*
X38606Y336717D01*
X36965Y340677D01*
X36965Y344963D01*
X38606Y348923D01*
X41637Y351954D01*
X45597Y353595D01*
X49883Y353595D01*
X53843Y351954D01*
X56874Y348923D01*
X58515Y344963D01*
X58515Y340677D01*
X56874Y336717D01*
X53843Y333686D01*
X49883Y332045D01*
X45597Y332045D01*
G37*
%LPD*%
%LPC*%
G36*
X655197Y331795D02*
X655197Y331795D01*
X651237Y333436D01*
X648206Y336467D01*
X646565Y340427D01*
X646565Y344713D01*
X648206Y348673D01*
X651237Y351704D01*
X655197Y353345D01*
X659483Y353345D01*
X663443Y351704D01*
X666474Y348673D01*
X668115Y344713D01*
X668115Y340427D01*
X666474Y336467D01*
X663443Y333436D01*
X659483Y331795D01*
X655197Y331795D01*
G37*
%LPD*%
%LPC*%
G36*
X680597Y331795D02*
X680597Y331795D01*
X676637Y333436D01*
X673606Y336467D01*
X671965Y340427D01*
X671965Y344713D01*
X673606Y348673D01*
X676637Y351704D01*
X680597Y353345D01*
X684883Y353345D01*
X688843Y351704D01*
X691874Y348673D01*
X693515Y344713D01*
X693515Y340427D01*
X691874Y336467D01*
X688843Y333436D01*
X684883Y331795D01*
X680597Y331795D01*
G37*
%LPD*%
%LPC*%
G36*
X121797Y306645D02*
X121797Y306645D01*
X117837Y308286D01*
X114806Y311317D01*
X113165Y315277D01*
X113165Y319563D01*
X114806Y323523D01*
X117837Y326554D01*
X121797Y328195D01*
X126083Y328195D01*
X130043Y326554D01*
X133074Y323523D01*
X134715Y319563D01*
X134715Y315277D01*
X133074Y311317D01*
X130043Y308286D01*
X126083Y306645D01*
X121797Y306645D01*
G37*
%LPD*%
%LPC*%
G36*
X45597Y306645D02*
X45597Y306645D01*
X41637Y308286D01*
X38606Y311317D01*
X36965Y315277D01*
X36965Y319563D01*
X38606Y323523D01*
X41637Y326554D01*
X45597Y328195D01*
X49883Y328195D01*
X53843Y326554D01*
X56874Y323523D01*
X58515Y319563D01*
X58515Y315277D01*
X56874Y311317D01*
X53843Y308286D01*
X49883Y306645D01*
X45597Y306645D01*
G37*
%LPD*%
%LPC*%
G36*
X70997Y306645D02*
X70997Y306645D01*
X67037Y308286D01*
X64006Y311317D01*
X62365Y315277D01*
X62365Y319563D01*
X64006Y323523D01*
X67037Y326554D01*
X70997Y328195D01*
X75283Y328195D01*
X79243Y326554D01*
X82274Y323523D01*
X83915Y319563D01*
X83915Y315277D01*
X82274Y311317D01*
X79243Y308286D01*
X75283Y306645D01*
X70997Y306645D01*
G37*
%LPD*%
%LPC*%
G36*
X70997Y281245D02*
X70997Y281245D01*
X67037Y282886D01*
X64006Y285917D01*
X62365Y289877D01*
X62365Y294163D01*
X64006Y298123D01*
X67037Y301154D01*
X70997Y302795D01*
X75283Y302795D01*
X79243Y301154D01*
X82274Y298123D01*
X83915Y294163D01*
X83915Y289877D01*
X82274Y285917D01*
X79243Y282886D01*
X75283Y281245D01*
X70997Y281245D01*
G37*
%LPD*%
%LPC*%
G36*
X121797Y281245D02*
X121797Y281245D01*
X117837Y282886D01*
X114806Y285917D01*
X113165Y289877D01*
X113165Y294163D01*
X114806Y298123D01*
X117837Y301154D01*
X121797Y302795D01*
X126083Y302795D01*
X130043Y301154D01*
X133074Y298123D01*
X134715Y294163D01*
X134715Y289877D01*
X133074Y285917D01*
X130043Y282886D01*
X126083Y281245D01*
X121797Y281245D01*
G37*
%LPD*%
%LPC*%
G36*
X45597Y281245D02*
X45597Y281245D01*
X41637Y282886D01*
X38606Y285917D01*
X36965Y289877D01*
X36965Y294163D01*
X38606Y298123D01*
X41637Y301154D01*
X45597Y302795D01*
X49883Y302795D01*
X53843Y301154D01*
X56874Y298123D01*
X58515Y294163D01*
X58515Y289877D01*
X56874Y285917D01*
X53843Y282886D01*
X49883Y281245D01*
X45597Y281245D01*
G37*
%LPD*%
%LPC*%
G36*
X604397Y255845D02*
X604397Y255845D01*
X600437Y257486D01*
X597406Y260517D01*
X595765Y264477D01*
X595765Y268763D01*
X597406Y272723D01*
X600437Y275754D01*
X604397Y277395D01*
X608683Y277395D01*
X612643Y275754D01*
X615674Y272723D01*
X617315Y268763D01*
X617315Y264477D01*
X615674Y260517D01*
X612643Y257486D01*
X608683Y255845D01*
X604397Y255845D01*
G37*
%LPD*%
%LPC*%
G36*
X450002Y344093D02*
X450002Y344093D01*
X446893Y347202D01*
X446893Y351598D01*
X449182Y353887D01*
X449235Y353961D01*
X449295Y354031D01*
X449307Y354061D01*
X449326Y354087D01*
X449353Y354174D01*
X449387Y354259D01*
X449391Y354300D01*
X449398Y354322D01*
X449397Y354354D01*
X449405Y354425D01*
X449405Y384875D01*
X449391Y384965D01*
X449383Y385056D01*
X449371Y385085D01*
X449366Y385117D01*
X449323Y385198D01*
X449287Y385282D01*
X449261Y385314D01*
X449250Y385335D01*
X449227Y385357D01*
X449182Y385413D01*
X446893Y387702D01*
X446893Y392098D01*
X450002Y395207D01*
X454398Y395207D01*
X457507Y392098D01*
X457507Y387702D01*
X455218Y385413D01*
X455165Y385339D01*
X455105Y385269D01*
X455093Y385239D01*
X455074Y385213D01*
X455047Y385126D01*
X455013Y385041D01*
X455009Y385000D01*
X455002Y384978D01*
X455003Y384946D01*
X454995Y384875D01*
X454995Y354425D01*
X455009Y354335D01*
X455017Y354244D01*
X455029Y354215D01*
X455034Y354183D01*
X455077Y354102D01*
X455113Y354018D01*
X455139Y353986D01*
X455150Y353965D01*
X455173Y353943D01*
X455218Y353887D01*
X457507Y351598D01*
X457507Y347202D01*
X454398Y344093D01*
X450002Y344093D01*
G37*
%LPD*%
%LPC*%
G36*
X296902Y669293D02*
X296902Y669293D01*
X293793Y672402D01*
X293793Y676798D01*
X295682Y678687D01*
X295735Y678761D01*
X295795Y678831D01*
X295807Y678861D01*
X295826Y678887D01*
X295853Y678974D01*
X295887Y679059D01*
X295891Y679100D01*
X295898Y679122D01*
X295897Y679154D01*
X295905Y679225D01*
X295905Y705475D01*
X295891Y705565D01*
X295883Y705656D01*
X295871Y705685D01*
X295866Y705717D01*
X295823Y705798D01*
X295787Y705882D01*
X295761Y705914D01*
X295750Y705935D01*
X295727Y705957D01*
X295682Y706013D01*
X293493Y708202D01*
X293493Y712598D01*
X296602Y715707D01*
X300998Y715707D01*
X304107Y712598D01*
X304107Y708202D01*
X301718Y705813D01*
X301665Y705739D01*
X301605Y705669D01*
X301593Y705639D01*
X301574Y705613D01*
X301547Y705526D01*
X301513Y705441D01*
X301509Y705400D01*
X301502Y705378D01*
X301503Y705346D01*
X301495Y705275D01*
X301495Y680025D01*
X301509Y679935D01*
X301517Y679844D01*
X301529Y679815D01*
X301534Y679783D01*
X301577Y679702D01*
X301613Y679618D01*
X301639Y679586D01*
X301650Y679565D01*
X301673Y679543D01*
X301718Y679487D01*
X304407Y676798D01*
X304407Y672402D01*
X301298Y669293D01*
X296902Y669293D01*
G37*
%LPD*%
%LPC*%
G36*
X523202Y523493D02*
X523202Y523493D01*
X520093Y526602D01*
X520093Y530998D01*
X522182Y533087D01*
X522235Y533161D01*
X522295Y533231D01*
X522307Y533261D01*
X522326Y533287D01*
X522353Y533374D01*
X522387Y533459D01*
X522391Y533500D01*
X522398Y533522D01*
X522397Y533554D01*
X522405Y533625D01*
X522405Y552875D01*
X522391Y552965D01*
X522383Y553056D01*
X522371Y553085D01*
X522366Y553117D01*
X522323Y553198D01*
X522287Y553282D01*
X522261Y553314D01*
X522250Y553335D01*
X522227Y553357D01*
X522182Y553413D01*
X519893Y555702D01*
X519893Y560098D01*
X523002Y563207D01*
X527398Y563207D01*
X530507Y560098D01*
X530507Y555702D01*
X528218Y553413D01*
X528165Y553339D01*
X528105Y553269D01*
X528093Y553239D01*
X528074Y553213D01*
X528047Y553126D01*
X528013Y553041D01*
X528009Y553000D01*
X528002Y552978D01*
X528003Y552946D01*
X527995Y552875D01*
X527995Y534025D01*
X528009Y533935D01*
X528017Y533844D01*
X528029Y533815D01*
X528034Y533783D01*
X528077Y533702D01*
X528113Y533618D01*
X528139Y533586D01*
X528150Y533565D01*
X528173Y533543D01*
X528218Y533487D01*
X530707Y530998D01*
X530707Y526602D01*
X527598Y523493D01*
X523202Y523493D01*
G37*
%LPD*%
%LPC*%
G36*
X627702Y592893D02*
X627702Y592893D01*
X624593Y596002D01*
X624593Y600398D01*
X626863Y602668D01*
X626909Y602732D01*
X626926Y602750D01*
X626930Y602759D01*
X626977Y602814D01*
X626989Y602843D01*
X627007Y602868D01*
X627034Y602956D01*
X627068Y603042D01*
X627072Y603081D01*
X627079Y603103D01*
X627078Y603135D01*
X627086Y603209D01*
X627025Y619258D01*
X627010Y619347D01*
X627003Y619436D01*
X626989Y619467D01*
X626984Y619501D01*
X626942Y619580D01*
X626906Y619663D01*
X626879Y619696D01*
X626868Y619718D01*
X626845Y619740D01*
X626802Y619794D01*
X624493Y622102D01*
X624493Y626498D01*
X627602Y629607D01*
X631998Y629607D01*
X635107Y626498D01*
X635107Y622102D01*
X632837Y619832D01*
X632783Y619757D01*
X632723Y619686D01*
X632711Y619657D01*
X632693Y619632D01*
X632666Y619544D01*
X632632Y619458D01*
X632628Y619419D01*
X632621Y619397D01*
X632622Y619365D01*
X632614Y619291D01*
X632675Y603242D01*
X632690Y603153D01*
X632697Y603064D01*
X632711Y603033D01*
X632716Y602999D01*
X632758Y602920D01*
X632794Y602837D01*
X632821Y602804D01*
X632832Y602782D01*
X632855Y602760D01*
X632898Y602706D01*
X635207Y600398D01*
X635207Y596002D01*
X632098Y592893D01*
X627702Y592893D01*
G37*
%LPD*%
%LPC*%
G36*
X328102Y366193D02*
X328102Y366193D01*
X324993Y369302D01*
X324993Y373906D01*
X324998Y373922D01*
X324997Y373954D01*
X325005Y374025D01*
X325005Y387875D01*
X324991Y387965D01*
X324983Y388056D01*
X324971Y388085D01*
X324966Y388117D01*
X324923Y388198D01*
X324887Y388282D01*
X324861Y388314D01*
X324850Y388335D01*
X324827Y388357D01*
X324782Y388413D01*
X322493Y390702D01*
X322493Y395098D01*
X325602Y398207D01*
X329998Y398207D01*
X333107Y395098D01*
X333107Y390702D01*
X330818Y388413D01*
X330765Y388339D01*
X330705Y388269D01*
X330693Y388239D01*
X330674Y388213D01*
X330647Y388126D01*
X330613Y388041D01*
X330609Y388000D01*
X330602Y387978D01*
X330603Y387946D01*
X330595Y387875D01*
X330595Y377568D01*
X330598Y377548D01*
X330596Y377529D01*
X330618Y377427D01*
X330634Y377325D01*
X330644Y377308D01*
X330648Y377288D01*
X330701Y377199D01*
X330750Y377108D01*
X330764Y377094D01*
X330774Y377077D01*
X330853Y377010D01*
X330928Y376938D01*
X330946Y376930D01*
X330961Y376917D01*
X331057Y376878D01*
X331151Y376835D01*
X331171Y376833D01*
X331189Y376825D01*
X331356Y376807D01*
X332498Y376807D01*
X335607Y373698D01*
X335607Y369302D01*
X332498Y366193D01*
X328102Y366193D01*
G37*
%LPD*%
%LPC*%
G36*
X195002Y478293D02*
X195002Y478293D01*
X191893Y481402D01*
X191893Y485798D01*
X195002Y488907D01*
X199398Y488907D01*
X201368Y486937D01*
X201442Y486884D01*
X201511Y486825D01*
X201541Y486813D01*
X201567Y486794D01*
X201654Y486767D01*
X201739Y486733D01*
X201780Y486728D01*
X201802Y486721D01*
X201835Y486722D01*
X201906Y486714D01*
X213470Y486714D01*
X213560Y486729D01*
X213651Y486736D01*
X213681Y486749D01*
X213713Y486754D01*
X213794Y486797D01*
X213877Y486832D01*
X213909Y486858D01*
X213930Y486869D01*
X213952Y486892D01*
X214008Y486937D01*
X216278Y489207D01*
X220674Y489207D01*
X223783Y486098D01*
X223783Y481702D01*
X220674Y478593D01*
X216278Y478593D01*
X213969Y480902D01*
X213895Y480955D01*
X213826Y481014D01*
X213796Y481026D01*
X213770Y481045D01*
X213683Y481072D01*
X213598Y481106D01*
X213557Y481111D01*
X213535Y481118D01*
X213502Y481117D01*
X213431Y481125D01*
X202545Y481125D01*
X202455Y481110D01*
X202364Y481103D01*
X202334Y481090D01*
X202302Y481085D01*
X202221Y481042D01*
X202138Y481007D01*
X202106Y480981D01*
X202085Y480970D01*
X202063Y480947D01*
X202007Y480902D01*
X199398Y478293D01*
X195002Y478293D01*
G37*
%LPD*%
%LPC*%
G36*
X639102Y324193D02*
X639102Y324193D01*
X636813Y326482D01*
X636739Y326535D01*
X636669Y326595D01*
X636639Y326607D01*
X636613Y326626D01*
X636526Y326653D01*
X636441Y326687D01*
X636400Y326691D01*
X636378Y326698D01*
X636346Y326697D01*
X636275Y326705D01*
X624125Y326705D01*
X624035Y326691D01*
X623944Y326683D01*
X623915Y326671D01*
X623883Y326666D01*
X623802Y326623D01*
X623718Y326587D01*
X623686Y326561D01*
X623665Y326550D01*
X623643Y326527D01*
X623587Y326482D01*
X622698Y325593D01*
X618302Y325593D01*
X615193Y328702D01*
X615193Y333098D01*
X618302Y336207D01*
X622698Y336207D01*
X625807Y333098D01*
X625807Y333056D01*
X625810Y333036D01*
X625808Y333017D01*
X625830Y332915D01*
X625846Y332813D01*
X625856Y332796D01*
X625860Y332776D01*
X625913Y332687D01*
X625962Y332596D01*
X625976Y332582D01*
X625986Y332565D01*
X626065Y332498D01*
X626140Y332426D01*
X626158Y332418D01*
X626173Y332405D01*
X626269Y332366D01*
X626363Y332323D01*
X626383Y332321D01*
X626401Y332313D01*
X626568Y332295D01*
X636275Y332295D01*
X636365Y332309D01*
X636456Y332317D01*
X636485Y332329D01*
X636517Y332334D01*
X636598Y332377D01*
X636682Y332413D01*
X636714Y332439D01*
X636735Y332450D01*
X636757Y332473D01*
X636813Y332518D01*
X639102Y334807D01*
X643498Y334807D01*
X646607Y331698D01*
X646607Y327302D01*
X643498Y324193D01*
X639102Y324193D01*
G37*
%LPD*%
%LPC*%
G36*
X289038Y434493D02*
X289038Y434493D01*
X285929Y437602D01*
X285929Y441998D01*
X289038Y445107D01*
X293434Y445107D01*
X296543Y441998D01*
X296543Y437602D01*
X293434Y434493D01*
X289038Y434493D01*
G37*
%LPD*%
%LPC*%
G36*
X74663Y598343D02*
X74663Y598343D01*
X74663Y608516D01*
X75901Y608320D01*
X77666Y607747D01*
X79320Y606904D01*
X80821Y605813D01*
X82133Y604501D01*
X83224Y603000D01*
X84067Y601346D01*
X84640Y599581D01*
X84836Y598343D01*
X74663Y598343D01*
G37*
%LPD*%
%LPC*%
G36*
X125463Y420543D02*
X125463Y420543D01*
X125463Y430716D01*
X126701Y430520D01*
X128466Y429947D01*
X130120Y429104D01*
X131621Y428013D01*
X132933Y426701D01*
X134024Y425200D01*
X134867Y423546D01*
X135440Y421781D01*
X135636Y420543D01*
X125463Y420543D01*
G37*
%LPD*%
%LPC*%
G36*
X125463Y445943D02*
X125463Y445943D01*
X125463Y456116D01*
X126701Y455920D01*
X128466Y455347D01*
X130120Y454504D01*
X131621Y453413D01*
X132933Y452101D01*
X134024Y450600D01*
X134867Y448946D01*
X135440Y447181D01*
X135636Y445943D01*
X125463Y445943D01*
G37*
%LPD*%
%LPC*%
G36*
X74663Y445943D02*
X74663Y445943D01*
X74663Y456116D01*
X75901Y455920D01*
X77666Y455347D01*
X79320Y454504D01*
X80821Y453413D01*
X82133Y452101D01*
X83224Y450600D01*
X84067Y448946D01*
X84640Y447181D01*
X84836Y445943D01*
X74663Y445943D01*
G37*
%LPD*%
%LPC*%
G36*
X74663Y420543D02*
X74663Y420543D01*
X74663Y430716D01*
X75901Y430520D01*
X77666Y429947D01*
X79320Y429104D01*
X80821Y428013D01*
X82133Y426701D01*
X83224Y425200D01*
X84067Y423546D01*
X84640Y421781D01*
X84836Y420543D01*
X74663Y420543D01*
G37*
%LPD*%
%LPC*%
G36*
X49263Y445943D02*
X49263Y445943D01*
X49263Y456116D01*
X50501Y455920D01*
X52266Y455347D01*
X53920Y454504D01*
X55421Y453413D01*
X56733Y452101D01*
X57824Y450600D01*
X58667Y448946D01*
X59240Y447181D01*
X59436Y445943D01*
X49263Y445943D01*
G37*
%LPD*%
%LPC*%
G36*
X658863Y572693D02*
X658863Y572693D01*
X658863Y582867D01*
X660101Y582670D01*
X661866Y582097D01*
X663520Y581254D01*
X665021Y580164D01*
X666333Y578851D01*
X667424Y577350D01*
X668267Y575696D01*
X668840Y573931D01*
X669036Y572693D01*
X658863Y572693D01*
G37*
%LPD*%
%LPC*%
G36*
X684263Y445693D02*
X684263Y445693D01*
X684263Y455867D01*
X685501Y455670D01*
X687266Y455097D01*
X688920Y454254D01*
X690421Y453164D01*
X691733Y451851D01*
X692824Y450350D01*
X693667Y448696D01*
X694240Y446931D01*
X694436Y445693D01*
X684263Y445693D01*
G37*
%LPD*%
%LPC*%
G36*
X608063Y588183D02*
X608063Y588183D01*
X608063Y598356D01*
X609301Y598160D01*
X611066Y597587D01*
X612720Y596744D01*
X614221Y595653D01*
X615533Y594341D01*
X616624Y592840D01*
X617467Y591186D01*
X618040Y589421D01*
X618236Y588183D01*
X608063Y588183D01*
G37*
%LPD*%
%LPC*%
G36*
X61444Y598343D02*
X61444Y598343D01*
X61640Y599581D01*
X62213Y601346D01*
X63056Y603000D01*
X64147Y604501D01*
X65459Y605813D01*
X66960Y606904D01*
X68614Y607747D01*
X70379Y608320D01*
X71617Y608516D01*
X71617Y598343D01*
X61444Y598343D01*
G37*
%LPD*%
%LPC*%
G36*
X671044Y445693D02*
X671044Y445693D01*
X671240Y446931D01*
X671813Y448696D01*
X672656Y450350D01*
X673747Y451851D01*
X675059Y453164D01*
X676560Y454254D01*
X678214Y455097D01*
X679979Y455670D01*
X681217Y455867D01*
X681217Y445693D01*
X671044Y445693D01*
G37*
%LPD*%
%LPC*%
G36*
X61444Y445943D02*
X61444Y445943D01*
X61640Y447181D01*
X62213Y448946D01*
X63056Y450600D01*
X64147Y452101D01*
X65459Y453413D01*
X66960Y454504D01*
X68614Y455347D01*
X70379Y455920D01*
X71617Y456116D01*
X71617Y445943D01*
X61444Y445943D01*
G37*
%LPD*%
%LPC*%
G36*
X658863Y569647D02*
X658863Y569647D01*
X669036Y569647D01*
X668840Y568409D01*
X668267Y566644D01*
X667424Y564990D01*
X666333Y563489D01*
X665021Y562177D01*
X663520Y561086D01*
X661866Y560243D01*
X660101Y559670D01*
X658863Y559474D01*
X658863Y569647D01*
G37*
%LPD*%
%LPC*%
G36*
X608063Y585137D02*
X608063Y585137D01*
X618236Y585137D01*
X618040Y583899D01*
X617467Y582134D01*
X616624Y580480D01*
X615533Y578979D01*
X614221Y577667D01*
X612720Y576576D01*
X611066Y575733D01*
X609301Y575160D01*
X608063Y574964D01*
X608063Y585137D01*
G37*
%LPD*%
%LPC*%
G36*
X645644Y572693D02*
X645644Y572693D01*
X645840Y573931D01*
X646413Y575696D01*
X647256Y577350D01*
X648347Y578851D01*
X649659Y580164D01*
X651160Y581254D01*
X652814Y582097D01*
X654579Y582670D01*
X655817Y582867D01*
X655817Y572693D01*
X645644Y572693D01*
G37*
%LPD*%
%LPC*%
G36*
X684263Y442647D02*
X684263Y442647D01*
X694436Y442647D01*
X694240Y441409D01*
X693667Y439644D01*
X692824Y437990D01*
X691733Y436489D01*
X690421Y435177D01*
X688920Y434086D01*
X687266Y433243D01*
X685501Y432670D01*
X684263Y432474D01*
X684263Y442647D01*
G37*
%LPD*%
%LPC*%
G36*
X112244Y445943D02*
X112244Y445943D01*
X112440Y447181D01*
X113013Y448946D01*
X113856Y450600D01*
X114947Y452101D01*
X116259Y453413D01*
X117760Y454504D01*
X119414Y455347D01*
X121179Y455920D01*
X122417Y456116D01*
X122417Y445943D01*
X112244Y445943D01*
G37*
%LPD*%
%LPC*%
G36*
X61444Y420543D02*
X61444Y420543D01*
X61640Y421781D01*
X62213Y423546D01*
X63056Y425200D01*
X64147Y426701D01*
X65459Y428013D01*
X66960Y429104D01*
X68614Y429947D01*
X70379Y430520D01*
X71617Y430716D01*
X71617Y420543D01*
X61444Y420543D01*
G37*
%LPD*%
%LPC*%
G36*
X74663Y595297D02*
X74663Y595297D01*
X84836Y595297D01*
X84640Y594059D01*
X84067Y592294D01*
X83224Y590640D01*
X82133Y589139D01*
X80821Y587827D01*
X79320Y586736D01*
X77666Y585893D01*
X75901Y585320D01*
X74663Y585124D01*
X74663Y595297D01*
G37*
%LPD*%
%LPC*%
G36*
X112244Y420543D02*
X112244Y420543D01*
X112440Y421781D01*
X113013Y423546D01*
X113856Y425200D01*
X114947Y426701D01*
X116259Y428013D01*
X117760Y429104D01*
X119414Y429947D01*
X121179Y430520D01*
X122417Y430716D01*
X122417Y420543D01*
X112244Y420543D01*
G37*
%LPD*%
%LPC*%
G36*
X36044Y445943D02*
X36044Y445943D01*
X36240Y447181D01*
X36813Y448946D01*
X37656Y450600D01*
X38747Y452101D01*
X40059Y453413D01*
X41560Y454504D01*
X43214Y455347D01*
X44979Y455920D01*
X46217Y456116D01*
X46217Y445943D01*
X36044Y445943D01*
G37*
%LPD*%
%LPC*%
G36*
X74663Y417497D02*
X74663Y417497D01*
X84836Y417497D01*
X84640Y416259D01*
X84067Y414494D01*
X83224Y412840D01*
X82133Y411339D01*
X80821Y410027D01*
X79320Y408936D01*
X77666Y408093D01*
X75901Y407520D01*
X74663Y407324D01*
X74663Y417497D01*
G37*
%LPD*%
%LPC*%
G36*
X125463Y417497D02*
X125463Y417497D01*
X135636Y417497D01*
X135440Y416259D01*
X134867Y414494D01*
X134024Y412840D01*
X132933Y411339D01*
X131621Y410027D01*
X130120Y408936D01*
X128466Y408093D01*
X126701Y407520D01*
X125463Y407324D01*
X125463Y417497D01*
G37*
%LPD*%
%LPC*%
G36*
X125463Y442897D02*
X125463Y442897D01*
X135636Y442897D01*
X135440Y441659D01*
X134867Y439894D01*
X134024Y438240D01*
X132933Y436739D01*
X131621Y435427D01*
X130120Y434336D01*
X128466Y433493D01*
X126701Y432920D01*
X125463Y432724D01*
X125463Y442897D01*
G37*
%LPD*%
%LPC*%
G36*
X74663Y442897D02*
X74663Y442897D01*
X84836Y442897D01*
X84640Y441659D01*
X84067Y439894D01*
X83224Y438240D01*
X82133Y436739D01*
X80821Y435427D01*
X79320Y434336D01*
X77666Y433493D01*
X75901Y432920D01*
X74663Y432724D01*
X74663Y442897D01*
G37*
%LPD*%
%LPC*%
G36*
X49263Y442897D02*
X49263Y442897D01*
X59436Y442897D01*
X59240Y441659D01*
X58667Y439894D01*
X57824Y438240D01*
X56733Y436739D01*
X55421Y435427D01*
X53920Y434336D01*
X52266Y433493D01*
X50501Y432920D01*
X49263Y432724D01*
X49263Y442897D01*
G37*
%LPD*%
%LPC*%
G36*
X594844Y588183D02*
X594844Y588183D01*
X595040Y589421D01*
X595613Y591186D01*
X596456Y592840D01*
X597547Y594341D01*
X598859Y595653D01*
X600360Y596744D01*
X602014Y597587D01*
X603779Y598160D01*
X605017Y598356D01*
X605017Y588183D01*
X594844Y588183D01*
G37*
%LPD*%
%LPC*%
G36*
X70379Y585320D02*
X70379Y585320D01*
X68614Y585893D01*
X66960Y586736D01*
X65459Y587827D01*
X64147Y589139D01*
X63056Y590640D01*
X62213Y592294D01*
X61640Y594059D01*
X61444Y595297D01*
X71617Y595297D01*
X71617Y585124D01*
X70379Y585320D01*
G37*
%LPD*%
%LPC*%
G36*
X44979Y432920D02*
X44979Y432920D01*
X43214Y433493D01*
X41560Y434336D01*
X40059Y435427D01*
X38747Y436739D01*
X37656Y438240D01*
X36813Y439894D01*
X36240Y441659D01*
X36044Y442897D01*
X46217Y442897D01*
X46217Y432724D01*
X44979Y432920D01*
G37*
%LPD*%
%LPC*%
G36*
X70379Y407520D02*
X70379Y407520D01*
X68614Y408093D01*
X66960Y408936D01*
X65459Y410027D01*
X64147Y411339D01*
X63056Y412840D01*
X62213Y414494D01*
X61640Y416259D01*
X61444Y417497D01*
X71617Y417497D01*
X71617Y407324D01*
X70379Y407520D01*
G37*
%LPD*%
%LPC*%
G36*
X679979Y432670D02*
X679979Y432670D01*
X678214Y433243D01*
X676560Y434086D01*
X675059Y435177D01*
X673747Y436489D01*
X672656Y437990D01*
X671813Y439644D01*
X671240Y441409D01*
X671044Y442647D01*
X681217Y442647D01*
X681217Y432474D01*
X679979Y432670D01*
G37*
%LPD*%
%LPC*%
G36*
X654579Y559670D02*
X654579Y559670D01*
X652814Y560243D01*
X651160Y561086D01*
X649659Y562177D01*
X648347Y563489D01*
X647256Y564990D01*
X646413Y566644D01*
X645840Y568409D01*
X645644Y569647D01*
X655817Y569647D01*
X655817Y559474D01*
X654579Y559670D01*
G37*
%LPD*%
%LPC*%
G36*
X70379Y432920D02*
X70379Y432920D01*
X68614Y433493D01*
X66960Y434336D01*
X65459Y435427D01*
X64147Y436739D01*
X63056Y438240D01*
X62213Y439894D01*
X61640Y441659D01*
X61444Y442897D01*
X71617Y442897D01*
X71617Y432724D01*
X70379Y432920D01*
G37*
%LPD*%
%LPC*%
G36*
X603779Y575160D02*
X603779Y575160D01*
X602014Y575733D01*
X600360Y576576D01*
X598859Y577667D01*
X597547Y578979D01*
X596456Y580480D01*
X595613Y582134D01*
X595040Y583899D01*
X594844Y585137D01*
X605017Y585137D01*
X605017Y574964D01*
X603779Y575160D01*
G37*
%LPD*%
%LPC*%
G36*
X121179Y407520D02*
X121179Y407520D01*
X119414Y408093D01*
X117760Y408936D01*
X116259Y410027D01*
X114947Y411339D01*
X113856Y412840D01*
X113013Y414494D01*
X112440Y416259D01*
X112244Y417497D01*
X122417Y417497D01*
X122417Y407324D01*
X121179Y407520D01*
G37*
%LPD*%
%LPC*%
G36*
X121179Y432920D02*
X121179Y432920D01*
X119414Y433493D01*
X117760Y434336D01*
X116259Y435427D01*
X114947Y436739D01*
X113856Y438240D01*
X113013Y439894D01*
X112440Y441659D01*
X112244Y442897D01*
X122417Y442897D01*
X122417Y432724D01*
X121179Y432920D01*
G37*
%LPD*%
%LPC*%
G36*
X73139Y596819D02*
X73139Y596819D01*
X73139Y596821D01*
X73141Y596821D01*
X73141Y596819D01*
X73139Y596819D01*
G37*
%LPD*%
%LPC*%
G36*
X682739Y444169D02*
X682739Y444169D01*
X682739Y444171D01*
X682741Y444171D01*
X682741Y444169D01*
X682739Y444169D01*
G37*
%LPD*%
%LPC*%
G36*
X123939Y419019D02*
X123939Y419019D01*
X123939Y419021D01*
X123941Y419021D01*
X123941Y419019D01*
X123939Y419019D01*
G37*
%LPD*%
%LPC*%
G36*
X73139Y419019D02*
X73139Y419019D01*
X73139Y419021D01*
X73141Y419021D01*
X73141Y419019D01*
X73139Y419019D01*
G37*
%LPD*%
%LPC*%
G36*
X123939Y444419D02*
X123939Y444419D01*
X123939Y444421D01*
X123941Y444421D01*
X123941Y444419D01*
X123939Y444419D01*
G37*
%LPD*%
%LPC*%
G36*
X73139Y444419D02*
X73139Y444419D01*
X73139Y444421D01*
X73141Y444421D01*
X73141Y444419D01*
X73139Y444419D01*
G37*
%LPD*%
%LPC*%
G36*
X47739Y444419D02*
X47739Y444419D01*
X47739Y444421D01*
X47741Y444421D01*
X47741Y444419D01*
X47739Y444419D01*
G37*
%LPD*%
%LPC*%
G36*
X657339Y571169D02*
X657339Y571169D01*
X657339Y571171D01*
X657341Y571171D01*
X657341Y571169D01*
X657339Y571169D01*
G37*
%LPD*%
%LPC*%
G36*
X606539Y586659D02*
X606539Y586659D01*
X606539Y586661D01*
X606541Y586661D01*
X606541Y586659D01*
X606539Y586659D01*
G37*
%LPD*%
D10*
X573536Y107220D02*
X586744Y107220D01*
X586744Y132620D02*
X573536Y132620D01*
X537444Y145520D02*
X524236Y145520D01*
X524236Y94720D02*
X537444Y94720D01*
D11*
X123940Y342820D03*
D12*
X123940Y317420D03*
X123940Y292020D03*
X123940Y266620D03*
X123940Y241220D03*
X123940Y215820D03*
D11*
X123940Y571420D03*
D12*
X123940Y546020D03*
X123940Y520620D03*
X123940Y495220D03*
X123940Y469820D03*
X123940Y444420D03*
X123940Y419020D03*
X123940Y393620D03*
D11*
X47740Y673020D03*
D12*
X73140Y673020D03*
X47740Y647620D03*
X73140Y647620D03*
X47740Y622220D03*
X73140Y622220D03*
X47740Y596820D03*
X73140Y596820D03*
X47740Y571420D03*
X73140Y571420D03*
X47740Y546020D03*
X73140Y546020D03*
X47740Y520620D03*
X73140Y520620D03*
X47740Y495220D03*
X73140Y495220D03*
X47740Y469820D03*
X73140Y469820D03*
X47740Y444420D03*
X73140Y444420D03*
X47740Y419020D03*
X73140Y419020D03*
X47740Y393620D03*
X73140Y393620D03*
X47740Y368220D03*
X73140Y368220D03*
X47740Y342820D03*
X73140Y342820D03*
X47740Y317420D03*
X73140Y317420D03*
X47740Y292020D03*
X73140Y292020D03*
X47740Y266620D03*
X73140Y266620D03*
X47740Y241220D03*
X73140Y241220D03*
X47740Y215820D03*
X73140Y215820D03*
D11*
X606540Y434260D03*
D12*
X606540Y459660D03*
X606540Y485060D03*
X606540Y510460D03*
X606540Y535860D03*
X606540Y561260D03*
X606540Y586660D03*
X606540Y612060D03*
X606540Y637460D03*
X606540Y662860D03*
X606540Y266620D03*
X606540Y292020D03*
X606540Y317420D03*
X606540Y342820D03*
X606540Y368220D03*
X606540Y393620D03*
D11*
X606540Y215820D03*
D12*
X606540Y241220D03*
D11*
X657340Y672770D03*
D12*
X682740Y672770D03*
X657340Y647370D03*
X682740Y647370D03*
X657340Y621970D03*
X682740Y621970D03*
X657340Y596570D03*
X682740Y596570D03*
X657340Y571170D03*
X682740Y571170D03*
X657340Y545770D03*
X682740Y545770D03*
X657340Y520370D03*
X682740Y520370D03*
X657340Y494970D03*
X682740Y494970D03*
X657340Y469570D03*
X682740Y469570D03*
X657340Y444170D03*
X682740Y444170D03*
X657340Y418770D03*
X682740Y418770D03*
X657340Y393370D03*
X682740Y393370D03*
X657340Y367970D03*
X682740Y367970D03*
X657340Y342570D03*
X682740Y342570D03*
X657340Y317170D03*
X682740Y317170D03*
X657340Y291770D03*
X682740Y291770D03*
X657340Y266370D03*
X682740Y266370D03*
X657340Y240970D03*
X682740Y240970D03*
X657340Y215570D03*
X682740Y215570D03*
D13*
X501300Y623500D03*
X360000Y466000D03*
X372400Y529000D03*
X329500Y500300D03*
X308900Y485900D03*
X278900Y443600D03*
X303400Y419400D03*
X313600Y417500D03*
X352600Y390000D03*
X386400Y409500D03*
X233700Y451900D03*
X287800Y468500D03*
X186900Y399700D03*
X490100Y676000D03*
X544200Y635500D03*
X574300Y727400D03*
X565500Y745800D03*
X228000Y358000D03*
X278000Y364000D03*
X81800Y380800D03*
D14*
X137400Y380800D01*
X137500Y380900D01*
D13*
X137500Y380900D03*
X629900Y598200D03*
D14*
X629800Y624300D01*
D13*
X629800Y624300D03*
X150100Y260900D03*
X524100Y310900D03*
X289800Y582000D03*
D14*
X289800Y599011D01*
X289700Y598900D01*
D13*
X289700Y598900D03*
D14*
X390131Y261019D02*
X465149Y261040D01*
X390131Y261019D02*
X150100Y260900D01*
X523991Y310609D02*
X524100Y310900D01*
X523991Y310609D02*
X465149Y261040D01*
D13*
X211800Y405486D03*
D14*
X211700Y405801D01*
X211700Y447076D02*
X211900Y451224D01*
X211700Y447076D02*
X211700Y405801D01*
D13*
X211900Y451224D03*
X415200Y328700D03*
D14*
X415200Y327627D01*
X400000Y342323D01*
X400000Y344000D01*
D13*
X400000Y344000D03*
X305800Y344200D03*
D14*
X305700Y391700D01*
X308900Y394900D01*
D13*
X308900Y394900D03*
X327800Y392900D03*
D14*
X327800Y374000D01*
X330300Y371500D01*
D13*
X330300Y371500D03*
X405200Y370200D03*
D14*
X405352Y370035D01*
X405507Y350593D02*
X428800Y327300D01*
X507400Y327300D01*
X405507Y350593D02*
X405352Y370035D01*
D13*
X507400Y327300D03*
X280700Y429500D03*
D14*
X290700Y419500D01*
X290700Y347600D01*
D13*
X290700Y347600D03*
X239400Y323000D03*
X256100Y429900D03*
D14*
X238700Y323700D02*
X239400Y323000D01*
X238700Y412500D02*
X256100Y429900D01*
X238700Y412500D02*
X238700Y323700D01*
D13*
X409400Y552200D03*
D14*
X409400Y565476D01*
X343876Y631000D01*
D13*
X147400Y595600D03*
D14*
X182600Y630800D01*
X182600Y631000D01*
X343876Y631000D01*
D13*
X366300Y641700D03*
D14*
X249038Y641900D01*
X249038Y642076D01*
D13*
X249038Y642076D03*
X525400Y528800D03*
D14*
X525200Y529929D02*
X525200Y557900D01*
X525200Y529929D02*
X525400Y528800D01*
D13*
X525200Y557900D03*
X638000Y369900D03*
D14*
X637400Y369300D01*
X620800Y369300D01*
D13*
X620800Y369300D03*
X291236Y439800D03*
X298600Y614900D03*
D14*
X298166Y544700D01*
X298166Y544200D01*
X298219Y481900D02*
X298800Y481900D01*
X298219Y481900D02*
X298166Y544200D01*
D13*
X298800Y481900D03*
X299100Y674600D03*
D14*
X298700Y675000D02*
X298700Y709600D01*
X298700Y675000D02*
X299100Y674600D01*
X298700Y709600D02*
X299200Y710100D01*
D13*
X298800Y710400D03*
D14*
X299200Y710100D01*
D13*
X218476Y483900D03*
D14*
X218457Y483919D01*
X197593Y483920D01*
D13*
X197200Y483600D03*
D14*
X197593Y483920D01*
D13*
X385748Y513866D03*
D14*
X380623Y513866D01*
X374115Y520374D01*
X345000Y520400D01*
X339999Y503211D01*
X339100Y504110D01*
D13*
X339100Y504110D03*
X404300Y512800D03*
D14*
X397934Y513966D01*
X385848Y513966D01*
X385748Y513866D01*
D13*
X146200Y507300D03*
D14*
X146200Y443375D01*
X146304Y442955D01*
X146325Y433925D01*
X146400Y427600D01*
D13*
X146400Y427600D03*
X483700Y469800D03*
D14*
X477637Y469800D01*
X325416Y317136D01*
X273096Y317496D01*
X272900Y317300D01*
D13*
X272900Y317300D03*
X587900Y509300D03*
D14*
X587646Y305220D02*
X587607Y304647D01*
X587646Y509046D02*
X587900Y509300D01*
X587646Y509046D02*
X587646Y305220D01*
X700977Y304647D02*
X701006Y304618D01*
X700977Y304647D02*
X587607Y304647D01*
D13*
X701006Y304618D03*
X442400Y447300D03*
D14*
X426200Y431100D01*
X417000Y431100D01*
X417000Y566500D02*
X348000Y635500D01*
X131600Y635500D01*
X91500Y447192D02*
X91500Y404200D01*
X91500Y447192D02*
X91507Y447193D01*
X91507Y595407D02*
X131600Y635500D01*
X91507Y595407D02*
X91507Y447193D01*
D13*
X91500Y404200D03*
D14*
X417000Y431100D02*
X417000Y566500D01*
D13*
X61066Y354872D03*
D14*
X85985Y355123D02*
X142497Y355169D01*
X85985Y355123D02*
X85886Y355013D01*
X61066Y354872D01*
X142497Y355169D02*
X142536Y291336D01*
X495500Y471500D02*
X495500Y491000D01*
X427600Y446200D02*
X424700Y442300D01*
D13*
X424700Y442300D03*
D14*
X495500Y471500D02*
X315600Y291600D01*
X472400Y491000D02*
X495500Y491000D01*
X472400Y491000D02*
X427600Y446200D01*
X142800Y291600D02*
X142536Y291336D01*
X142800Y291600D02*
X315600Y291600D01*
D13*
X506200Y433400D03*
D14*
X569400Y433400D01*
X577400Y425400D01*
X577400Y235200D01*
X559925Y217725D01*
X103400Y218500D02*
X103400Y193500D01*
D13*
X103400Y218500D03*
D14*
X442830Y217725D02*
X559925Y217725D01*
X418605Y193500D02*
X103400Y193500D01*
X418605Y193500D02*
X442830Y217725D01*
D13*
X641300Y329500D03*
D14*
X621900Y329500D01*
X620500Y330900D01*
D13*
X620500Y330900D03*
X567400Y451900D03*
D14*
X567300Y452000D01*
X567300Y521100D01*
D13*
X567300Y521100D03*
X540400Y373200D03*
D14*
X496900Y373164D01*
X482361Y373079D01*
X482509Y372600D01*
X482509Y358091D01*
X482700Y357900D01*
D13*
X482700Y357900D03*
X452200Y349400D03*
D14*
X452200Y348615D01*
X452200Y349400D02*
X452200Y389900D01*
D13*
X452200Y389900D03*
X616400Y413600D03*
D14*
X616900Y414100D02*
X641700Y414100D01*
X616900Y414100D02*
X616400Y413600D01*
X641850Y414250D02*
X642650Y414250D01*
X641850Y414250D02*
X641700Y414100D01*
D13*
X642650Y414250D03*
M02*
