G04 EAGLE Gerber RS-274X export*
G75*
%MOMM*%
%FSLAX34Y34*%
%LPD*%
%INSoldermask Top*%
%IPPOS*%
%AMOC8*
5,1,8,0,0,1.08239X$1,22.5*%
G01*
%ADD10R,1.503200X1.703200*%
%ADD11R,1.703200X1.503200*%
%ADD12C,1.524000*%
%ADD13R,1.100000X0.675000*%
%ADD14C,2.503200*%
%ADD15R,2.053200X2.053200*%
%ADD16C,2.053200*%
%ADD17C,3.378200*%
%ADD18R,5.283200X1.981200*%
%ADD19R,1.503200X1.803200*%
%ADD20R,1.803200X1.503200*%
%ADD21C,1.473200*%
%ADD22C,0.313166*%
%ADD23R,4.353200X4.353200*%


D10*
X500040Y660680D03*
X519040Y660680D03*
X452780Y406400D03*
X471780Y406400D03*
X196240Y358140D03*
X215240Y358140D03*
D11*
X186860Y431820D03*
X186860Y412820D03*
X276860Y400660D03*
X276860Y381660D03*
D10*
X264540Y452160D03*
X245540Y452160D03*
X244940Y561940D03*
X263940Y561940D03*
X435420Y675800D03*
X454420Y675800D03*
X500480Y725540D03*
X481480Y725540D03*
X529440Y727340D03*
X548440Y727340D03*
D12*
X573536Y107220D02*
X586744Y107220D01*
X586744Y132620D02*
X573536Y132620D01*
X537444Y145520D02*
X524236Y145520D01*
X524236Y94720D02*
X537444Y94720D01*
D13*
X631512Y104739D03*
X638512Y134489D03*
D14*
X635012Y119614D03*
D15*
X123940Y342820D03*
D16*
X123940Y317420D03*
X123940Y292020D03*
X123940Y266620D03*
X123940Y241220D03*
X123940Y215820D03*
D15*
X123940Y571420D03*
D16*
X123940Y546020D03*
X123940Y520620D03*
X123940Y495220D03*
X123940Y469820D03*
X123940Y444420D03*
X123940Y419020D03*
X123940Y393620D03*
D15*
X47740Y673020D03*
D16*
X73140Y673020D03*
X47740Y647620D03*
X73140Y647620D03*
X47740Y622220D03*
X73140Y622220D03*
X47740Y596820D03*
X73140Y596820D03*
X47740Y571420D03*
X73140Y571420D03*
X47740Y546020D03*
X73140Y546020D03*
X47740Y520620D03*
X73140Y520620D03*
X47740Y495220D03*
X73140Y495220D03*
X47740Y469820D03*
X73140Y469820D03*
X47740Y444420D03*
X73140Y444420D03*
X47740Y419020D03*
X73140Y419020D03*
X47740Y393620D03*
X73140Y393620D03*
X47740Y368220D03*
X73140Y368220D03*
X47740Y342820D03*
X73140Y342820D03*
X47740Y317420D03*
X73140Y317420D03*
X47740Y292020D03*
X73140Y292020D03*
X47740Y266620D03*
X73140Y266620D03*
X47740Y241220D03*
X73140Y241220D03*
X47740Y215820D03*
X73140Y215820D03*
D15*
X606540Y434260D03*
D16*
X606540Y459660D03*
X606540Y485060D03*
X606540Y510460D03*
X606540Y535860D03*
X606540Y561260D03*
X606540Y586660D03*
X606540Y612060D03*
X606540Y637460D03*
X606540Y662860D03*
X606540Y266620D03*
X606540Y292020D03*
X606540Y317420D03*
X606540Y342820D03*
X606540Y368220D03*
X606540Y393620D03*
D15*
X606540Y215820D03*
D16*
X606540Y241220D03*
D15*
X657340Y672770D03*
D16*
X682740Y672770D03*
X657340Y647370D03*
X682740Y647370D03*
X657340Y621970D03*
X682740Y621970D03*
X657340Y596570D03*
X682740Y596570D03*
X657340Y571170D03*
X682740Y571170D03*
X657340Y545770D03*
X682740Y545770D03*
X657340Y520370D03*
X682740Y520370D03*
X657340Y494970D03*
X682740Y494970D03*
X657340Y469570D03*
X682740Y469570D03*
X657340Y444170D03*
X682740Y444170D03*
X657340Y418770D03*
X682740Y418770D03*
X657340Y393370D03*
X682740Y393370D03*
X657340Y367970D03*
X682740Y367970D03*
X657340Y342570D03*
X682740Y342570D03*
X657340Y317170D03*
X682740Y317170D03*
X657340Y291770D03*
X682740Y291770D03*
X657340Y266370D03*
X682740Y266370D03*
X657340Y240970D03*
X682740Y240970D03*
X657340Y215570D03*
X682740Y215570D03*
D17*
X606540Y698420D03*
X123940Y711120D03*
X454140Y190420D03*
D18*
X298820Y753240D03*
X202300Y753240D03*
D19*
X318040Y653960D03*
X299040Y653960D03*
X200960Y323280D03*
X181960Y323280D03*
D20*
X196900Y534400D03*
X196900Y553400D03*
X147140Y573140D03*
X147140Y554140D03*
D19*
X216900Y659120D03*
X197900Y659120D03*
X565880Y591520D03*
X584880Y591520D03*
X544260Y540140D03*
X563260Y540140D03*
X389960Y675640D03*
X408960Y675640D03*
X177840Y702720D03*
X196840Y702720D03*
X226840Y689680D03*
X245840Y689680D03*
X524600Y349200D03*
X505600Y349200D03*
X360600Y357900D03*
X379600Y357900D03*
X476880Y311520D03*
X495880Y311520D03*
X517020Y274780D03*
X536020Y274780D03*
D20*
X268140Y526480D03*
X268140Y507480D03*
X329020Y307780D03*
X329020Y288780D03*
D21*
X153720Y687960D03*
X146800Y524260D03*
X153500Y278860D03*
X197400Y578100D03*
X263846Y479470D03*
X328920Y272260D03*
D22*
X328210Y476690D02*
X333110Y476690D01*
X328210Y476690D02*
X328210Y477790D01*
X333110Y477790D01*
X333110Y476690D01*
X333110Y471690D02*
X328210Y471690D01*
X328210Y472790D01*
X333110Y472790D01*
X333110Y471690D01*
X333110Y466690D02*
X328210Y466690D01*
X328210Y467790D01*
X333110Y467790D01*
X333110Y466690D01*
X333110Y461690D02*
X328210Y461690D01*
X328210Y462790D01*
X333110Y462790D01*
X333110Y461690D01*
X333110Y456690D02*
X328210Y456690D01*
X328210Y457790D01*
X333110Y457790D01*
X333110Y456690D01*
X333110Y451690D02*
X328210Y451690D01*
X328210Y452790D01*
X333110Y452790D01*
X333110Y451690D01*
X333110Y446690D02*
X328210Y446690D01*
X328210Y447790D01*
X333110Y447790D01*
X333110Y446690D01*
X333110Y441690D02*
X328210Y441690D01*
X328210Y442790D01*
X333110Y442790D01*
X333110Y441690D01*
X333110Y436690D02*
X328210Y436690D01*
X328210Y437790D01*
X333110Y437790D01*
X333110Y436690D01*
X337460Y432940D02*
X337460Y428040D01*
X336360Y428040D01*
X336360Y432940D01*
X337460Y432940D01*
X337460Y431015D02*
X336360Y431015D01*
X342460Y432940D02*
X342460Y428040D01*
X341360Y428040D01*
X341360Y432940D01*
X342460Y432940D01*
X342460Y431015D02*
X341360Y431015D01*
X347460Y432940D02*
X347460Y428040D01*
X346360Y428040D01*
X346360Y432940D01*
X347460Y432940D01*
X347460Y431015D02*
X346360Y431015D01*
X352460Y432940D02*
X352460Y428040D01*
X351360Y428040D01*
X351360Y432940D01*
X352460Y432940D01*
X352460Y431015D02*
X351360Y431015D01*
X357460Y432940D02*
X357460Y428040D01*
X356360Y428040D01*
X356360Y432940D01*
X357460Y432940D01*
X357460Y431015D02*
X356360Y431015D01*
X362460Y432940D02*
X362460Y428040D01*
X361360Y428040D01*
X361360Y432940D01*
X362460Y432940D01*
X362460Y431015D02*
X361360Y431015D01*
X367460Y432940D02*
X367460Y428040D01*
X366360Y428040D01*
X366360Y432940D01*
X367460Y432940D01*
X367460Y431015D02*
X366360Y431015D01*
X372460Y432940D02*
X372460Y428040D01*
X371360Y428040D01*
X371360Y432940D01*
X372460Y432940D01*
X372460Y431015D02*
X371360Y431015D01*
X377460Y432940D02*
X377460Y428040D01*
X376360Y428040D01*
X376360Y432940D01*
X377460Y432940D01*
X377460Y431015D02*
X376360Y431015D01*
X382460Y432940D02*
X382460Y428040D01*
X381360Y428040D01*
X381360Y432940D01*
X382460Y432940D01*
X382460Y431015D02*
X381360Y431015D01*
X386210Y481690D02*
X391110Y481690D01*
X386210Y481690D02*
X386210Y482790D01*
X391110Y482790D01*
X391110Y481690D01*
X391110Y476690D02*
X386210Y476690D01*
X386210Y477790D01*
X391110Y477790D01*
X391110Y476690D01*
X391110Y471690D02*
X386210Y471690D01*
X386210Y472790D01*
X391110Y472790D01*
X391110Y471690D01*
X391110Y466690D02*
X386210Y466690D01*
X386210Y467790D01*
X391110Y467790D01*
X391110Y466690D01*
X391110Y461690D02*
X386210Y461690D01*
X386210Y462790D01*
X391110Y462790D01*
X391110Y461690D01*
X391110Y456690D02*
X386210Y456690D01*
X386210Y457790D01*
X391110Y457790D01*
X391110Y456690D01*
X391110Y451690D02*
X386210Y451690D01*
X386210Y452790D01*
X391110Y452790D01*
X391110Y451690D01*
X391110Y446690D02*
X386210Y446690D01*
X386210Y447790D01*
X391110Y447790D01*
X391110Y446690D01*
X391110Y441690D02*
X386210Y441690D01*
X386210Y442790D01*
X391110Y442790D01*
X391110Y441690D01*
X391110Y436690D02*
X386210Y436690D01*
X386210Y437790D01*
X391110Y437790D01*
X391110Y436690D01*
X337460Y486040D02*
X337460Y490940D01*
X337460Y486040D02*
X336360Y486040D01*
X336360Y490940D01*
X337460Y490940D01*
X337460Y489015D02*
X336360Y489015D01*
X342460Y490940D02*
X342460Y486040D01*
X341360Y486040D01*
X341360Y490940D01*
X342460Y490940D01*
X342460Y489015D02*
X341360Y489015D01*
X347460Y490940D02*
X347460Y486040D01*
X346360Y486040D01*
X346360Y490940D01*
X347460Y490940D01*
X347460Y489015D02*
X346360Y489015D01*
X352460Y490940D02*
X352460Y486040D01*
X351360Y486040D01*
X351360Y490940D01*
X352460Y490940D01*
X352460Y489015D02*
X351360Y489015D01*
X357460Y490940D02*
X357460Y486040D01*
X356360Y486040D01*
X356360Y490940D01*
X357460Y490940D01*
X357460Y489015D02*
X356360Y489015D01*
X362460Y490940D02*
X362460Y486040D01*
X361360Y486040D01*
X361360Y490940D01*
X362460Y490940D01*
X362460Y489015D02*
X361360Y489015D01*
X367460Y490940D02*
X367460Y486040D01*
X366360Y486040D01*
X366360Y490940D01*
X367460Y490940D01*
X367460Y489015D02*
X366360Y489015D01*
X372460Y490940D02*
X372460Y486040D01*
X371360Y486040D01*
X371360Y490940D01*
X372460Y490940D01*
X372460Y489015D02*
X371360Y489015D01*
X377460Y490940D02*
X377460Y486040D01*
X376360Y486040D01*
X376360Y490940D01*
X377460Y490940D01*
X377460Y489015D02*
X376360Y489015D01*
X382460Y490940D02*
X382460Y486040D01*
X381360Y486040D01*
X381360Y490940D01*
X382460Y490940D01*
X382460Y489015D02*
X381360Y489015D01*
X333110Y481690D02*
X328210Y481690D01*
X328210Y482790D01*
X333110Y482790D01*
X333110Y481690D01*
D23*
X359410Y459740D03*
M02*
