G04 EAGLE Gerber RS-274X export*
G75*
%MOMM*%
%FSLAX34Y34*%
%LPD*%
%INSoldermask Bottom*%
%IPPOS*%
%AMOC8*
5,1,8,0,0,1.08239X$1,22.5*%
G01*
%ADD10C,1.524000*%
%ADD11C,2.503200*%
%ADD12R,2.053200X2.053200*%
%ADD13C,2.053200*%
%ADD14C,3.378200*%


D10*
X573536Y107220D02*
X586744Y107220D01*
X586744Y132620D02*
X573536Y132620D01*
X537444Y145520D02*
X524236Y145520D01*
X524236Y94720D02*
X537444Y94720D01*
D11*
X635012Y119614D03*
D12*
X123940Y342820D03*
D13*
X123940Y317420D03*
X123940Y292020D03*
X123940Y266620D03*
X123940Y241220D03*
X123940Y215820D03*
D12*
X123940Y571420D03*
D13*
X123940Y546020D03*
X123940Y520620D03*
X123940Y495220D03*
X123940Y469820D03*
X123940Y444420D03*
X123940Y419020D03*
X123940Y393620D03*
D12*
X47740Y673020D03*
D13*
X73140Y673020D03*
X47740Y647620D03*
X73140Y647620D03*
X47740Y622220D03*
X73140Y622220D03*
X47740Y596820D03*
X73140Y596820D03*
X47740Y571420D03*
X73140Y571420D03*
X47740Y546020D03*
X73140Y546020D03*
X47740Y520620D03*
X73140Y520620D03*
X47740Y495220D03*
X73140Y495220D03*
X47740Y469820D03*
X73140Y469820D03*
X47740Y444420D03*
X73140Y444420D03*
X47740Y419020D03*
X73140Y419020D03*
X47740Y393620D03*
X73140Y393620D03*
X47740Y368220D03*
X73140Y368220D03*
X47740Y342820D03*
X73140Y342820D03*
X47740Y317420D03*
X73140Y317420D03*
X47740Y292020D03*
X73140Y292020D03*
X47740Y266620D03*
X73140Y266620D03*
X47740Y241220D03*
X73140Y241220D03*
X47740Y215820D03*
X73140Y215820D03*
D12*
X606540Y434260D03*
D13*
X606540Y459660D03*
X606540Y485060D03*
X606540Y510460D03*
X606540Y535860D03*
X606540Y561260D03*
X606540Y586660D03*
X606540Y612060D03*
X606540Y637460D03*
X606540Y662860D03*
X606540Y266620D03*
X606540Y292020D03*
X606540Y317420D03*
X606540Y342820D03*
X606540Y368220D03*
X606540Y393620D03*
D12*
X606540Y215820D03*
D13*
X606540Y241220D03*
D12*
X657340Y672770D03*
D13*
X682740Y672770D03*
X657340Y647370D03*
X682740Y647370D03*
X657340Y621970D03*
X682740Y621970D03*
X657340Y596570D03*
X682740Y596570D03*
X657340Y571170D03*
X682740Y571170D03*
X657340Y545770D03*
X682740Y545770D03*
X657340Y520370D03*
X682740Y520370D03*
X657340Y494970D03*
X682740Y494970D03*
X657340Y469570D03*
X682740Y469570D03*
X657340Y444170D03*
X682740Y444170D03*
X657340Y418770D03*
X682740Y418770D03*
X657340Y393370D03*
X682740Y393370D03*
X657340Y367970D03*
X682740Y367970D03*
X657340Y342570D03*
X682740Y342570D03*
X657340Y317170D03*
X682740Y317170D03*
X657340Y291770D03*
X682740Y291770D03*
X657340Y266370D03*
X682740Y266370D03*
X657340Y240970D03*
X682740Y240970D03*
X657340Y215570D03*
X682740Y215570D03*
D14*
X606540Y698420D03*
X123940Y711120D03*
X454140Y190420D03*
M02*
